<svg version="1.1" xmlns="http://www.w3.org/2000/svg" viewBox="0 0 685.3467129157226 523.2586206044821" width="685.3467129157226" height="523.2586206044821">
  <!-- svg-source:excalidraw -->
  
  <defs>
    <style class="style-fonts">
      @font-face {
        font-family: "Virgil";
        src: url("https://excalidraw.com/Virgil.woff2");
      }
      @font-face {
        font-family: "Cascadia";
        src: url("https://excalidraw.com/Cascadia.woff2");
      }
    </style>
  </defs>
  <rect x="0" y="0" width="685.3467129157226" height="523.2586206044821" fill="#f9f9f9"></rect><g stroke-opacity="0.4" fill-opacity="0.4" stroke-linecap="round" transform="translate(280.14065098309743 477.0114485483689) rotate(359.9616966710325 22.46416663733254 17.734868397894132)"><path d="M-1.16 -0.67 L45.4 1.79 L46.73 35.96 L-0.78 33.5" stroke="none" stroke-width="0" fill="#7950f2"></path><path d="M-0.21 -1.64 C9.15 -1.69, 19.84 0.05, 44.16 1.38 M0 -0.69 C13.77 0.07, 26.22 -0.08, 44.55 0.85 M45 0.67 C46.35 6.35, 43.39 15.39, 45.27 35.37 M45.04 -0.28 C45.41 12.86, 45.24 25.75, 44.34 34.88 M45.19 37.06 C32.08 36.52, 17.87 35.91, 0.56 37.35 M43.94 35.65 C34.66 34.21, 26.11 36.02, 0.12 35.2 M1.32 33.49 C1.6 25.67, 1.26 12.4, -0.42 -1.26 M0.53 35.94 C0.94 22.04, 0 7.08, 0.67 -0.86" stroke="#000000" stroke-width="1" fill="none"></path></g><g transform="translate(290.1048176204299 484.74631694626305) rotate(359.9616966710325 12.5 10)"><text x="12.5" y="14" font-family="Virgil, Segoe UI Emoji" font-size="14.818080783191217px" fill="#000000" text-anchor="middle" style="white-space: pre;" direction="ltr">0.3</text></g><g stroke-linecap="round" transform="translate(190.3395224155969 280.2781209322189) rotate(0 152.90309486648806 64.12358613366973)"><path d="M7.86 8.16 C7.86 8.16, 7.86 8.16, 7.86 8.16 M7.86 8.16 C7.86 8.16, 7.86 8.16, 7.86 8.16 M3.66 19.09 C9.03 14.29, 12.01 8.69, 18.1 2.48 M3.66 19.09 C8.07 13.78, 11.78 11.2, 18.1 2.48 M2.75 26.24 C10.05 18.93, 16.01 12.8, 24.4 1.33 M2.75 26.24 C8.2 20.81, 13.84 12.79, 24.4 1.33 M2.48 32.64 C11.16 24.26, 20.17 12.33, 30.7 0.18 M2.48 32.64 C11.52 21.96, 19.35 12.35, 30.7 0.18 M2.88 38.28 C8.69 28.82, 17.24 20.34, 34.37 2.05 M2.88 38.28 C9.85 30.01, 19.1 20.05, 34.37 2.05 M2.62 44.68 C14.73 30.02, 26.22 17.37, 39.36 2.41 M2.62 44.68 C12.9 33.56, 21.87 21.51, 39.36 2.41 M2.36 51.07 C14.32 37.15, 30.46 19.89, 45 2.02 M2.36 51.07 C18.78 31.24, 34.51 12.81, 45 2.02 M2.75 56.72 C16.6 40.07, 30.2 24.08, 49.99 2.38 M2.75 56.72 C19.74 38.13, 35.07 18.96, 49.99 2.38 M2.49 63.11 C19.96 43.43, 36.41 23.67, 55.63 1.98 M2.49 63.11 C20.62 42.71, 39.14 22.01, 55.63 1.98 M2.88 68.76 C19.32 49.22, 34.17 30.88, 60.62 2.34 M2.88 68.76 C14.22 54.45, 27.81 39.5, 60.62 2.34 M2.62 75.16 C21.21 54.08, 35.58 36.47, 66.26 1.95 M2.62 75.16 C17.48 58.13, 34.28 40.21, 66.26 1.95 M2.36 81.55 C19.67 62.24, 36.49 40.43, 71.25 2.31 M2.36 81.55 C24.15 55.73, 46.74 30.43, 71.25 2.31 M2.76 87.2 C28.85 56.05, 58.8 22.33, 76.89 1.91 M2.76 87.2 C27.44 58.69, 51.13 31.67, 76.89 1.91 M2.49 93.59 C34.73 56.47, 64.23 21.28, 81.88 2.27 M2.49 93.59 C27.56 63.46, 54.91 33.31, 81.88 2.27 M2.89 99.24 C31.33 66.49, 63.53 31.88, 87.52 1.88 M2.89 99.24 C34.81 61.73, 68.3 25.25, 87.52 1.88 M2.63 105.64 C20.7 84.59, 39.7 61.19, 92.51 2.24 M2.63 105.64 C29.66 75.35, 57.03 44.6, 92.51 2.24 M4.33 109.77 C22.28 87.21, 42.98 62.66, 98.15 1.85 M4.33 109.77 C39.08 69.69, 73.18 29, 98.15 1.85 M5.39 114.66 C25.9 89.53, 47.08 64.16, 103.14 2.21 M5.39 114.66 C35.1 80.2, 62.93 47.26, 103.14 2.21 M7.75 118.04 C37.65 82.42, 64.12 50.56, 108.78 1.81 M7.75 118.04 C27.58 92.49, 48.96 68.72, 108.78 1.81 M10.11 121.42 C38.06 88.6, 66.06 56.58, 113.77 2.17 M10.11 121.42 C49.67 75.3, 90.28 28.14, 113.77 2.17 M13.13 124.04 C43.39 89.07, 74.2 54.77, 119.41 1.78 M13.13 124.04 C50.3 82.44, 86.4 39.68, 119.41 1.78 M16.8 125.91 C41.6 95.94, 63.13 71.85, 124.4 2.14 M16.8 125.91 C46.9 90.8, 76.87 56.16, 124.4 2.14 M20.48 127.78 C60.59 83.33, 97.49 37.08, 130.04 1.74 M20.48 127.78 C43.94 100.95, 66.87 75.6, 130.04 1.74 M24.81 128.89 C52.43 95.94, 83.07 65.85, 135.03 2.1 M24.81 128.89 C47.52 101.87, 70.7 75.62, 135.03 2.1 M29.8 129.25 C52.36 102.86, 79.58 72.32, 140.67 1.71 M29.8 129.25 C67.44 84.77, 107.61 40.44, 140.67 1.71 M34.13 130.37 C75.15 83.32, 117.88 32.95, 145.66 2.07 M34.13 130.37 C68.25 90.89, 103.83 51.93, 145.66 2.07 M39.77 129.97 C73.52 92.31, 104.64 56.36, 150.65 2.43 M39.77 129.97 C77.27 88.03, 113.15 46.03, 150.65 2.43 M44.76 130.33 C77.65 87.95, 115.99 46.37, 156.29 2.03 M44.76 130.33 C69.93 100.01, 97.89 70.39, 156.29 2.03 M50.4 129.94 C90.07 87, 131.78 42.37, 161.28 2.39 M50.4 129.94 C92.26 79.18, 135.46 29.71, 161.28 2.39 M55.39 130.3 C82.54 103.31, 104.9 75.49, 166.92 2 M55.39 130.3 C89.65 91.74, 123.31 51.12, 166.92 2 M61.03 129.9 C88.46 101.76, 112.88 69.6, 171.91 2.36 M61.03 129.9 C83.79 103.69, 106.34 76.57, 171.91 2.36 M66.02 130.26 C105.27 87.28, 143 41.99, 177.55 1.96 M66.02 130.26 C91.31 102.44, 114.56 75.71, 177.55 1.96 M71.66 129.87 C111.34 88.18, 148.25 40.36, 182.54 2.32 M71.66 129.87 C110.67 87.64, 146.81 45.43, 182.54 2.32 M76.65 130.23 C119.51 79.73, 163.31 30.96, 188.18 1.93 M76.65 130.23 C107.57 95.09, 137.39 58.89, 188.18 1.93 M81.64 130.59 C125.46 80.38, 166.66 31.23, 193.17 2.29 M81.64 130.59 C119.71 86.78, 159.23 41.97, 193.17 2.29 M87.28 130.2 C128.85 84.85, 165.43 37.68, 198.81 1.9 M87.28 130.2 C129.4 82.78, 171.73 35.07, 198.81 1.9 M92.27 130.56 C135.4 78.55, 180 29.52, 203.8 2.26 M92.27 130.56 C128.15 87.58, 165.2 45.49, 203.8 2.26 M97.91 130.16 C126.6 98.95, 153.99 65.98, 209.44 1.86 M97.91 130.16 C128.77 98.67, 155.75 65.95, 209.44 1.86 M102.9 130.52 C134.02 93.45, 167.76 51.84, 214.43 2.22 M102.9 130.52 C141.31 84.43, 181.13 40.31, 214.43 2.22 M108.54 130.13 C134.81 98.08, 164.75 62.94, 220.07 1.83 M108.54 130.13 C134.35 101.95, 157.71 74.56, 220.07 1.83 M113.53 130.49 C135.42 104.22, 158.42 80.6, 225.06 2.19 M113.53 130.49 C159.33 79.09, 202.9 27.07, 225.06 2.19 M119.17 130.09 C154.66 88.98, 189.59 48.45, 230.7 1.79 M119.17 130.09 C141.18 102.74, 163.24 77.66, 230.7 1.79 M124.16 130.45 C152.65 95.7, 184.25 61.92, 235.69 2.15 M124.16 130.45 C151.85 97.52, 181.62 64.16, 235.69 2.15 M129.8 130.06 C164.91 87.34, 202.05 44.52, 241.33 1.76 M129.8 130.06 C166.41 89.56, 202.82 47.06, 241.33 1.76 M134.79 130.42 C159.23 102.62, 183.08 73.9, 246.32 2.12 M134.79 130.42 C162.1 100.98, 187.78 71.05, 246.32 2.12 M140.43 130.02 C183.79 80.22, 228.72 31.29, 251.96 1.72 M140.43 130.02 C177.85 87.62, 214.56 46.08, 251.96 1.72 M145.42 130.38 C174.52 96.33, 204.02 61.94, 256.95 2.08 M145.42 130.38 C168.25 104.17, 192.19 77.83, 256.95 2.08 M151.06 129.99 C187.34 87.52, 227.84 44.61, 262.59 1.69 M151.06 129.99 C190.3 87.33, 226.66 42.23, 262.59 1.69 M156.05 130.35 C199.79 79.46, 245.5 31.18, 267.58 2.05 M156.05 130.35 C179.97 104.63, 202.4 78.54, 267.58 2.05 M161.69 129.95 C186.25 99.7, 214.11 73.31, 274.53 0.14 M161.69 129.95 C197.07 87.68, 233.51 46.23, 274.53 0.14 M166.68 130.31 C194.25 98.65, 220.23 67.89, 278.86 1.26 M166.68 130.31 C191.25 102.06, 214.36 73.08, 278.86 1.26 M172.32 129.92 C193.9 104.8, 218.2 76.67, 283.85 1.62 M172.32 129.92 C193.64 103.86, 216.42 77.33, 283.85 1.62 M177.31 130.28 C202.9 102.19, 228.9 73.06, 288.18 2.73 M177.31 130.28 C217.62 83.98, 256.02 39.19, 288.18 2.73 M182.95 129.89 C212.65 94.96, 245.76 58.99, 291.86 4.6 M182.95 129.89 C222.03 85.74, 259.1 43.66, 291.86 4.6 M187.94 130.25 C212.53 103.48, 236.5 71.02, 295.53 6.47 M187.94 130.25 C226.21 88.54, 264.66 43.95, 295.53 6.47 M193.58 129.85 C231.72 87.52, 268.8 43.62, 298.55 9.1 M193.58 129.85 C225.28 93.46, 255.5 56.66, 298.55 9.1 M198.57 130.21 C230.18 92.24, 263.66 52.29, 301.57 11.72 M198.57 130.21 C222.41 103.14, 245.08 77.2, 301.57 11.72 M203.55 130.57 C241.5 90.93, 277 48.06, 303.93 15.1 M203.55 130.57 C227.81 100.88, 253.54 73.84, 303.93 15.1 M209.2 130.18 C227.96 104.84, 251.24 79.95, 305.64 19.23 M209.2 130.18 C245.98 86.75, 283.46 43.29, 305.64 19.23 M214.18 130.54 C243.75 95.85, 276.03 57.58, 306.03 24.88 M214.18 130.54 C243.65 95.81, 273.61 63.12, 306.03 24.88 M219.83 130.14 C239.15 106.88, 256.45 86.42, 305.77 31.27 M219.83 130.14 C253.14 92.46, 285.71 55.35, 305.77 31.27 M224.81 130.5 C257.4 96.72, 288.17 61.48, 306.17 36.92 M224.81 130.5 C250.4 100.14, 278.68 68.38, 306.17 36.92 M230.46 130.11 C255.39 104.6, 277.23 75.54, 305.9 43.32 M230.46 130.11 C255.35 101.09, 281.7 69.67, 305.9 43.32 M235.44 130.47 C251.88 108.08, 272.47 90.31, 306.3 48.96 M235.44 130.47 C250.8 112.23, 265.46 94.5, 306.3 48.96 M241.09 130.07 C254.45 117.46, 267.86 100.43, 306.04 55.36 M241.09 130.07 C260.17 106.78, 282.18 83.05, 306.04 55.36 M246.07 130.43 C270.67 105.32, 292.51 78.11, 306.43 61 M246.07 130.43 C269.82 103.51, 293.39 76.58, 306.43 61 M251.72 130.04 C267.17 108.73, 284.13 90.44, 306.17 67.4 M251.72 130.04 C269.89 109.12, 288.63 87.9, 306.17 67.4 M256.7 130.4 C270.56 113.59, 285.13 97.94, 306.56 73.04 M256.7 130.4 C267.01 117.3, 276.82 105.64, 306.56 73.04 M262.35 130 C270.67 120.08, 283.5 105.96, 306.3 79.44 M262.35 130 C277.24 111.39, 294.37 93.87, 306.3 79.44 M267.33 130.36 C282.07 115.74, 293.58 100.12, 306.04 85.84 M267.33 130.36 C277.91 116.92, 289.67 103.72, 306.04 85.84 M274.29 128.46 C286.17 112.26, 298.81 100.26, 306.44 91.48 M274.29 128.46 C286.28 115.48, 297.37 103.65, 306.44 91.48 M279.93 128.07 C284.04 122.91, 292.57 117.18, 306.83 97.12 M279.93 128.07 C285.79 122.46, 291.42 116.16, 306.83 97.12 M286.23 126.92 C292.45 121.68, 296.24 116.68, 305.91 104.27 M286.23 126.92 C292.67 118.68, 299.62 110.09, 305.91 104.27 M293.84 124.26 C299.14 120.16, 300.59 116.01, 305 111.43 M293.84 124.26 C297.08 118.96, 301.69 115.23, 305 111.43" stroke="#e64980" stroke-width="0.5" fill="none"></path><path d="M32 0 M32 0 C87.58 0.23, 144.9 0.86, 273.81 0 M32 0 C88.96 -0.2, 146.86 -0.84, 273.81 0 M273.81 0 C293.7 0.84, 307.02 8.74, 305.81 32 M273.81 0 C295.75 1.43, 306.11 12.36, 305.81 32 M305.81 32 C306.16 46.03, 306.46 59.87, 305.81 96.25 M305.81 32 C305.86 45.78, 304.59 60.65, 305.81 96.25 M305.81 96.25 C304.17 118.56, 295.04 129.58, 273.81 128.25 M305.81 96.25 C305.58 115.78, 293.81 128.9, 273.81 128.25 M273.81 128.25 C211.13 128.44, 147.15 127.74, 32 128.25 M273.81 128.25 C219.38 129.24, 163.93 129.11, 32 128.25 M32 128.25 C10.4 129.13, 0.75 117.8, 0 96.25 M32 128.25 C10.2 129.1, 2.02 116.71, 0 96.25 M0 96.25 C-1.42 80.68, 0.84 61.39, 0 32 M0 96.25 C-0.57 71.54, -0.78 45.8, 0 32 M0 32 C-1.46 10.7, 10.49 0.5, 32 0 M0 32 C-1.49 9.15, 9.63 1.35, 32 0" stroke="#000000" stroke-width="1" fill="none"></path></g><g stroke-opacity="0.5" fill-opacity="0.5" stroke-linecap="round" transform="translate(144.17335698235865 477.1023453092083) rotate(359.9616966710325 22.464166637332568 17.734868397894132)"><path d="M0.8 0.17 L45.23 0.91 L44.99 36.27 L-1.7 35.41" stroke="none" stroke-width="0" fill="#7950f2"></path><path d="M-1.05 -0.33 C12 -0.3, 22.32 -0.16, 46.28 -0.31 M0.47 0.36 C11.89 0.74, 22.68 -0.14, 44.88 -0.36 M43.33 0.16 C43.75 15.73, 42.7 28.68, 44.73 37.15 M45.11 -0.69 C45.45 9.24, 45.13 19.7, 44.82 36.2 M45.97 35.81 C34.59 33.65, 23.58 33.44, -1.72 35.26 M45.34 35.68 C30.53 35.08, 18.82 35.83, 0.11 34.83 M1.45 35.43 C-0.47 21.23, -1.1 11.66, -1.84 -1.77 M0.3 34.52 C0.02 26.29, 0.17 16.34, 0.65 -0.25" stroke="#000000" stroke-width="1" fill="none"></path></g><g transform="translate(154.63752361969136 484.8372137071025) rotate(359.9616966710325 12 10)"><text x="12" y="14" font-family="Virgil, Segoe UI Emoji" font-size="14.818080783191217px" fill="#000000" text-anchor="middle" style="white-space: pre;" direction="ltr">0.5</text></g><g stroke-opacity="0.8" fill-opacity="0.8" stroke-linecap="round" transform="translate(189.10168021738514 477.0723098578005) rotate(359.9616966710325 22.464166637332568 17.734868397894132)"><path d="M-0.26 -0.78 L44.89 -0.3 L42.94 34.57 L-0.55 37.21" stroke="none" stroke-width="0" fill="#7950f2"></path><path d="M-0.51 1.91 C16.7 1.73, 35.59 1.89, 46.44 -1.84 M-0.12 0.75 C14.42 -0.38, 29.66 -0.73, 44.03 0.35 M45.99 0.66 C45.34 8.31, 45.98 13.77, 46.8 34.25 M44.13 -0.21 C44.84 9.22, 45.69 18.9, 44.46 35.97 M42.93 36.22 C36.27 34.84, 25.13 35.29, -1.87 34.44 M45.74 35.83 C35.07 35.41, 24.58 34.96, 0 34.91 M-1.37 34.41 C0.23 26.26, -1 18.45, -0.8 -1.9 M-0.13 35.3 C0.22 25.06, -0.56 16.03, 0.84 0.99" stroke="#000000" stroke-width="1" fill="none"></path></g><g stroke-opacity="0.8" fill-opacity="0.8" transform="translate(202.06584685471785 484.8071782556946) rotate(359.9616966710325 9.5 10)"><text x="9.5" y="14" font-family="Virgil, Segoe UI Emoji" font-size="14.818080783191217px" fill="#000000" text-anchor="middle" style="white-space: pre;" direction="ltr">1.3</text></g><g stroke-opacity="0.3" fill-opacity="0.3" stroke-linecap="round" transform="translate(235.21232774807072 477.0414839997776) rotate(359.9616966710325 22.46416663733254 17.734868397894132)"><path d="M1.35 -1.72 L43.77 -0.67 L45.4 37.26 L1.81 35.96" stroke="none" stroke-width="0" fill="#7950f2"></path><path d="M-1.25 0.54 C11.73 -1.3, 22.93 -1.23, 44.55 0.17 M0.84 -0.72 C11.75 -0.62, 24.46 -0.19, 45.55 -0.4 M43.4 1.22 C45.3 9.99, 46.92 17.34, 43.66 35.59 M45.27 -0.95 C45.02 10.96, 45.27 22.92, 45.12 36.38 M46.05 35.35 C34.37 37.15, 24.86 36.64, 1.77 35.94 M44.38 34.85 C29.2 35.23, 14.47 34.07, -0.25 36.3 M-0.51 34.7 C1.42 22.43, 1.6 15.34, 1.17 0.49 M-0.4 35.38 C0.75 26.04, 1.02 15.94, -0.14 -0.99" stroke="#000000" stroke-width="1" fill="none"></path></g><g transform="translate(244.6764943854032 484.77635239767176) rotate(359.9616966710325 13 10)"><text x="13" y="14" font-family="Virgil, Segoe UI Emoji" font-size="14.818080783191217px" fill="#000000" text-anchor="middle" style="white-space: pre;" direction="ltr">0.2</text></g><g stroke-opacity="0.6" fill-opacity="0.6" stroke-linecap="round" transform="translate(370.5675008030172 476.981017893654) rotate(359.9616966710325 22.46416663733254 17.734868397894132)"><path d="M-1.01 -0.35 L46.71 1.94 L46.05 34.93 L-1.26 34.9" stroke="none" stroke-width="0" fill="#7950f2"></path><path d="M1.91 -1.78 C9.99 -1.47, 19.5 -0.8, 44 -0.6 M-0.16 0.19 C14.27 -0.6, 30.36 -0.35, 45.53 -0.77 M44.24 -0.74 C44.61 8, 47.08 18.31, 45.46 34.07 M45.68 -0.67 C44.92 8.84, 44.38 15.46, 44.53 35.47 M46.55 35.04 C35.73 35.94, 25.66 33.93, 0.98 36.54 M45.66 35.36 C31.89 35.5, 18.96 35.18, -0.63 34.82 M1.7 33.68 C-1.63 23.74, -0.83 8.8, 0 0.35 M0.67 35.08 C0.4 27.78, -1.07 19.65, -0.11 0.56" stroke="#000000" stroke-width="1" fill="none"></path></g><g transform="translate(379.5316674403497 484.71588629154814) rotate(359.9616966710325 13.5 10)"><text x="13.5" y="14" font-family="Virgil, Segoe UI Emoji" font-size="14.818080783191217px" fill="#000000" text-anchor="middle" style="white-space: pre;" direction="ltr">0.8</text></g><g stroke-opacity="0.2" fill-opacity="0.2" stroke-linecap="round" transform="translate(416.4942037615982 476.4194062142585) rotate(359.9616966710325 20.5 18)"><path d="M1.78 1.94 L42.12 -0.54 L39.74 35.43 L0.58 36.39" stroke="none" stroke-width="0" fill="#7950f2"></path><path d="M0.09 -1.86 C8.41 -0.83, 16.5 -0.23, 41.66 0.93 M-0.69 -0.91 C9.92 -0.74, 19.54 -0.85, 40.63 0.8 M40.39 -1.33 C42.75 9.12, 41.4 17.52, 39.47 35.52 M41.08 0.91 C40.81 13.46, 40.87 27.72, 40.17 35.05 M41.55 36.34 C27.82 34.25, 15.16 36.98, -0.38 35.49 M40.58 35.79 C25.84 35.43, 11.51 35.31, 0.79 35.78 M-1.71 37.73 C-1.21 27.35, -0.31 18.55, -1.39 1.86 M0.74 36.49 C-0.98 26.12, -0.35 15.7, -0.51 -0.18" stroke="#000000" stroke-width="1" fill="none"></path></g><g transform="translate(427.4942037615982 484.4194062142585) rotate(359.9616966710325 9.5 10)"><text x="9.5" y="14" font-family="Virgil, Segoe UI Emoji" font-size="14.818080783191217px" fill="#000000" text-anchor="middle" style="white-space: pre;" direction="ltr">0.1</text></g><g stroke-opacity="0.7" fill-opacity="0.7" stroke-linecap="round" transform="translate(458.21723651687637 476.9201565842221) rotate(359.9616966710325 22.46416663733254 17.734868397894132)"><path d="M1.12 -0.54 L43.67 -0.57 L45.5 35.86 L-1.79 37.24" stroke="none" stroke-width="0" fill="#7950f2"></path><path d="M-0.3 -1.19 C8.55 -0.18, 19.61 1.35, 43.55 -0.32 M0.45 -0.66 C14.93 -0.37, 28.29 1.21, 44.56 -0.35 M46.8 -0.34 C45.35 7.93, 43.29 18.17, 46.63 36.97 M44.47 -0.4 C44.56 8.27, 44.13 15.57, 45.2 36.28 M45.16 33.81 C33.39 36.62, 19.51 35.04, 1.04 36.93 M44.2 34.95 C31.31 34.73, 19.74 35.16, -0.53 36.32 M-0.91 35.72 C0.3 28.36, -1.08 22.42, -0.21 1.34 M-0.74 36.02 C-0.37 26.76, -0.77 16.75, 0.89 0.97" stroke="#000000" stroke-width="1" fill="none"></path></g><g transform="translate(474.18140315420885 484.6550249821163) rotate(359.9616966710325 6.5 10)"><text x="6.5" y="14" font-family="Virgil, Segoe UI Emoji" font-size="14.818080783191217px" fill="#000000" text-anchor="middle" style="white-space: pre;" direction="ltr">1.1</text></g><g stroke-opacity="0.3" fill-opacity="0.3" stroke-linecap="round" transform="translate(503.99286851486534 476.8901211328142) rotate(359.9616966710325 22.46416663733254 17.734868397894132)"><path d="M-1.26 -0.57 L45.5 0.39 L43.14 37.24 L0.3 34.94" stroke="none" stroke-width="0" fill="#7950f2"></path><path d="M-0.93 -0.6 C9.96 1.2, 17.22 -0.05, 45.31 -1.38 M0.6 -0.77 C9.04 1.1, 18.45 -0.05, 44.56 -0.3 M45.46 -1.39 C43.73 7.8, 46.96 18.07, 43.59 35.63 M44.53 0 C43.93 12.91, 45.04 28.53, 44.71 35.74 M45.91 36.54 C30.29 34.59, 17.46 36.56, -0.22 34.63 M44.3 34.82 C33.17 35.02, 19.3 36.09, -0.9 34.62 M0 35.82 C-1.22 23.63, -0.04 9.41, -0.77 1.47 M-0.11 36.03 C-0.24 22.9, 1.15 11.65, 0.56 -0.27" stroke="#000000" stroke-width="1" fill="none"></path></g><g transform="translate(513.957035152198 484.6249895307084) rotate(359.9616966710325 12.5 10)"><text x="12.5" y="14" font-family="Virgil, Segoe UI Emoji" font-size="14.818080783191217px" fill="#000000" text-anchor="middle" style="white-space: pre;" direction="ltr">0.3</text></g><g transform="translate(45.01628740781507 10) rotate(0 289.5 23)"><text x="0" y="32" font-family="Virgil, Segoe UI Emoji" font-size="36px" fill="#c92a2a" text-anchor="start" style="white-space: pre;" direction="ltr">SENTENCE TRANSFORMER V2.0</text></g><g stroke-opacity="0.5" fill-opacity="0.5" stroke-linecap="round" transform="translate(10.023252100732122 136.2715110156442) rotate(359.9616966710325 44.075231212576625 34.79623516782366)"><path d="M-1.72 1.98 L87.03 1.1 L89 67.87 L-1.88 68.98" stroke="none" stroke-width="0" fill="#ced4da"></path><path d="M-0.36 -0.93 C22.37 0.03, 45.64 0.78, 86.79 1.9 M-0.32 0.91 C27.01 -0.53, 55.3 -0.16, 88.23 0.46 M88.93 -1.39 C87.65 18.13, 86.63 40.7, 89.6 71.5 M88.91 -0.55 C88.98 22.29, 87.47 44.63, 87.65 68.79 M89.44 68.13 C58.78 68.2, 31.92 68.36, -1.2 68.1 M88.71 68.99 C68.42 69.62, 49.96 69.8, 0.03 69.46 M1.57 71.15 C1.11 46.74, -1.04 24.36, 0.06 1.49 M-0.73 68.85 C-1.29 52.28, -0.54 35.24, 0.23 0.08" stroke="#000000" stroke-width="1" fill="none"></path></g><g stroke-opacity="0.5" fill-opacity="0.5" transform="translate(28.598483313308748 153.06774618346785) rotate(359.9616966710325 25.5 18)"><text x="25.5" y="25" font-family="Virgil, Segoe UI Emoji" font-size="28px" fill="#000000" text-anchor="middle" style="white-space: pre;" direction="ltr">Jag</text></g><g stroke-opacity="0.5" fill-opacity="0.5" stroke-linecap="round" transform="translate(98.17369482787473 136.2125807429682) rotate(359.9616966710325 44.075231212576625 34.79623516782366)"><path d="M-1.12 1.1 L89 -1.73 L86.27 68.98 L-1.96 68.91" stroke="none" stroke-width="0" fill="#ced4da"></path><path d="M-0.06 -0.12 C25.75 1.05, 48.56 2.32, 88.49 0.45 M-0.94 -0.97 C21.4 -1.4, 44.09 -0.34, 88.02 -0.54 M88.03 -1.82 C87.27 21.79, 89.87 43.93, 88.59 70.18 M88.78 -0.11 C87.8 25.76, 88.18 51.07, 88.26 69.68 M86.17 68.68 C65.04 68.19, 43.63 67.46, -1.68 68.9 M87.47 69.54 C60.83 69.19, 33.73 68.93, 0.18 70.1 M1.47 68.89 C-1.24 42.99, -0.48 19.75, -1.05 1.52 M-0.76 69.49 C0.5 44.22, 0.74 18.78, -0.86 0.99" stroke="#000000" stroke-width="1" fill="none"></path></g><g stroke-opacity="0.5" fill-opacity="0.5" transform="translate(119.24892604045135 153.00881591079187) rotate(359.9616966710325 23 18)"><text x="23" y="25" font-family="Virgil, Segoe UI Emoji" font-size="28px" fill="#000000" text-anchor="middle" style="white-space: pre;" direction="ltr">kan</text></g><g stroke-opacity="0.5" fill-opacity="0.5" stroke-linecap="round" transform="translate(184.62014357898767 136.1220745379622) rotate(359.9616966710325 88.99999999999997 34)"><path d="M0.85 -1.73 L176.12 -0.62 L176.04 67.31 L-0.5 69.83" stroke="none" stroke-width="0" fill="#ced4da"></path><path d="M0.79 0.63 C43.72 2.01, 90.5 0.56, 176.99 -0.65 M-0.6 -0.6 C69.67 2.2, 139.05 1.19, 178.02 0.39 M176.85 0.78 C179.41 17.57, 178.4 31.91, 179.45 69.53 M177.12 -0.18 C177.92 15.84, 178.53 33.38, 177.46 68.64 M176.55 67.25 C136.41 65.7, 95.54 66.5, 0.18 69.13 M177.9 68.13 C135.28 67.77, 92.69 68.41, 0.69 68.78 M-0.69 67.07 C-0.44 43.8, -1.55 18.14, 1.31 -1.46 M-0.01 68.07 C0.74 52.71, -0.34 38.25, -0.56 0.55" stroke="#000000" stroke-width="1" fill="none"></path></g><g stroke-opacity="0.5" fill-opacity="0.5" transform="translate(209.12014357898767 152.1220745379622) rotate(359.9616966710325 64.49999999999997 18)"><text x="64.5" y="25" font-family="Virgil, Segoe UI Emoji" font-size="28px" fill="#000000" text-anchor="middle" style="white-space: pre;" direction="ltr">represent</text></g><g stroke-opacity="0.5" fill-opacity="0.5" stroke-linecap="round" transform="translate(360.772932044836 135.08085924078995) rotate(359.9616966710325 62.5 34.5)"><path d="M-1.88 -0.62 L123.04 -0.69 L124.5 70.83 L-0.88 68.46" stroke="none" stroke-width="0" fill="#ced4da"></path><path d="M-1.36 1.9 C37.1 0.06, 72.51 -1.04, 126.82 -1.89 M0.08 0.46 C25.19 0.21, 50.66 1.14, 124.3 -0.06 M126.45 1.91 C125.04 14.99, 126.06 30.33, 123.9 70.26 M124.5 -0.81 C124.5 20.04, 123.85 40.55, 124.27 68.01 M123.8 67.51 C91.53 67.84, 61.59 69.65, -1.2 67.63 M125.03 68.87 C88.37 69.67, 52.05 69.95, 0.78 69.73 M0.06 70.49 C-0.82 52.23, 1.55 30.96, -1.48 -1.52 M0.23 69.08 C-0.85 49.98, -0.55 29.53, 0.43 -0.86" stroke="#000000" stroke-width="1" fill="none"></path></g><g stroke-opacity="0.5" fill-opacity="0.5" transform="translate(377.272932044836 151.58085924078995) rotate(359.9616966710325 46 18)"><text x="46" y="25" font-family="Virgil, Segoe UI Emoji" font-size="28px" fill="#000000" text-anchor="middle" style="white-space: pre;" direction="ltr">##era</text></g><g stroke-opacity="0.5" fill-opacity="0.5" stroke-linecap="round" transform="translate(485.607173118701 134.08431502786735) rotate(359.9616966710325 46 35)"><path d="M-1.96 -0.69 L91.5 1.83 L91.12 69.46 L1.28 71.34" stroke="none" stroke-width="0" fill="#fa5252"></path><path d="M0.34 0.45 C29.51 -1.52, 62.85 -2.76, 90.05 -1.2 M-0.13 -0.54 C22.09 -0.04, 43.45 -0.48, 91.09 -0.57 M92.44 0.59 C93.96 25.27, 91.4 48.75, 91.78 68.24 M92.11 0.09 C91.1 20.4, 90.92 38.53, 91.54 69.27 M90.32 69.31 C68.04 70.44, 42.54 67.95, -0.11 69.81 M92.18 70.51 C63.89 70.66, 35.19 70.61, -0.35 69.66 M-1.05 71.52 C1.29 50.81, -1.5 33.02, -0.2 -0.02 M-0.86 70.99 C-0.72 49.05, 0.27 26.14, -0.94 -0.31" stroke="#000000" stroke-width="1" fill="none"></path></g><g stroke-opacity="0.5" fill-opacity="0.5" transform="translate(508.607173118701 151.08431502786735) rotate(359.9616966710325 23 18)"><text x="23" y="25" font-family="Virgil, Segoe UI Emoji" font-size="28px" fill="#000000" text-anchor="middle" style="white-space: pre;" direction="ltr">mer</text></g><g stroke-opacity="0.5" fill-opacity="0.5" stroke-linecap="round" transform="translate(578.3233255830512 133.88834594363462) rotate(359.9616966710325 48.5 35)"><path d="M-0.5 1.83 L96.12 -0.54 L98.28 71.34 L0.31 71.13" stroke="none" stroke-width="0" fill="#fa5252"></path><path d="M-1.01 -0.65 C40.15 -2.1, 74.71 -1.42, 95.8 0.15 M0.02 0.39 C32.88 0.46, 66.24 -0.05, 97.39 0.73 M98.45 1.53 C96.05 28.95, 96.94 53.62, 96.65 68.99 M96.46 0.64 C96.34 14.37, 96.62 29.99, 96.62 69.4 M97.18 71.13 C73.92 68.3, 53.13 69.47, 0.26 70.06 M97.69 70.78 C69.96 71.23, 41.02 70.15, -0.47 70.03 M1.31 68.54 C-1.11 42.27, 0.17 17.55, 0.14 0.46 M-0.56 70.55 C1.03 47.57, -0.34 26.55, -0.98 -0.34" stroke="#000000" stroke-width="1" fill="none"></path></g><g stroke-opacity="0.5" fill-opacity="0.5" transform="translate(594.8233255830512 150.88834594363462) rotate(359.9616966710325 32 18)"><text x="32" y="25" font-family="Virgil, Segoe UI Emoji" font-size="28px" fill="#000000" text-anchor="middle" style="white-space: pre;" direction="ltr">text</text></g><g transform="translate(539.8936426638371 91.77204944279299) rotate(0 40.5 18)"><text x="0" y="25" font-family="Virgil, Segoe UI Emoji" font-size="28px" fill="#c92a2a" text-anchor="start" style="white-space: pre;" direction="ltr">+50%</text></g><g transform="translate(211.08149361312405 342.9550364363497) rotate(0 32 10)"><text x="0" y="14" font-family="Virgil, Segoe UI Emoji" font-size="15.75492572324849px" fill="#000000" text-anchor="start" style="white-space: pre;" direction="ltr">softmax</text></g><g transform="translate(285.9563881394538 338.35335021025224) rotate(0 -2.7298138629391246 14.818989541669438)" stroke="none"><path fill="#000000" d="M 2.02,1.62 Q 2.02,1.62 1.61,2.20 1.19,2.79 0.54,4.22 -0.10,5.66 -0.72,7.15 -1.34,8.65 -1.71,9.67 -2.09,10.69 -2.06,11.84 -2.04,12.98 -2.01,14.14 -1.97,15.30 -1.94,16.46 -1.91,17.62 -1.88,18.80 -1.85,19.99 -1.56,21.42 -1.28,22.85 -0.61,24.19 0.05,25.53 1.66,26.68 3.26,27.83 3.45,28.40 3.63,28.98 3.63,29.58 3.62,30.18 3.42,30.75 3.23,31.32 2.86,31.80 2.49,32.28 1.98,32.61 1.48,32.94 0.90,33.10 0.32,33.25 -0.28,33.21 -0.88,33.18 -1.44,32.95 -2.00,32.72 -2.45,32.32 -2.91,31.93 -3.21,31.41 -3.52,30.89 -3.64,30.30 -3.77,29.71 -3.70,29.11 -3.62,28.51 -3.37,27.97 -3.11,27.42 -2.69,26.99 -2.27,26.55 -1.73,26.28 -1.20,26.00 -0.60,25.91 -0.00,25.82 0.58,25.92 1.17,26.02 1.70,26.31 2.23,26.60 2.64,27.04 3.06,27.48 3.30,28.03 3.55,28.58 3.61,29.18 3.67,29.78 3.53,30.37 3.40,30.96 3.08,31.47 2.77,31.99 2.30,32.37 1.84,32.76 1.28,32.97 0.71,33.19 0.11,33.22 -0.48,33.25 -1.06,33.08 -1.64,32.91 -2.14,32.57 -2.63,32.22 -2.99,31.74 -3.35,31.26 -3.35,31.26 -3.35,31.26 -4.58,30.33 -5.81,29.40 -6.54,28.13 -7.28,26.86 -7.63,25.74 -7.99,24.63 -8.54,23.05 -9.09,21.47 -9.07,20.34 -9.04,19.20 -9.01,17.95 -8.98,16.70 -8.94,15.37 -8.89,14.05 -8.84,12.89 -8.78,11.74 -8.49,10.40 -8.20,9.06 -7.63,7.64 -7.06,6.22 -6.45,5.18 -5.85,4.13 -5.16,3.09 -4.48,2.05 -3.73,0.74 -2.99,-0.55 -2.51,-1.08 -2.02,-1.62 -1.80,-1.84 -1.58,-2.06 -1.31,-2.21 -1.04,-2.37 -0.74,-2.46 -0.44,-2.55 -0.12,-2.57 0.18,-2.59 0.49,-2.53 0.79,-2.47 1.08,-2.33 1.36,-2.20 1.61,-2.01 1.85,-1.81 2.04,-1.56 2.23,-1.32 2.36,-1.03 2.48,-0.74 2.54,-0.43 2.59,-0.13 2.57,0.18 2.54,0.49 2.45,0.79 2.35,1.09 2.19,1.35 2.02,1.62 2.02,1.62 L 2.02,1.62 Z"></path></g><g stroke-linecap="round"><g transform="translate(290.24609563835816 353.562313160913) rotate(0 42.699425362810416 -0.08248578055663103)"><path d="M-0.98 -1.01 C13.45 -1.16, 72 -1.42, 86.38 -1.06 M0.7 1.08 C15.01 1.05, 70.99 0.2, 85.48 -0.08" stroke="#000000" stroke-width="1" fill="none"></path></g></g><mask></mask><g transform="translate(389.29934152214844 338.35335021025224) rotate(0 -2.534827158443477 14.818989541669438)" stroke="none"><path fill="#000000" d="M -3.48,-1.69 Q -3.48,-1.69 -2.97,-1.15 -2.45,-0.62 -1.66,0.68 -0.86,2.00 -0.13,3.03 0.59,4.07 1.23,5.11 1.87,6.15 2.48,7.58 3.09,9.02 3.40,10.37 3.71,11.72 3.77,12.88 3.83,14.05 3.87,15.37 3.91,16.70 3.94,17.95 3.98,19.20 4.00,20.34 4.02,21.47 3.42,23.10 2.82,24.72 2.44,25.84 2.05,26.96 1.26,28.23 0.48,29.50 -0.40,30.09 -1.28,30.69 -1.71,31.02 -2.14,31.35 -2.52,31.83 -2.89,32.30 -3.40,32.63 -3.90,32.96 -4.49,33.11 -5.07,33.26 -5.67,33.21 -6.28,33.17 -6.83,32.94 -7.39,32.70 -7.84,32.30 -8.29,31.90 -8.59,31.38 -8.89,30.86 -9.01,30.27 -9.13,29.67 -9.05,29.08 -8.98,28.48 -8.71,27.93 -8.45,27.39 -8.03,26.96 -7.60,26.53 -7.07,26.26 -6.53,25.99 -5.93,25.90 -5.33,25.82 -4.74,25.92 -4.15,26.03 -3.62,26.33 -3.09,26.62 -2.69,27.06 -2.28,27.51 -2.04,28.06 -1.79,28.61 -1.74,29.22 -1.69,29.82 -1.83,30.40 -1.97,30.99 -2.29,31.50 -2.61,32.01 -3.08,32.39 -3.54,32.77 -4.11,32.99 -4.67,33.20 -5.28,33.22 -5.88,33.24 -6.46,33.07 -7.04,32.90 -7.53,32.55 -8.02,32.20 -8.38,31.71 -8.73,31.23 -8.91,30.65 -9.10,30.08 -9.08,29.47 -9.07,28.87 -8.87,28.30 -8.67,27.73 -8.67,27.73 -8.67,27.73 -6.50,25.72 -4.34,23.71 -3.79,22.59 -3.24,21.47 -3.22,20.34 -3.20,19.20 -3.16,17.95 -3.13,16.70 -3.10,15.60 -3.06,14.50 -2.87,13.37 -2.67,12.24 -3.11,10.87 -3.55,9.50 -4.00,8.35 -4.45,7.20 -5.09,6.02 -5.72,4.84 -6.13,3.85 -6.53,2.86 -6.98,2.28 -7.43,1.69 -7.60,1.43 -7.78,1.17 -7.88,0.87 -7.99,0.58 -8.02,0.26 -8.05,-0.04 -8.01,-0.35 -7.97,-0.66 -7.85,-0.95 -7.74,-1.24 -7.55,-1.50 -7.37,-1.75 -7.13,-1.95 -6.90,-2.16 -6.62,-2.30 -6.34,-2.44 -6.03,-2.51 -5.73,-2.58 -5.41,-2.58 -5.10,-2.57 -4.80,-2.49 -4.49,-2.41 -4.22,-2.26 -3.94,-2.11 -3.71,-1.90 -3.48,-1.69 -3.48,-1.69 L -3.48,-1.69 Z"></path></g><g transform="translate(311.30465972388834 376.18077088240847) rotate(0 16.963843291121577 -4.67968090789563)" stroke="none"><path fill="#000000" d="M -1.00,-0.86 Q -1.00,-0.86 -0.89,-2.13 -0.78,-3.39 -0.04,-4.22 0.68,-5.06 0.93,-5.17 1.17,-5.28 1.39,-5.50 1.61,-5.71 1.88,-5.87 2.14,-6.02 2.44,-6.11 2.74,-6.20 3.04,-6.21 3.35,-6.23 3.65,-6.17 3.96,-6.11 4.24,-5.98 4.52,-5.85 4.76,-5.65 5.00,-5.46 5.18,-5.22 5.37,-4.97 5.49,-4.69 5.62,-4.40 5.67,-4.10 5.72,-3.80 5.70,-3.49 5.67,-3.18 5.58,-2.89 5.48,-2.59 5.32,-2.33 5.16,-2.07 5.86,-0.22 6.56,1.61 6.63,2.71 6.70,3.81 6.87,4.95 7.03,6.09 7.00,6.39 6.97,6.69 6.87,6.98 6.77,7.27 6.61,7.52 6.44,7.78 6.22,7.99 6.00,8.20 5.73,8.34 5.46,8.49 5.17,8.58 4.88,8.66 4.57,8.66 4.27,8.67 3.97,8.61 3.67,8.54 3.40,8.41 3.12,8.27 2.89,8.08 2.66,7.88 2.48,7.64 2.30,7.39 2.18,7.11 2.06,6.83 2.02,6.53 1.97,6.22 2.20,4.75 2.42,3.28 2.56,1.60 2.71,-0.06 2.89,-2.12 3.06,-4.18 3.25,-5.98 3.44,-7.78 3.51,-9.04 3.58,-10.29 3.74,-11.41 3.90,-12.52 4.01,-13.62 4.13,-14.72 4.36,-15.51 4.59,-16.31 4.69,-16.59 4.80,-16.87 4.98,-17.11 5.15,-17.35 5.37,-17.55 5.60,-17.74 5.86,-17.88 6.13,-18.01 6.42,-18.08 6.71,-18.15 7.01,-18.15 7.31,-18.14 7.60,-18.07 7.89,-17.99 8.15,-17.85 8.41,-17.71 8.63,-17.51 8.85,-17.31 9.02,-17.06 9.19,-16.82 9.29,-16.54 9.39,-16.26 9.42,-15.96 9.46,-15.66 9.42,-15.37 9.38,-15.07 8.75,-16.24 8.12,-17.40 9.20,-17.39 10.28,-17.37 11.61,-17.16 12.93,-16.95 14.19,-16.93 15.46,-16.91 16.59,-17.07 17.71,-17.22 19.09,-17.45 20.48,-17.67 21.86,-17.69 23.24,-17.72 24.46,-17.86 25.67,-18.01 26.98,-18.05 28.28,-18.10 29.52,-18.29 30.76,-18.49 31.98,-17.54 33.21,-16.60 33.37,-16.58 33.53,-16.57 33.67,-16.51 33.82,-16.46 33.95,-16.37 34.09,-16.29 34.19,-16.17 34.30,-16.05 34.38,-15.91 34.45,-15.77 34.49,-15.62 34.53,-15.47 34.54,-15.31 34.54,-15.15 34.50,-15.00 34.47,-14.84 34.40,-14.70 34.33,-14.56 34.22,-14.44 34.12,-14.32 33.99,-14.23 33.86,-14.14 33.72,-14.08 33.57,-14.02 33.41,-14.00 33.26,-13.97 33.51,-14.03 33.77,-14.09 33.56,-14.03 33.36,-13.98 33.14,-13.99 32.93,-14.01 32.74,-14.09 32.54,-14.17 32.38,-14.31 32.22,-14.45 32.11,-14.64 32.01,-14.82 31.96,-15.03 31.92,-15.24 31.95,-15.45 31.97,-15.66 32.07,-15.85 32.16,-16.04 32.31,-16.19 32.45,-16.34 32.64,-16.44 32.83,-16.54 33.04,-16.57 33.25,-16.60 33.46,-16.56 33.67,-16.53 33.86,-16.42 34.04,-16.32 34.19,-16.16 34.33,-16.01 34.42,-15.81 34.50,-15.62 34.52,-15.41 34.54,-15.20 34.49,-14.99 34.45,-14.78 34.33,-14.60 34.22,-14.42 34.06,-14.29 33.89,-14.15 33.69,-14.08 33.50,-14.00 33.28,-13.99 33.07,-13.98 32.87,-14.04 32.66,-14.10 32.49,-14.23 32.32,-14.35 32.19,-14.52 32.06,-14.69 32.00,-14.89 31.93,-15.10 31.94,-15.31 31.94,-15.52 32.01,-15.72 32.08,-15.92 32.21,-16.09 32.35,-16.25 32.78,-16.43 33.21,-16.60 33.37,-16.58 33.53,-16.57 33.67,-16.51 33.82,-16.46 33.95,-16.37 34.09,-16.29 34.19,-16.17 34.30,-16.05 34.38,-15.91 34.45,-15.77 34.49,-15.62 34.53,-15.47 34.54,-15.31 34.54,-15.15 34.50,-15.00 34.47,-14.84 34.40,-14.70 34.33,-14.56 34.22,-14.44 34.12,-14.32 33.99,-14.23 33.86,-14.14 33.72,-14.08 33.57,-14.02 33.41,-14.00 33.26,-13.97 31.52,-13.69 29.79,-13.41 28.71,-13.24 27.63,-13.08 26.36,-12.90 25.09,-12.72 23.81,-12.70 22.53,-12.69 21.44,-12.66 20.36,-12.62 18.80,-12.41 17.25,-12.20 15.69,-12.08 14.14,-11.96 12.74,-12.01 11.35,-12.07 9.99,-12.41 8.62,-12.76 7.25,-13.31 5.88,-13.87 5.23,-15.09 4.59,-16.31 4.69,-16.59 4.80,-16.87 4.98,-17.11 5.15,-17.35 5.37,-17.55 5.60,-17.74 5.86,-17.88 6.13,-18.01 6.42,-18.08 6.71,-18.15 7.01,-18.15 7.31,-18.14 7.60,-18.07 7.89,-17.99 8.15,-17.85 8.41,-17.71 8.63,-17.51 8.85,-17.31 9.02,-17.06 9.19,-16.82 9.29,-16.54 9.39,-16.26 9.42,-15.96 9.46,-15.66 9.42,-15.37 9.38,-15.07 9.21,-14.15 9.05,-13.22 8.85,-11.61 8.65,-9.99 8.57,-8.62 8.48,-7.25 8.30,-5.50 8.12,-3.76 7.95,-1.70 7.78,0.35 7.65,2.04 7.51,3.72 7.27,4.90 7.03,6.09 7.00,6.39 6.97,6.69 6.87,6.98 6.77,7.27 6.61,7.52 6.44,7.78 6.22,7.99 6.00,8.20 5.73,8.34 5.46,8.49 5.17,8.57 4.88,8.66 4.57,8.66 4.27,8.67 3.97,8.61 3.67,8.54 3.40,8.41 3.12,8.28 2.89,8.08 2.66,7.88 2.48,7.64 2.30,7.39 2.18,7.11 2.06,6.83 2.02,6.53 1.97,6.22 2.27,6.79 2.57,7.35 2.16,6.36 1.74,5.36 1.67,3.81 1.59,2.26 1.45,1.13 1.30,0.00 1.15,-1.14 1.00,-2.28 1.08,-3.78 1.17,-5.28 1.39,-5.50 1.61,-5.71 1.88,-5.87 2.14,-6.02 2.44,-6.11 2.73,-6.20 3.04,-6.21 3.35,-6.23 3.65,-6.17 3.96,-6.11 4.24,-5.98 4.52,-5.85 4.76,-5.65 5.00,-5.46 5.18,-5.22 5.37,-4.97 5.49,-4.69 5.62,-4.40 5.67,-4.10 5.72,-3.80 5.70,-3.49 5.67,-3.18 5.58,-2.89 5.48,-2.59 5.32,-2.33 5.16,-2.07 4.93,-1.89 4.71,-1.70 4.09,-0.72 3.48,0.25 2.24,0.56 1.00,0.86 0.88,0.96 0.77,1.07 0.62,1.15 0.48,1.23 0.33,1.27 0.18,1.31 0.02,1.31 -0.13,1.31 -0.29,1.28 -0.44,1.24 -0.59,1.17 -0.73,1.10 -0.85,0.99 -0.97,0.89 -1.06,0.76 -1.16,0.63 -1.22,0.48 -1.28,0.33 -1.30,0.17 -1.32,0.02 -1.30,-0.13 -1.29,-0.29 -1.23,-0.44 -1.18,-0.59 -1.09,-0.72 -1.00,-0.86 -1.00,-0.86 L -1.00,-0.86 Z"></path></g><g stroke-linecap="round" transform="translate(297.14427502305693 327.18124607311694) rotate(0 4.336860061036987 4.591969476392073)"><path d="M0.58 1.84 L9.61 -0.77 L8.55 7.59 L-0.93 8.95" stroke="none" stroke-width="0" fill="#4c6ef5"></path><path d="M-0.73 0.83 C1.56 -0.68, 2.93 0.84, 8.8 -0.85 M0.04 0.17 C3.22 0.36, 6.74 0.04, 8.48 -0.09 M9.55 0.92 C8.32 1.93, 8.17 5.47, 8.68 9.82 M8.44 -0.17 C8.65 3.29, 8.69 5.88, 8.65 9.29 M8.41 9.27 C6.4 8.64, 3.37 9.91, 0.28 9.64 M8.88 8.9 C6.46 9.14, 4.94 8.72, -0.27 8.81 M-0.88 8.83 C0.02 7.17, 0.67 3.97, -0.38 0.14 M-0.19 8.75 C-0.31 6.57, 0.09 4.12, 0.3 0.18" stroke="#000000" stroke-width="1" fill="none"></path></g><g stroke-linecap="round" transform="translate(305.8179951451316 327.18124607311694) rotate(0 4.336860061036987 4.591969476392073)"><path d="M1.84 0.94 L7.9 -0.12 L7.08 8.25 L-0.23 8.83" stroke="none" stroke-width="0" fill="#4c6ef5"></path><path d="M0.83 -0.31 C1.9 -0.74, 6.09 0.2, 7.82 0.59 M0.17 0.03 C2.55 0.35, 4.4 -0.21, 8.59 -0.06 M9.59 -0.4 C7.94 2.68, 8.85 6.46, 9.31 9.4 M8.51 -0.09 C9.01 3.37, 8.62 6.83, 8.78 9.13 M8.76 9.41 C5.31 8.86, 3.73 9.44, 0.46 8.58 M8.39 8.97 C6.89 9.48, 4.66 8.95, -0.37 8.92 M-0.35 9.16 C0.21 7.51, -0.79 4.21, 0.14 0 M-0.43 8.87 C0.14 6.56, 0.45 4.07, 0.18 0.13" stroke="#000000" stroke-width="1" fill="none"></path></g><g stroke-linecap="round" transform="translate(314.5034077820799 327.18124607311694) rotate(0 4.336860061036987 4.591969476392073)"><path d="M0.94 -0.77 L8.55 -1.59 L7.74 8.95 L-0.36 9.52" stroke="none" stroke-width="0" fill="#4c6ef5"></path><path d="M-0.31 -0.76 C1.02 0.68, 3.8 -0.94, 9.26 -0.44 M0.03 0.39 C3.22 0.04, 5.53 -0.12, 8.61 0.22 M8.28 -0.69 C8.21 2.52, 8.77 5.25, 8.89 9.85 M8.58 0.32 C8.58 2.79, 8.61 5.81, 8.62 9.31 M8.9 8.66 C5.89 9.93, 3.97 9.65, -0.61 8.4 M8.46 9.22 C7.15 8.74, 4.84 8.76, -0.26 8.97 M-0.02 9.37 C0.71 5.87, -0.3 4.33, 0 -0.05 M-0.31 9.32 C0.12 6.91, 0.33 3.94, 0.13 0.42" stroke="#000000" stroke-width="1" fill="none"></path></g><g stroke-linecap="round" transform="translate(297.14427502305693 336.3856900897627) rotate(0 4.336860061036987 4.591969476392073)"><path d="M-0.77 -0.12 L7.08 -0.93 L8.44 8.83 L0.34 8.68" stroke="none" stroke-width="0" fill="#4c6ef5"></path><path d="M-0.76 -0.82 C2.63 0.16, 2.89 0.62, 8.24 0.26 M0.39 0.36 C2.75 -0.2, 5.28 -0.07, 8.9 -0.21 M7.98 -0.55 C8.98 3.64, 9.4 7.49, 9.34 9.28 M9 -0.05 C8.58 2.26, 8.75 4.5, 8.8 9.13 M8.15 8.89 C7.07 9.49, 4.46 8.6, -0.79 8.36 M8.71 9.44 C5.28 8.87, 2.28 8.88, -0.22 9.06 M0.19 9.81 C-0.78 6.92, 0.18 5.43, -0.05 -0.04 M0.14 9.27 C0.53 7.1, 0.27 4.56, 0.42 0.22" stroke="#000000" stroke-width="1" fill="none"></path></g><g stroke-linecap="round" transform="translate(305.8179951451316 336.3856900897627) rotate(0 4.336860061036987 4.591969476392073)"><path d="M-0.12 -1.59 L7.74 -0.23 L8.32 9.52 L-0.5 10.64" stroke="none" stroke-width="0" fill="#4c6ef5"></path><path d="M-0.82 0.76 C3.56 -0.78, 7.46 -0.36, 8.94 0.08 M0.36 0.07 C2.75 -0.17, 5.83 0.15, 8.46 0.42 M8.13 0.22 C8.64 4.31, 8.85 8.01, 8.77 8.71 M8.62 -0.06 C8.64 2.53, 8.6 4.97, 8.62 9.04 M8.38 9.92 C6.27 9.59, 2.68 8.35, -0.82 9.59 M8.93 8.8 C6.37 8.82, 4.34 8.97, -0.12 8.77 M0.62 8.37 C-0.38 6.92, 0 4.33, -0.04 -0.38 M0.08 9.63 C0.36 7.48, 0.2 5.83, 0.22 -0.18" stroke="#000000" stroke-width="1" fill="none"></path></g><g stroke-linecap="round" transform="translate(314.5034077820799 336.3856900897627) rotate(0 4.336860061036987 4.591969476392073)"><path d="M-1.59 -0.93 L8.44 -0.36 L9.01 8.68 L1.46 9.8" stroke="none" stroke-width="0" fill="#4c6ef5"></path><path d="M0.76 0.13 C1.44 0.67, 4.15 0.34, 8.76 0.34 M0.07 -0.2 C2.58 -0.13, 5.56 -0.28, 9.09 0.43 M8.89 0.01 C9.24 2.57, 9.27 4.81, 8.2 8.85 M8.61 -0.02 C8.84 2.52, 8.86 5.09, 8.53 9.23 M9.41 9.47 C6.3 8.55, 2.23 8.33, 0.41 8.62 M8.29 8.91 C6.14 8.97, 4.13 9.11, -0.41 9.02 M-0.81 8.8 C0.12 6.45, -0.07 3.68, -0.38 -0.87 M0.44 9.48 C0.16 7.18, 0.39 5.13, -0.18 -0.03" stroke="#000000" stroke-width="1" fill="none"></path></g><g stroke-linecap="round" transform="translate(357.6128458988387 322.713928292937) rotate(89.99999999999994 4.336860061036987 4.591969476392073)"><path d="M-0.93 -0.23 L8.32 0.34 L8.17 10.64 L0.62 7.68" stroke="none" stroke-width="0" fill="#fa5252"></path><path d="M0.13 -0.85 C2.43 -0.51, 3.94 0.01, 9.02 0.06 M-0.2 -0.09 C3.32 0.21, 6.55 0.4, 9.11 -0.19 M8.68 0.64 C8.83 2.73, 8.71 3.65, 8.34 9 M8.65 0.11 C8.61 3.53, 8.61 6.66, 8.72 9.3 M8.96 9.64 C5.99 8.47, 3.7 9.67, -0.57 8.75 M8.4 8.81 C5.74 8.89, 3.21 8.69, -0.17 9.17 M-0.38 9.33 C-0.06 6.19, -0.1 2.92, -0.87 -0.62 M0.3 9.37 C0.12 6.57, 0.2 2.94, -0.03 -0.37" stroke="#000000" stroke-width="1" fill="none"></path></g><g stroke-linecap="round" transform="translate(357.6128458988387 331.3876484150118) rotate(89.99999999999994 4.336860061036987 4.591969476392073)"><path d="M-0.23 -0.36 L9.01 -0.5 L10.13 9.8 L-1.51 7.56" stroke="none" stroke-width="0" fill="#fa5252"></path><path d="M-0.85 0.59 C1.35 0.25, 3.66 0.33, 8.74 0.78 M-0.09 -0.06 C3.54 -0.17, 7.06 0.47, 8.49 -0.33 M9.31 0.22 C9.36 2.3, 8.22 4.08, 8.49 9.83 M8.78 -0.05 C8.79 2.6, 8.52 5.36, 8.79 8.9 M9.13 8.58 C5.58 8.39, 4.47 8.65, -0.44 9.25 M8.3 8.92 C5.35 9.01, 2.04 8.96, -0.01 9.27 M0.14 9.18 C0.03 5.77, -0.3 1.56, -0.62 0.28 M0.18 9.32 C0.33 6.48, -0.27 3.31, -0.37 -0.21" stroke="#000000" stroke-width="1" fill="none"></path></g><g stroke-linecap="round" transform="translate(357.6128458988387 340.07306105195994) rotate(89.99999999999994 4.336860061036987 4.591969476392073)"><path d="M-0.36 0.34 L8.17 1.46 L9.29 7.68 L-1.62 9.67" stroke="none" stroke-width="0" fill="#fa5252"></path><path d="M0.59 -0.44 C3.63 0.17, 7.07 0.15, 9.45 0.72 M-0.06 0.22 C2.53 0.43, 5.92 -0.17, 8.35 -0.26 M8.89 0.67 C8.77 2.5, 8.34 5.76, 9.32 9.08 M8.62 0.12 C8.61 2.49, 8.72 5.39, 8.39 9.03 M8.07 8.4 C4.51 9.64, 1.43 8.79, 0.07 9.69 M8.41 8.97 C6.72 8.7, 4.84 9.1, 0.09 9.48 M0 9.13 C0 6.86, -0.83 4.68, 0.28 0.17 M0.13 9.61 C0.16 5.37, -0.09 1.54, -0.21 -0.05" stroke="#000000" stroke-width="1" fill="none"></path></g><g stroke-linecap="round" transform="translate(348.40840188219295 322.71392829293706) rotate(89.99999999999994 4.336860061036987 4.591969476392073)"><path d="M0.34 -0.5 L10.13 0.62 L7.17 7.56 L0.49 10.06" stroke="none" stroke-width="0" fill="#fa5252"></path><path d="M-0.44 0.26 C2.81 0.28, 5.53 0.72, 9.39 0.14 M0.22 -0.21 C2.62 0.45, 4.23 -0.32, 8.41 0.1 M9.34 0.1 C8.26 2.43, 8.55 6.17, 8.57 9.06 M8.8 -0.06 C8.55 2.76, 8.81 5.15, 8.52 9.57 M7.89 8.36 C6.2 8.56, 2.46 9.19, 0.51 8.42 M8.46 9.06 C6.2 8.96, 4.54 9.22, 0.29 8.8 M-0.05 9.14 C-0.39 5.94, -0.64 4.72, 0.17 0.88 M0.42 9.4 C-0.21 5.81, -0.4 2.28, -0.05 -0.08" stroke="#000000" stroke-width="1" fill="none"></path></g><g stroke-linecap="round" transform="translate(348.40840188219295 331.38764841501177) rotate(89.99999999999994 4.336860061036987 4.591969476392073)"><path d="M-0.5 1.46 L9.29 -1.51 L7.05 9.67 L0.88 9.08" stroke="none" stroke-width="0" fill="#fa5252"></path><path d="M0.26 0.08 C2.09 0.11, 4.27 0.76, 8.81 -0.39 M-0.21 0.42 C2.86 -0.23, 4.53 -0.3, 8.78 0 M8.77 -0.48 C8.36 3.21, 9.34 6.69, 8.55 9.15 M8.62 -0.14 C8.71 3.09, 8.38 5.78, 9.06 9.33 M7.85 9.59 C5.05 8.67, 2.62 9.61, -0.77 8.64 M8.55 8.77 C6.65 9.13, 5.05 9.43, -0.38 9 M-0.04 8.81 C-0.87 5.67, 0.28 3.56, 0.88 0.59 M0.22 9.01 C-0.05 5.7, -0.24 2.89, -0.08 0.08" stroke="#000000" stroke-width="1" fill="none"></path></g><g stroke-linecap="round" transform="translate(348.40840188219295 340.07306105196005) rotate(89.99999999999994 4.336860061036987 4.591969476392073)"><path d="M1.46 0.62 L7.17 -1.62 L9.16 10.06 L-0.1 7.4" stroke="none" stroke-width="0" fill="#fa5252"></path><path d="M0.08 0.34 C3.26 0.75, 7.1 0.11, 8.28 -0.17 M0.42 0.43 C2.29 -0.28, 4.7 0.15, 8.68 0.3 M8.2 -0.33 C8.56 3.62, 8.64 5.82, 8.64 9.4 M8.53 0.05 C8.82 2.37, 8.54 5.69, 8.82 9.43 M9.08 8.62 C6.24 9.17, 5.19 8.34, -0.54 8.44 M8.26 9.02 C6.58 9.25, 4.81 8.78, -0.18 9.25 M-0.38 8.32 C-0.62 6.71, 0.17 4.56, 0.59 0.37 M-0.18 9.16 C-0.45 5.95, -0.14 3.06, 0.08 -0.12" stroke="#000000" stroke-width="1" fill="none"></path></g><g transform="translate(332.7531972184099 332.89372248437417) rotate(0 3.11978727193042 3.7047473854173205)" stroke="none"><path fill="#000000" d="M 1.03,-0.82 Q 1.03,-0.82 1.85,-0.56 2.67,-0.30 3.69,1.15 4.70,2.61 5.47,3.51 6.24,4.41 6.42,4.68 6.61,4.94 6.68,5.09 6.74,5.23 6.77,5.39 6.80,5.54 6.80,5.70 6.79,5.86 6.74,6.01 6.70,6.16 6.62,6.30 6.53,6.43 6.42,6.55 6.31,6.66 6.18,6.74 6.04,6.82 5.89,6.87 5.74,6.92 5.58,6.93 5.43,6.94 5.27,6.92 5.11,6.89 4.97,6.82 4.82,6.76 4.70,6.66 4.57,6.57 4.47,6.44 4.38,6.32 4.28,5.91 4.19,5.49 4.24,5.29 4.30,5.08 4.42,4.91 4.54,4.73 4.71,4.60 4.87,4.47 5.08,4.40 5.28,4.34 5.49,4.34 5.70,4.33 5.90,4.40 6.11,4.47 6.27,4.60 6.44,4.72 6.56,4.90 6.68,5.08 6.74,5.28 6.80,5.48 6.79,5.70 6.78,5.91 6.70,6.11 6.62,6.30 6.49,6.47 6.35,6.63 6.17,6.74 5.98,6.85 5.78,6.90 5.57,6.94 5.36,6.92 5.15,6.90 4.95,6.81 4.76,6.72 4.61,6.58 4.45,6.43 4.35,6.24 4.25,6.06 4.22,5.85 4.18,5.64 4.21,5.43 4.25,5.22 4.35,5.03 4.45,4.84 4.60,4.69 4.75,4.55 4.95,4.46 5.14,4.37 5.35,4.34 5.56,4.32 5.77,4.36 5.98,4.41 6.16,4.52 6.34,4.63 6.48,4.79 6.62,4.95 6.70,5.15 6.78,5.34 6.69,5.14 6.61,4.94 6.68,5.09 6.74,5.23 6.77,5.39 6.80,5.54 6.80,5.70 6.79,5.86 6.74,6.01 6.70,6.16 6.62,6.30 6.54,6.43 6.42,6.55 6.31,6.66 6.18,6.74 6.04,6.82 5.89,6.87 5.74,6.92 5.58,6.93 5.43,6.94 5.27,6.92 5.11,6.89 4.97,6.82 4.82,6.76 4.70,6.66 4.57,6.57 4.47,6.44 4.38,6.32 3.73,7.32 3.08,8.32 2.49,7.32 1.90,6.31 1.24,5.23 0.58,4.15 -0.14,3.35 -0.88,2.54 -0.95,1.68 -1.03,0.82 -1.11,0.68 -1.19,0.55 -1.24,0.40 -1.29,0.25 -1.30,0.09 -1.31,-0.06 -1.29,-0.22 -1.26,-0.38 -1.20,-0.52 -1.13,-0.67 -1.04,-0.79 -0.94,-0.92 -0.81,-1.02 -0.69,-1.12 -0.55,-1.19 -0.40,-1.25 -0.24,-1.28 -0.09,-1.31 0.06,-1.30 0.22,-1.30 0.37,-1.25 0.52,-1.20 0.66,-1.12 0.80,-1.04 0.91,-0.93 1.03,-0.82 1.03,-0.82 L 1.03,-0.82 Z"></path></g><g transform="translate(338.21282494428806 333.6736693023567) rotate(0 -2.53482715844342 3.3147739764260464)" stroke="none"><path fill="#000000" d="M 0.84,1.05 Q 0.84,1.05 0.60,1.88 0.36,2.70 -0.33,3.93 -1.03,5.16 -3.05,6.35 -5.08,7.55 -5.28,7.50 -5.49,7.45 -5.67,7.34 -5.85,7.23 -5.98,7.06 -6.12,6.90 -6.20,6.70 -6.27,6.50 -6.28,6.29 -6.29,6.08 -6.23,5.87 -6.17,5.67 -6.05,5.50 -5.92,5.32 -5.75,5.20 -5.58,5.07 -5.38,5.01 -5.18,4.94 -4.96,4.94 -4.75,4.95 -4.55,5.02 -4.35,5.09 -4.18,5.22 -4.02,5.35 -3.90,5.53 -3.78,5.71 -3.73,5.91 -3.68,6.12 -3.69,6.33 -3.71,6.54 -3.79,6.74 -3.87,6.93 -4.01,7.09 -4.15,7.25 -4.33,7.36 -4.52,7.47 -4.73,7.51 -4.93,7.55 -5.14,7.53 -5.36,7.50 -5.55,7.41 -5.74,7.32 -5.89,7.17 -6.04,7.02 -6.14,6.83 -6.24,6.64 -6.27,6.43 -6.30,6.22 -6.26,6.01 -6.22,5.80 -6.12,5.62 -6.02,5.43 -5.86,5.29 -5.70,5.14 -5.51,5.06 -5.32,4.97 -5.10,4.95 -4.89,4.93 -4.89,4.93 -4.89,4.93 -4.63,3.29 -4.37,1.66 -3.49,0.37 -2.61,-0.91 -1.72,-0.98 -0.84,-1.05 -0.70,-1.14 -0.56,-1.22 -0.41,-1.27 -0.25,-1.32 -0.09,-1.33 0.06,-1.34 0.22,-1.32 0.38,-1.29 0.53,-1.22 0.68,-1.16 0.81,-1.06 0.94,-0.96 1.04,-0.83 1.14,-0.71 1.21,-0.56 1.28,-0.41 1.31,-0.25 1.34,-0.09 1.33,0.06 1.33,0.23 1.28,0.38 1.23,0.54 1.15,0.68 1.07,0.82 0.95,0.93 0.84,1.05 0.84,1.05 L 0.84,1.05 Z"></path></g><g transform="translate(306.2350054070014 300.79291133348255) rotate(0 5.5 9.5)"><text x="0" y="13" font-family="Virgil, Segoe UI Emoji" font-size="13.607072178342612px" fill="#000000" text-anchor="start" style="white-space: pre;" direction="ltr">Q</text></g><g transform="translate(352.2518676679749 300.79291133348255) rotate(0 4.5 9.5)"><text x="0" y="13" font-family="Virgil, Segoe UI Emoji" font-size="13.607072178342612px" fill="#000000" text-anchor="start" style="white-space: pre;" direction="ltr">K</text></g><g transform="translate(360.44130925679235 296.11323042558695) rotate(0 4.5 7)"><text x="0" y="10" font-family="Virgil, Segoe UI Emoji" font-size="10.521568283026838px" fill="#000000" text-anchor="start" style="white-space: pre;" direction="ltr">T</text></g><g transform="translate(326.5136226745491 364.22410340975733) rotate(0 5 10)"><text x="0" y="14" font-family="Virgil, Segoe UI Emoji" font-size="14.947670422514207px" fill="#000000" text-anchor="start" style="white-space: pre;" direction="ltr">d</text></g><g transform="translate(335.8729844903403 369.6837311356356) rotate(0 4 10)"><text x="0" y="14" font-family="Virgil, Segoe UI Emoji" font-size="14.947670422514207px" fill="#000000" text-anchor="start" style="white-space: pre;" direction="ltr">k</text></g><g transform="translate(407.62809174473966 321.0715286010302) rotate(0 4 9.5)"><text x="0" y="13" font-family="Virgil, Segoe UI Emoji" font-size="13.607072178342612px" fill="#000000" text-anchor="start" style="white-space: pre;" direction="ltr">V</text></g><g stroke-linecap="round" transform="translate(398.1473879518038 343.9501026597429) rotate(0 4.336860061036987 4.591969476392073)"><path d="M1.85 1.72 L10.54 1.14 L6.98 10.49 L-1.5 8.1" stroke="none" stroke-width="0" fill="#82c91e"></path><path d="M0.45 -0.42 C3.04 0.88, 4.04 -0.64, 8.16 0.21 M0.32 0.05 C2.38 -0.18, 5.13 0.28, 8.63 -0.06 M8.92 -0.12 C8.41 2.81, 8.93 4.88, 8.36 9.96 M8.26 -0.44 C8.94 2.76, 8.49 6.15, 8.94 8.78 M8.24 8.94 C5.79 8.8, 4.53 9.31, 0.59 8.42 M8.65 9.17 C6.25 8.77, 3.9 9.31, 0.08 9.6 M0.84 9.61 C-0.39 5.78, -0.77 2.06, -0.11 -0.16 M0.14 8.84 C-0.35 6.39, 0.22 3.34, -0.41 0.05" stroke="#000000" stroke-width="1" fill="none"></path></g><g stroke-linecap="round" transform="translate(406.82110807387846 343.9501026597429) rotate(0 4.336860061036987 4.591969476392073)"><path d="M1.72 1.86 L9.81 -1.69 L9.98 7.69 L-1.08 9.54" stroke="none" stroke-width="0" fill="#82c91e"></path><path d="M-0.42 0.83 C3.29 -0.42, 4.2 -0.56, 8.88 0.01 M0.05 -0.23 C3.05 -0.15, 6.72 -0.11, 8.62 -0.02 M8.56 -0.28 C8.76 3.21, 8.1 5.62, 9.45 9.49 M8.24 0.22 C8.31 3.01, 8.65 6.75, 8.27 8.9 M8.43 8.36 C6.48 9.12, 5.13 9.73, -0.77 8.82 M8.66 9.01 C5.53 8.89, 3.33 9.26, 0.42 9.46 M0.43 8.83 C-0.08 5.33, -0.45 2.83, -0.16 0.15 M-0.35 8.81 C0.05 6.86, -0.09 3.73, 0.05 0.43" stroke="#000000" stroke-width="1" fill="none"></path></g><g stroke-linecap="round" transform="translate(415.50652071082675 343.9501026597429) rotate(0 4.336860061036987 4.591969476392073)"><path d="M1.86 1.14 L6.98 1.31 L7.18 8.1 L0.35 7.33" stroke="none" stroke-width="0" fill="#82c91e"></path><path d="M0.83 0.87 C2.1 -0.61, 4.44 0.25, 8.68 0.6 M-0.23 -0.16 C2.72 0.3, 5.56 -0.07, 8.66 0.1 M8.39 0.09 C8.94 2.09, 8.39 6.08, 8.98 9.67 M8.89 -0.3 C8.36 2.15, 8.86 3.82, 8.39 8.79 M7.85 8.85 C6.57 9.34, 5.1 8.39, -0.36 9.32 M8.49 8.77 C5.78 9.31, 3.55 9.6, 0.28 9.36 M-0.36 9.13 C-0.82 5.73, -0.19 2.98, 0.15 -0.23 M-0.37 9.3 C0.17 5.74, -0.44 2.38, 0.43 0.4" stroke="#000000" stroke-width="1" fill="none"></path></g><g stroke-linecap="round" transform="translate(398.1473879518038 353.15454667638863) rotate(0 4.336860061036987 4.591969476392073)"><path d="M1.14 -1.69 L9.98 -1.5 L7.59 9.54 L-1.86 10.85" stroke="none" stroke-width="0" fill="#82c91e"></path><path d="M0.87 -0.38 C2.39 -0.6, 6.3 -0.08, 9.28 0.2 M-0.16 -0.09 C3.54 0, 6.41 0.03, 8.77 -0.05 M8.77 0.24 C8.1 2.69, 9.44 6.31, 9.16 8.54 M8.37 -0.23 C8.62 2.19, 8.18 3.56, 8.28 8.91 M8.34 9.16 C6.68 9.69, 3.57 8.74, 0.13 9.18 M8.26 8.89 C6.25 9.23, 3.98 9.43, 0.17 9.31 M-0.06 8.45 C-0.47 5.48, -0.21 2.14, -0.23 0.67 M0.11 9.39 C0.05 5.74, 0.12 3.53, 0.4 0.43" stroke="#000000" stroke-width="1" fill="none"></path></g><g stroke-linecap="round" transform="translate(406.82110807387846 353.15454667638863) rotate(0 4.336860061036987 4.591969476392073)"><path d="M-1.69 1.31 L7.18 -1.08 L9.03 7.33 L1.67 7.56" stroke="none" stroke-width="0" fill="#82c91e"></path><path d="M-0.38 -0.65 C1.66 0.12, 4.36 0.52, 8.88 0.63 M-0.09 0.31 C2.64 -0.03, 5.37 0.13, 8.62 0.12 M8.91 -0.56 C8.33 3.42, 8.95 5.76, 8.03 8.35 M8.44 0.04 C8.98 1.48, 8.43 3.37, 8.4 8.96 M8.65 9.36 C6.9 8.38, 3.59 9.28, 0 9.14 M8.38 9.31 C6.19 9.52, 3.82 9.27, 0.13 9.58 M-0.73 8.76 C-0.07 5.83, 0.19 2.58, 0.67 0.28 M0.2 9.16 C-0.33 7.17, 0.5 5.45, 0.43 0.26" stroke="#000000" stroke-width="1" fill="none"></path></g><g stroke-linecap="round" transform="translate(415.50652071082675 353.15454667638863) rotate(0 4.336860061036987 4.591969476392073)"><path d="M1.31 -1.5 L7.59 0.35 L6.82 10.85 L-1.63 8.63" stroke="none" stroke-width="0" fill="#82c91e"></path><path d="M-0.65 -0.52 C3.64 0.04, 7.47 0.24, 9.3 0.09 M0.31 -0.05 C2.09 0, 4.4 -0.03, 8.79 -0.05 M8.11 -0.31 C9.46 2.77, 9.17 4.3, 7.84 8.31 M8.71 0.27 C8.21 2.9, 8.22 6.1, 8.44 9.06 M8.85 9.77 C6.13 8.82, 5.26 9.18, -0.05 9.15 M8.8 9.26 C6.85 9.4, 4.36 9.25, 0.4 9.39 M-0.43 9.08 C-0.16 6.94, -0.23 5.05, 0.28 -0.69 M-0.02 8.78 C0.03 7.6, 0.37 5.59, 0.26 -0.39" stroke="#000000" stroke-width="1" fill="none"></path></g><g transform="translate(432.5863899201829 351.2224727069653) rotate(0 4.484694203399954 0.5849601134869431)" stroke="none"><path d="M-0.06 0.13 L-0.31 1.55 L-0.09 0.35 L-0.31 -1.48 L0.01 -0.34 L3.08 1.05 L1.61 -0.25 L2.17 0.66 L2.44 0.65 L2.6 2.2 L2.57 1.13 L5.36 0.28 L6.39 1.15 L4.78 1.67 L4.67 0.2 L6.53 -0.3 L4.1 1.35 L5.25 2.27 L6.92 1.19 L8.06 1.79 L6.51 -0.1 L6.3 1.66 L7 1.59 L6.62 2.27 L8.47 1.98 L10.18 -1.51 L9.74 2.26 L6.4 2.18 L9.58 0.03 L7.46 0.98" stroke="none" stroke-width="0" fill="#82c91e" fill-rule="evenodd"></path><path fill="#000000" d="M 0.21,-1.31 Q 0.21,-1.31 0.99,-1.85 1.78,-2.38 2.89,-2.32 4.01,-2.27 5.24,-1.99 6.47,-1.71 5.21,-1.55 3.95,-1.39 5.03,-1.81 6.11,-2.24 6.96,-1.24 7.81,-0.24 7.97,-0.22 8.12,-0.21 8.27,-0.16 8.42,-0.11 8.56,-0.02 8.69,0.05 8.80,0.16 8.91,0.28 8.99,0.42 9.07,0.55 9.11,0.71 9.16,0.86 9.16,1.02 9.17,1.17 9.14,1.33 9.10,1.48 9.04,1.63 8.97,1.77 8.87,1.89 8.77,2.01 8.64,2.11 8.51,2.20 8.37,2.27 8.22,2.33 8.06,2.35 7.91,2.38 8.29,2.23 8.68,2.09 8.49,2.20 8.31,2.30 8.10,2.34 7.89,2.38 7.68,2.35 7.47,2.32 7.28,2.22 7.09,2.13 6.94,1.98 6.79,1.83 6.70,1.64 6.60,1.45 6.57,1.24 6.55,1.02 6.59,0.82 6.63,0.61 6.73,0.42 6.84,0.24 7.00,0.10 7.16,-0.03 7.35,-0.12 7.55,-0.20 7.76,-0.22 7.97,-0.23 8.18,-0.18 8.38,-0.13 8.56,-0.01 8.74,0.09 8.87,0.26 9.00,0.42 9.08,0.62 9.15,0.82 9.15,1.04 9.16,1.25 9.10,1.45 9.03,1.65 8.91,1.83 8.78,2.00 8.61,2.12 8.44,2.24 8.23,2.31 8.03,2.37 7.82,2.36 7.61,2.35 7.41,2.28 7.21,2.21 7.04,2.07 6.88,1.94 6.76,1.76 6.65,1.58 6.60,1.37 6.55,1.17 6.57,0.95 6.59,0.74 6.67,0.55 6.75,0.35 7.28,0.05 7.81,-0.24 7.97,-0.22 8.12,-0.21 8.27,-0.16 8.42,-0.11 8.56,-0.02 8.69,0.05 8.80,0.16 8.91,0.28 8.99,0.42 9.07,0.55 9.11,0.71 9.16,0.86 9.16,1.02 9.17,1.17 9.14,1.33 9.10,1.48 9.04,1.63 8.97,1.77 8.87,1.89 8.77,2.01 8.64,2.11 8.51,2.20 8.37,2.27 8.22,2.33 8.06,2.35 7.91,2.38 7.10,2.63 6.30,2.88 4.68,2.95 3.06,3.02 1.98,2.93 0.91,2.83 0.34,2.07 -0.21,1.31 -0.37,1.26 -0.52,1.22 -0.66,1.14 -0.80,1.06 -0.91,0.94 -1.03,0.83 -1.12,0.70 -1.20,0.56 -1.25,0.41 -1.30,0.26 -1.31,0.10 -1.33,-0.05 -1.30,-0.21 -1.27,-0.37 -1.21,-0.52 -1.15,-0.67 -1.05,-0.79 -0.95,-0.92 -0.83,-1.02 -0.70,-1.12 -0.56,-1.19 -0.41,-1.26 -0.25,-1.29 -0.10,-1.32 0.05,-1.32 0.21,-1.31 0.21,-1.31 L 0.21,-1.31 Z"></path></g><g transform="translate(432.9763633291742 355.9021536148609) rotate(0 5.069654316886897 0.3899734089913025)" stroke="none"><path fill="#000000" d="M 0.21,-1.29 Q 0.21,-1.29 0.98,-1.73 1.74,-2.18 2.87,-2.12 4.01,-2.06 5.18,-1.86 6.36,-1.66 7.35,-1.48 8.35,-1.30 8.51,-1.29 8.67,-1.28 8.82,-1.23 8.97,-1.18 9.10,-1.09 9.24,-1.01 9.35,-0.90 9.46,-0.78 9.54,-0.65 9.62,-0.51 9.66,-0.36 9.71,-0.21 9.71,-0.05 9.72,0.10 9.69,0.26 9.66,0.41 9.59,0.55 9.53,0.70 9.43,0.82 9.33,0.94 9.20,1.04 9.07,1.14 8.93,1.20 8.78,1.26 8.63,1.29 8.47,1.31 8.21,1.27 7.95,1.23 7.77,1.13 7.58,1.02 7.44,0.86 7.30,0.70 7.22,0.51 7.13,0.31 7.12,0.10 7.10,-0.10 7.16,-0.31 7.21,-0.51 7.32,-0.69 7.44,-0.87 7.61,-1.00 7.77,-1.14 7.97,-1.21 8.17,-1.28 8.39,-1.28 8.60,-1.29 8.80,-1.22 9.00,-1.16 9.18,-1.03 9.35,-0.91 9.47,-0.74 9.59,-0.56 9.65,-0.36 9.71,-0.16 9.71,0.05 9.70,0.26 9.62,0.46 9.55,0.66 9.42,0.82 9.28,0.99 9.10,1.10 8.92,1.21 8.72,1.26 8.51,1.31 8.30,1.29 8.09,1.27 7.89,1.19 7.70,1.10 7.54,0.96 7.38,0.82 7.28,0.63 7.18,0.45 7.14,0.24 7.10,0.03 7.13,-0.17 7.16,-0.38 7.25,-0.57 7.35,-0.76 7.50,-0.91 7.65,-1.06 7.84,-1.15 8.04,-1.25 8.25,-1.27 8.46,-1.30 8.40,-1.30 8.35,-1.30 8.51,-1.29 8.67,-1.28 8.82,-1.23 8.97,-1.18 9.10,-1.09 9.24,-1.01 9.35,-0.90 9.46,-0.78 9.54,-0.65 9.62,-0.51 9.66,-0.36 9.71,-0.21 9.71,-0.05 9.72,0.10 9.69,0.26 9.66,0.41 9.59,0.55 9.53,0.70 9.43,0.82 9.33,0.94 9.20,1.04 9.07,1.14 8.93,1.20 8.78,1.26 8.63,1.29 8.47,1.31 9.14,1.74 9.80,2.17 8.65,2.70 7.49,3.22 6.38,3.13 5.27,3.03 4.17,2.93 3.07,2.82 2.01,2.72 0.94,2.63 0.36,1.96 -0.21,1.29 -0.36,1.25 -0.51,1.20 -0.65,1.12 -0.79,1.04 -0.90,0.93 -1.02,0.82 -1.10,0.69 -1.18,0.55 -1.23,0.40 -1.28,0.25 -1.29,0.09 -1.31,-0.05 -1.28,-0.21 -1.25,-0.37 -1.19,-0.51 -1.13,-0.66 -1.03,-0.78 -0.94,-0.91 -0.82,-1.01 -0.69,-1.11 -0.55,-1.18 -0.41,-1.24 -0.25,-1.27 -0.10,-1.30 0.05,-1.30 0.21,-1.29 0.21,-1.29 L 0.21,-1.29 Z"></path></g><g stroke-linecap="round" transform="translate(453.91358543755973 345.5099962957081) rotate(0 4.336860061036987 4.591969476392073)"><path d="M0.35 -1.86 L10.34 -1.63 L8.12 9.06 L-0.77 8.66" stroke="none" stroke-width="0" fill="#4c6ef5"></path><path d="M0.01 0.6 C2.15 0.61, 3.98 -0.47, 8.36 -0.17 M-0.02 0.1 C3.16 0.13, 6.37 -0.12, 8.72 0.11 M8.98 0.48 C8 1.36, 7.77 4.82, 8.07 8.72 M8.39 -0.39 C8.45 2.6, 8.6 5.22, 8.5 9.17 M8.31 9.32 C5.9 9.06, 3.08 8.75, -0.82 8.6 M8.95 9.36 C5.94 9.67, 3.15 9.1, -0.03 8.84 M0.15 8.95 C0.68 7.14, -0.68 3.78, 0.23 0.4 M0.43 9.58 C0.51 6.74, -0.31 4.07, -0.34 -0.25" stroke="#000000" stroke-width="1" fill="none"></path></g><g stroke-linecap="round" transform="translate(462.5873055596345 345.5099962957081) rotate(0 4.336860061036987 4.591969476392073)"><path d="M-1.86 1.67 L7.05 -0.55 L8.54 8.42 L-0.52 7.57" stroke="none" stroke-width="0" fill="#4c6ef5"></path><path d="M0.6 0.2 C2.72 0.09, 3.72 -0.32, 8.5 0.61 M0.1 -0.05 C2.62 -0.05, 4.88 0.05, 8.79 -0.26 M9.16 -0.64 C7.92 1.57, 9.18 4.29, 8.21 9.26 M8.28 -0.28 C8.36 3.16, 8.15 6.41, 8.66 9.28 M8.81 9.18 C5.44 9.11, 1.94 8.33, -0.59 9.44 M8.85 9.31 C6.31 9.44, 2.99 9.21, -0.35 8.98 M-0.23 9.85 C0.3 5.84, -0.73 4.11, 0.4 -0.05 M0.4 9.61 C0.25 6.86, 0.29 4.96, -0.25 0.08" stroke="#000000" stroke-width="1" fill="none"></path></g><g stroke-linecap="round" transform="translate(471.2727181965827 345.5099962957081) rotate(0 4.336860061036987 4.591969476392073)"><path d="M1.67 -1.63 L8.12 -0.13 L7.91 8.66 L-1.61 9.48" stroke="none" stroke-width="0" fill="#4c6ef5"></path><path d="M0.2 0.63 C2.9 -0.51, 5.3 -0.23, 9.28 -0.1 M-0.05 0.12 C2.43 -0.15, 5.02 0.09, 8.41 -0.15 M8.03 -0.83 C7.83 3.97, 8.1 6.6, 8.75 9.72 M8.4 -0.23 C8.49 1.51, 8.44 3.88, 8.77 9.49 M8.67 9.14 C6.8 8.84, 4.18 8.61, 0.26 9.34 M8.8 9.58 C5.44 9.05, 1.78 8.87, -0.2 9.13 M0.67 9.47 C-0.71 5.85, 0.21 4.4, -0.05 -0.82 M0.43 9.44 C-0.47 6.63, -0.43 3.23, 0.08 -0.43" stroke="#000000" stroke-width="1" fill="none"></path></g><g stroke-linecap="round" transform="translate(453.91358543755973 354.7144403123539) rotate(0 4.336860061036987 4.591969476392073)"><path d="M-1.63 -0.55 L8.54 -0.77 L8.15 7.57 L0.3 8.61" stroke="none" stroke-width="0" fill="#4c6ef5"></path><path d="M0.63 0.09 C2.16 -0.34, 5.04 0.59, 8.58 -0.11 M0.12 -0.05 C2.43 0.05, 5.25 -0.25, 8.53 0.37 M7.84 -0.87 C9.15 2.46, 8.26 6.19, 9.21 8.37 M8.44 -0.13 C8.16 2, 8.58 4.45, 8.98 8.78 M8.63 9.15 C6.08 8.36, 3.61 9.44, 0.16 10.02 M9.07 9.39 C5.35 9.18, 2.01 9.01, -0.05 9.11 M0.28 8.49 C-0.72 6.5, 0.43 3.32, -0.82 0.1 M0.26 8.8 C0.22 5.23, -0.33 2.05, -0.43 0.38" stroke="#000000" stroke-width="1" fill="none"></path></g><g stroke-linecap="round" transform="translate(462.5873055596345 354.7144403123539) rotate(0 4.336860061036987 4.591969476392073)"><path d="M-0.55 -0.13 L7.91 -0.52 L7.06 9.48 L-0.57 8.55" stroke="none" stroke-width="0" fill="#4c6ef5"></path><path d="M0.09 -0.45 C2.89 -0.24, 7.02 -0.16, 8.56 -0.04 M-0.05 -0.13 C2.85 0.09, 5.34 -0.17, 9.04 0.14 M7.8 0.43 C8.01 2.78, 8.68 7.01, 7.86 8.61 M8.55 -0.44 C8.44 1.96, 8.71 4.25, 8.27 8.99 M8.64 8.83 C5.12 8.59, 3.46 9.34, 0.83 9.74 M8.88 9.02 C5.7 8.92, 2.58 9.21, -0.08 9.26 M-0.69 8.44 C0.16 7.06, -0.12 3.32, 0.1 0.85 M-0.39 9.48 C-0.43 5.39, 0 1.66, 0.38 -0.37" stroke="#000000" stroke-width="1" fill="none"></path></g><g stroke-linecap="round" transform="translate(471.2727181965827 354.7144403123539) rotate(0 4.336860061036987 4.591969476392073)"><path d="M-0.13 -0.77 L8.15 -1.61 L8.97 8.61 L-0.63 10.51" stroke="none" stroke-width="0" fill="#4c6ef5"></path><path d="M-0.45 -0.32 C2.63 0.6, 5.52 -0.12, 8.64 0.2 M-0.13 0.04 C2.62 -0.25, 4.86 0.38, 8.82 0.23 M9.11 -0.6 C8.13 2.19, 9.13 3.41, 8.1 8.4 M8.24 -0.18 C8.62 2.29, 8.94 4, 8.48 9.25 M8.32 8.36 C5.49 9.44, 3.63 10.01, 0.56 9.53 M8.51 9.16 C5.47 9.02, 2.91 9.15, 0.07 9.07 M-0.74 9.41 C0.37 5.71, -0.85 2.43, 0.85 0.79 M0.3 8.84 C-0.3 5.65, -0.48 2.34, -0.37 -0.13" stroke="#000000" stroke-width="1" fill="none"></path></g><g transform="translate(461.8343955945304 326.5311563269084) rotate(0 6 9.5)"><text x="0" y="13" font-family="Virgil, Segoe UI Emoji" font-size="13.607072178342612px" fill="#000000" text-anchor="start" style="white-space: pre;" direction="ltr">Z</text></g><g stroke-opacity="0.5" fill-opacity="0.5" stroke-linecap="round" transform="translate(325.7745176305003 477.77387004600723) rotate(359.9616966710325 22.46416663733254 17.734868397894132)"><path d="M-0.6 0.03 L44.36 1.49 L43.95 34.14 L-1.35 34.18" stroke="none" stroke-width="0" fill="#7950f2"></path><path d="M1.81 0.4 C14.24 -1.59, 27.29 -0.79, 43.03 1.29 M-0.84 0.31 C9.62 0.18, 18.51 0.03, 44.9 -0.73 M45.99 1.55 C44.93 12.84, 43.63 23.83, 43.54 37.1 M45.58 0.96 C45.05 10.38, 44.47 18.56, 44.91 35.99 M45.6 34.4 C33.84 35.05, 25.5 37.64, -0.8 34.05 M45.35 34.54 C35.3 35.86, 26.55 36.62, -0.17 35.68 M-1.44 34.96 C1.09 24.7, 2.19 12.93, 0.58 -0.3 M-0.43 35.1 C0.9 24.23, 0.91 11.12, 0.37 0.16" stroke="#000000" stroke-width="1" fill="none"></path></g><g transform="translate(341.73868426783304 485.50873844390134) rotate(359.9616966710325 6.5 10)"><text x="6.5" y="14" font-family="Virgil, Segoe UI Emoji" font-size="14.818080783191217px" fill="#000000" text-anchor="middle" style="white-space: pre;" direction="ltr">...</text></g><g stroke-linecap="round"><g transform="translate(343.34841069097126 216.82265693945743) rotate(0 -1.344734433388112 26.194928264612912)"><path d="M-0.13 0.4 C-0.72 9.39, -2.18 44.22, -2.56 52.82 M-1.66 -0.43 C-1.95 8.33, -0.61 42.25, -0.31 51.23" stroke="#000000" stroke-width="1" fill="none"></path></g><g transform="translate(343.34841069097126 216.82265693945743) rotate(0 -1.344734433388112 26.194928264612912)"><path d="M-9.37 25.7 C-4.92 35.02, -2.61 43.63, -0.26 50.16 M-9.32 26.68 C-7.3 33.25, -6.44 37.93, -0.45 50.34" stroke="#000000" stroke-width="1" fill="none"></path></g><g transform="translate(343.34841069097126 216.82265693945743) rotate(0 -1.344734433388112 26.194928264612912)"><path d="M8.36 25.07 C6.1 34.62, 1.72 43.46, -0.26 50.16 M8.4 26.05 C6.53 32.63, 3.49 37.45, -0.45 50.34" stroke="#000000" stroke-width="1" fill="none"></path></g></g><mask></mask><g stroke-linecap="round"><g transform="translate(340.5833465299834 418.5521990761638) rotate(0 -0.5584990235348073 23.164614104654433)"><path d="M0.58 -0.82 C0.14 7.11, -1.44 39.05, -1.7 47.15 M-0.57 1.37 C-0.73 8.95, 0.72 37.76, 0.5 45.19" stroke="#000000" stroke-width="1" fill="none"></path></g><g transform="translate(340.5833465299834 418.5521990761638) rotate(0 -0.5584990235348073 23.164614104654433)"><path d="M-9.19 21.67 C-4.24 31.11, -0.03 38.41, -0.26 46.2 M-8.55 23.48 C-4.23 31.89, -1.05 38.9, -0.44 45.65" stroke="#000000" stroke-width="1" fill="none"></path></g><g transform="translate(340.5833465299834 418.5521990761638) rotate(0 -0.5584990235348073 23.164614104654433)"><path d="M6.83 21.43 C5.71 31.04, 3.84 38.44, -0.26 46.2 M7.47 23.25 C5.78 31.63, 2.95 38.73, -0.44 45.65" stroke="#000000" stroke-width="1" fill="none"></path></g></g><mask></mask></svg>