<?xml version="1.0" encoding="utf-8"?>
<!-- Generator: Adobe Illustrator 26.5.0, SVG Export Plug-In . SVG Version: 6.00 Build 0)  -->
<svg version="1.1"
	 id="svg5" xmlns:inkscape="http://www.inkscape.org/namespaces/inkscape" xmlns:sodipodi="http://sodipodi.sourceforge.net/DTD/sodipodi-0.dtd" xmlns:svg="http://www.w3.org/2000/svg"
	 xmlns="http://www.w3.org/2000/svg" xmlns:xlink="http://www.w3.org/1999/xlink" x="0px" y="0px" viewBox="0 0 595.3 419.5"
	 style="enable-background:new 0 0 595.3 419.5;" xml:space="preserve">
<style type="text/css">
	.st0{enable-background:new    ;}
</style>
<sodipodi:namedview  bordercolor="#666666" borderopacity="1.0" id="namedview7" inkscape:current-layer="layer2" inkscape:cx="355.93795" inkscape:cy="295.90535" inkscape:document-units="mm" inkscape:guide-bbox="true" inkscape:object-nodes="true" inkscape:pagecheckerboard="0" inkscape:pageopacity="0.0" inkscape:pageshadow="2" inkscape:snap-grids="false" inkscape:snap-nodes="false" inkscape:window-height="1099" inkscape:window-maximized="0" inkscape:window-width="2048" inkscape:window-x="0" inkscape:window-y="25" inkscape:zoom="1.174362" pagecolor="#ffffff" showgrid="false" showguides="true">
	<inkscape:grid  dotted="false" id="grid7518" type="xygrid"></inkscape:grid>
	<sodipodi:guide  id="guide1640" orientation="1,0" position="96.428246,93.702788"></sodipodi:guide>
</sodipodi:namedview>
<defs>
	
		<inkscape:perspective  id="perspective25630" inkscape:persp3d-origin="124.7085 : 42.083474 : 1" inkscape:vp_x="7.2732603 : 82.660637 : 1" inkscape:vp_y="0 : 1000 : 0" inkscape:vp_z="171.04269 : 69.590846 : 1" sodipodi:type="inkscape:persp3d">
		</inkscape:perspective>
</defs>
<g id="layer2" inkscape:groupmode="layer" inkscape:label="Main Text" sodipodi:insensitive="true">
	<g class="st0">
		<path d="M357.5,59.7h10.4l46.3,136.6h0.3l45.2-136.6h10.4l0.3,146.6h-7.3l-0.3-135.6h-0.3L418,206.3h-7.3L365.1,70.8h-0.3
			l0.3,135.6h-7.3L357.5,59.7z"/>
	</g>
	<g class="st0">
		<path d="M232,59.7l0.5,87.9c0,2.9,0.2,6.2,0.4,10.1c0.3,3.8,0.9,7.8,1.9,11.8c1,4,2.4,8,4.1,11.9c1.8,3.9,4.2,7.4,7.2,10.5
			c3,3.1,6.7,5.5,11.1,7.4c4.4,1.8,9.7,2.8,16,2.8c7.9,0,14.6-1.3,19.9-3.8c5.3-2.5,9.6-6.2,12.9-10.9c3.3-4.7,5.6-10.4,7-17.1
			c1.4-6.7,2.1-14.2,2-22.6l-0.5-87.9h7.9l0.5,87.9c0,8.8-0.7,16.9-2.3,24.4c-1.6,7.5-4.3,14.1-8.1,19.7c-3.8,5.6-8.9,10-15.3,13.2
			c-6.4,3.2-14.4,4.8-24,4.8c-7.6,0-14.1-1.1-19.5-3.3c-5.4-2.2-9.9-5-13.5-8.5c-3.6-3.5-6.4-7.5-8.5-12c-2.1-4.5-3.7-9.1-4.8-13.7
			c-1.1-4.6-1.8-9-2.1-13.4c-0.3-4.3-0.4-8.1-0.4-11.4l-0.5-87.9H232z"/>
	</g>
	<g class="st0">
		<path d="M111.7,356.4H91.1V206.3h20.6V356.4z"/>
		<path d="M194.2,356.4l-34.1-82.7c-1.3-3.1-5-14-5-14l-0.6,0.7c0,0,0.3,8.5,0.3,12.5v83.6h-18.2V206.3h18.2l34.1,82.7
			c1.8,3.7,5,14,5,14l0.5-0.7c0,0-0.2-10.1-0.2-12.5v-83.6h18.3v150.1H194.2z"/>
		<path d="M239.1,356.4V206.3H304v24.9h-44.3v37.9h37.8v25h-37.8v62.4H239.1z"/>
		<path d="M347.6,293.8v62.6H327V206.3h46.2c22.4,0,33.8,18.2,33.8,42.9c0,18.2-7.1,32.2-18.5,38.5l21.2,68.7h-22.4L369,293.8H347.6
			z M347.6,231.2v37.9h22.7c10,0,14.5-7.4,14.5-19.9c0-10.9-4.2-17.9-13.7-17.9H347.6z"/>
		<path d="M515,356.4h-21.1l-6.8-29.5h-40.7l-6.6,29.5h-20l35.6-150.1h24L515,356.4z M466.5,231.5c0,0-1.6,13.3-3.2,20.4l-11.3,50.1
			h29.5l-11.1-50.1c-1.8-7.9-3.2-20.4-3.2-20.4H466.5z"/>
	</g>
	<g class="st0">
		<path d="M97.3,59.7h8.9l-0.1,66.5h92.8l0.1-66.5h8.9l-0.2,146.6h-8.9l0.1-72.3h-92.8l-0.1,72.3h-8.9L97.3,59.7z"/>
	</g>
</g>
</svg>
