<svg version="1.1" xmlns="http://www.w3.org/2000/svg" viewBox="0 0 1063.6849218150605 495.6222823696559" width="1063.6849218150605" height="495.6222823696559">
  <!-- svg-source:excalidraw -->
  
  <defs>
    <style class="style-fonts">
      @font-face {
        font-family: "Virgil";
        src: url("https://excalidraw.com/Virgil.woff2");
      }
      @font-face {
        font-family: "Cascadia";
        src: url("https://excalidraw.com/Cascadia.woff2");
      }
    </style>
  </defs>
  <rect x="0" y="0" width="1063.6849218150605" height="495.6222823696559" fill="#fff5f5"></rect><g transform="translate(545.9002681307911 10) rotate(0 167 72)"><text x="0" y="25" font-family="Virgil, Segoe UI Emoji" font-size="28px" fill="#c92a2a" text-anchor="start" style="white-space: pre;" direction="ltr">End metadata extends </text><text x="0" y="61" font-family="Virgil, Segoe UI Emoji" font-size="28px" fill="#c92a2a" text-anchor="start" style="white-space: pre;" direction="ltr">in to region where </text><text x="0" y="97" font-family="Virgil, Segoe UI Emoji" font-size="28px" fill="#c92a2a" text-anchor="start" style="white-space: pre;" direction="ltr"></text><text x="0" y="133" font-family="Virgil, Segoe UI Emoji" font-size="28px" fill="#c92a2a" text-anchor="start" style="white-space: pre;" direction="ltr">is speaking</text></g><g stroke-linecap="round" transform="translate(263.40347704017455 240.88359378352624) rotate(0 308.31753007363466 13.35233397956685)"><path d="M1.78 1.54 C1.78 1.54, 1.78 1.54, 1.78 1.54 M1.78 1.54 C1.78 1.54, 1.78 1.54, 1.78 1.54 M2.83 6.43 C4.81 5.09, 6 3.85, 7.42 1.15 M2.83 6.43 C4.97 4.43, 6.26 2.6, 7.42 1.15 M3.22 12.08 C6.72 10.82, 7.6 8.5, 13.06 0.76 M3.22 12.08 C6.95 8.98, 9.32 5.6, 13.06 0.76 M0.99 20.74 C4.62 15.93, 11.27 6.77, 18.05 1.12 M0.99 20.74 C6.99 15.64, 11.27 8.32, 18.05 1.12 M2.04 25.63 C7.69 18.17, 13.79 12.48, 23.69 0.72 M2.04 25.63 C8.06 17.84, 14.77 11.61, 23.69 0.72 M6.37 26.74 C10.98 19.37, 18.15 14.02, 28.68 1.08 M6.37 26.74 C12 18.64, 19.85 12.01, 28.68 1.08 M9.39 29.37 C16.91 17.35, 29.32 7.32, 34.32 0.69 M9.39 29.37 C15.34 23.66, 19.69 17.38, 34.32 0.69 M15.04 28.97 C20.92 22.29, 27.97 14.11, 39.31 1.05 M15.04 28.97 C23.22 20.04, 29.44 12.05, 39.31 1.05 M20.02 29.33 C26.84 18.11, 38.41 9.74, 44.95 0.65 M20.02 29.33 C26.93 19.74, 36.32 11.54, 44.95 0.65 M25.67 28.94 C35.49 17.63, 44.78 7.74, 49.94 1.01 M25.67 28.94 C35.9 17.98, 45.1 7.26, 49.94 1.01 M30.65 29.3 C41.47 18.93, 48.63 8.25, 55.58 0.62 M30.65 29.3 C37.24 22.98, 42.08 16.07, 55.58 0.62 M36.3 28.9 C45.49 16.05, 53.6 5.99, 60.57 0.98 M36.3 28.9 C44.04 21.42, 50.06 13.07, 60.57 0.98 M41.28 29.26 C48.39 21.12, 53.46 13.68, 66.21 0.58 M41.28 29.26 C49.09 20.19, 56.38 12.45, 66.21 0.58 M46.93 28.87 C50.21 23.22, 58.17 17.26, 71.2 0.94 M46.93 28.87 C51.93 23.1, 56.02 16.77, 71.2 0.94 M51.91 29.23 C60.16 19.91, 67.44 12.58, 76.84 0.55 M51.91 29.23 C60.41 18.5, 69.43 9.11, 76.84 0.55 M57.56 28.83 C62.3 20.08, 69.71 12.61, 81.83 0.91 M57.56 28.83 C63.41 21.85, 68.44 15.97, 81.83 0.91 M62.54 29.19 C69.97 17.67, 80.92 9.06, 87.47 0.51 M62.54 29.19 C71.33 20.36, 79.24 9.52, 87.47 0.51 M67.53 29.55 C77.85 20.02, 83.34 9.84, 92.46 0.87 M67.53 29.55 C75.99 21.14, 82.84 10.91, 92.46 0.87 M73.17 29.16 C82.52 18.59, 88.71 12.31, 97.45 1.23 M73.17 29.16 C81.68 17.87, 90.83 8.8, 97.45 1.23 M78.16 29.52 C86.08 21.07, 90.13 16.36, 103.09 0.84 M78.16 29.52 C87.43 17.98, 96.61 6.3, 103.09 0.84 M83.8 29.12 C91.67 18.43, 102.42 5.89, 108.08 1.2 M83.8 29.12 C89.36 21.69, 94.81 16.59, 108.08 1.2 M88.79 29.48 C94.44 20.38, 101.54 14.74, 113.72 0.81 M88.79 29.48 C96.44 19.09, 105.61 8.61, 113.72 0.81 M94.43 29.09 C102.86 17.51, 111.99 8.99, 118.71 1.17 M94.43 29.09 C105.14 17.95, 114.04 5.84, 118.71 1.17 M99.42 29.45 C107.1 20.08, 115.3 12.28, 124.35 0.77 M99.42 29.45 C104.37 22.06, 111.32 15.96, 124.35 0.77 M105.06 29.06 C110.9 22.46, 115 16.13, 129.34 1.13 M105.06 29.06 C113.28 19.04, 123.46 6.82, 129.34 1.13 M110.05 29.42 C115.22 24.52, 118.7 16.39, 134.98 0.74 M110.05 29.42 C119.15 17.21, 129.85 6, 134.98 0.74 M115.69 29.02 C122.42 24.82, 127.65 18.59, 139.97 1.1 M115.69 29.02 C122.36 20.65, 129.48 13.82, 139.97 1.1 M120.68 29.38 C126.12 20.12, 132.85 13.16, 145.61 0.7 M120.68 29.38 C130.31 18.78, 140.12 7.85, 145.61 0.7 M126.32 28.99 C132.33 23.43, 137.99 13.06, 150.6 1.06 M126.32 28.99 C134.83 19.46, 143.88 9.97, 150.6 1.06 M131.31 29.35 C138.24 20.26, 147.64 7.26, 156.24 0.67 M131.31 29.35 C140.09 18.98, 148.8 9.71, 156.24 0.67 M136.95 28.95 C143.9 21.73, 147.48 15.77, 161.23 1.03 M136.95 28.95 C142.6 20.96, 149.96 15.41, 161.23 1.03 M141.94 29.31 C150.7 17.59, 160.29 8.48, 166.87 0.63 M141.94 29.31 C150.55 18.99, 161.52 7.33, 166.87 0.63 M147.58 28.92 C156.12 20.59, 164.25 12.2, 171.86 0.99 M147.58 28.92 C151.99 22.47, 158.59 16.75, 171.86 0.99 M152.57 29.28 C160.11 20.05, 166.09 12.26, 177.5 0.6 M152.57 29.28 C162.27 18.93, 173.5 7.44, 177.5 0.6 M158.21 28.88 C164.91 19.66, 172.8 12.73, 182.49 0.96 M158.21 28.88 C165.39 21.44, 170.49 15.79, 182.49 0.96 M163.2 29.24 C172.73 19.07, 177.69 9.66, 188.13 0.56 M163.2 29.24 C171.05 18.89, 178.36 11.32, 188.13 0.56 M168.84 28.85 C175.62 20.03, 185.92 8.97, 193.12 0.92 M168.84 28.85 C178.41 17.95, 188.25 6.39, 193.12 0.92 M173.83 29.21 C179.08 20.58, 185.59 13.86, 198.76 0.53 M173.83 29.21 C183.01 18.67, 192.06 8.82, 198.76 0.53 M178.82 29.57 C186.96 20.98, 194.31 11.01, 203.75 0.89 M178.82 29.57 C184.86 22.82, 189.66 17.58, 203.75 0.89 M184.46 29.17 C191.01 21.58, 199.28 9.68, 209.39 0.49 M184.46 29.17 C189.71 22.75, 196.21 14.24, 209.39 0.49 M189.45 29.53 C197.27 19.32, 205.64 8.56, 214.38 0.85 M189.45 29.53 C195.9 20.75, 204.4 12.22, 214.38 0.85 M195.09 29.14 C201.15 21.49, 209.49 10.02, 219.37 1.21 M195.09 29.14 C203.32 19.14, 212.79 9.07, 219.37 1.21 M200.08 29.5 C207.51 23.14, 215.11 14.59, 225.01 0.82 M200.08 29.5 C210.86 18.72, 219.89 6.83, 225.01 0.82 M205.72 29.1 C210.63 24.21, 216.74 17.77, 230 1.18 M205.72 29.1 C214.6 17.93, 224.27 7.59, 230 1.18 M210.71 29.46 C219.06 20.24, 225.19 13.49, 235.64 0.79 M210.71 29.46 C217.28 22.3, 224.06 14.3, 235.64 0.79 M216.35 29.07 C224.01 23, 228.77 16.59, 240.63 1.15 M216.35 29.07 C222.85 22.16, 229.14 14.58, 240.63 1.15 M221.34 29.43 C229.76 21.76, 235 9.75, 246.27 0.75 M221.34 29.43 C227.17 23.46, 230.9 16.13, 246.27 0.75 M226.98 29.04 C231.43 25.11, 236.08 16.81, 251.26 1.11 M226.98 29.04 C232.47 21.61, 239.06 14.4, 251.26 1.11 M231.97 29.4 C238.9 18, 250.21 9.99, 256.9 0.72 M231.97 29.4 C241.33 19.49, 250.83 8.33, 256.9 0.72 M237.61 29 C242.35 20.72, 249.88 16.72, 261.89 1.08 M237.61 29 C244.23 20.26, 251.38 13.45, 261.89 1.08 M242.6 29.36 C251.23 19.88, 259.12 12.42, 267.53 0.68 M242.6 29.36 C248.83 22.45, 254.18 16.34, 267.53 0.68 M248.24 28.97 C253.55 23.74, 258.49 13.61, 272.52 1.04 M248.24 28.97 C257.3 18.11, 266.93 8.78, 272.52 1.04 M253.23 29.33 C258.47 21.21, 267.13 15.44, 278.16 0.65 M253.23 29.33 C259.77 21.33, 265.81 13.29, 278.16 0.65 M258.87 28.93 C265.42 20.09, 274.36 11.42, 283.15 1.01 M258.87 28.93 C264.35 23.34, 269.34 17.46, 283.15 1.01 M263.86 29.29 C268.1 23.45, 272.54 16.05, 288.79 0.61 M263.86 29.29 C272.47 20.37, 280.54 10.24, 288.79 0.61 M269.5 28.9 C275.97 20.88, 285.39 10.57, 293.78 0.97 M269.5 28.9 C279.85 17.36, 288.55 6.06, 293.78 0.97 M274.49 29.26 C284.32 19.95, 292.49 8.38, 299.42 0.58 M274.49 29.26 C283.66 18.93, 290.13 10.78, 299.42 0.58 M280.13 28.86 C286.8 21.23, 291.57 18.13, 304.41 0.94 M280.13 28.86 C289.8 18.58, 297.91 8.32, 304.41 0.94 M285.12 29.22 C293.22 19.42, 300.21 10.12, 310.05 0.54 M285.12 29.22 C291.39 22.18, 297.3 16.06, 310.05 0.54 M290.76 28.83 C299.74 18.74, 309.52 6.17, 315.04 0.9 M290.76 28.83 C297.73 20.2, 305.93 10.65, 315.04 0.9 M295.75 29.19 C305.17 18.22, 314.28 6.69, 320.68 0.51 M295.75 29.19 C302.51 19.67, 311.15 11.29, 320.68 0.51 M300.74 29.55 C304.22 22.58, 310.96 18.32, 325.67 0.87 M300.74 29.55 C306.44 22.6, 312.75 14.7, 325.67 0.87 M306.38 29.15 C313.42 21.28, 318.19 16.42, 330.65 1.23 M306.38 29.15 C314.61 20.22, 321.95 10.14, 330.65 1.23 M311.37 29.51 C322.13 19.59, 328.42 6.87, 336.3 0.84 M311.37 29.51 C319.2 21.44, 325.58 12.55, 336.3 0.84 M317.01 29.12 C322.42 22.87, 327.26 16.16, 341.28 1.2 M317.01 29.12 C323.85 21.24, 330.8 13.81, 341.28 1.2 M322 29.48 C329.38 17.33, 339.09 10.37, 346.93 0.8 M322 29.48 C328.1 22.9, 334.12 14.2, 346.93 0.8 M327.64 29.09 C333.05 22.76, 340.77 13.73, 351.91 1.16 M327.64 29.09 C336.74 19.84, 345.98 9.79, 351.91 1.16 M332.63 29.45 C342.9 19.16, 351.48 10.39, 357.56 0.77 M332.63 29.45 C337.62 23.9, 342.38 17.45, 357.56 0.77 M338.27 29.05 C344.2 23.74, 348.55 16.19, 362.54 1.13 M338.27 29.05 C346.33 20.71, 353.43 11.52, 362.54 1.13 M343.26 29.41 C349.61 22.47, 353.78 14.11, 368.19 0.73 M343.26 29.41 C351.55 18.79, 360.79 8.15, 368.19 0.73 M348.9 29.02 C356.75 18.98, 365.32 12.8, 373.17 1.09 M348.9 29.02 C354.63 21.37, 362.37 15.54, 373.17 1.09 M353.89 29.38 C362.32 20.67, 369.65 9.36, 378.82 0.7 M353.89 29.38 C363.14 19.62, 371.36 9.59, 378.82 0.7 M359.53 28.98 C367.69 19.33, 374.2 11.05, 383.8 1.06 M359.53 28.98 C367.7 18.45, 376.69 8.94, 383.8 1.06 M364.52 29.34 C368.12 25.15, 372.77 17.04, 389.45 0.66 M364.52 29.34 C373.2 19.42, 380.74 11.18, 389.45 0.66 M370.16 28.95 C378.27 19.79, 383.76 13.52, 394.43 1.02 M370.16 28.95 C377.48 21.75, 385.08 12.6, 394.43 1.02 M375.15 29.31 C382.58 20.35, 388.83 12.25, 400.08 0.63 M375.15 29.31 C382.26 20.41, 389.42 11.83, 400.08 0.63 M380.79 28.91 C389.55 20.77, 397.21 11.98, 405.06 0.99 M380.79 28.91 C389.06 17.99, 398.57 8.96, 405.06 0.99 M385.78 29.27 C396.1 16.67, 406.07 7.13, 410.71 0.59 M385.78 29.27 C394.42 18.29, 404.57 6.49, 410.71 0.59 M391.42 28.88 C400.01 17.47, 410.69 7.16, 415.69 0.95 M391.42 28.88 C398.25 21.14, 404.95 13.95, 415.69 0.95 M396.41 29.24 C406.87 19.33, 413.13 7, 421.34 0.56 M396.41 29.24 C405.95 17.67, 416.67 7.12, 421.34 0.56 M402.05 28.84 C412.2 16.12, 422.41 8.16, 426.32 0.92 M402.05 28.84 C407.78 21.99, 414.11 14.96, 426.32 0.92 M407.04 29.2 C416.45 19.51, 421.65 11.29, 431.97 0.53 M407.04 29.2 C415.96 17.91, 427.11 7.22, 431.97 0.53 M412.02 29.56 C418.81 20.06, 426.06 11.93, 436.95 0.89 M412.02 29.56 C420.92 19.02, 428.49 9.87, 436.95 0.89 M417.67 29.17 C427.47 19.94, 436.01 7.07, 442.6 0.49 M417.67 29.17 C426.46 19.56, 434.3 9.83, 442.6 0.49 M422.65 29.53 C428.79 21.14, 437.02 14.02, 447.58 0.85 M422.65 29.53 C432.31 18.28, 443.04 5.85, 447.58 0.85 M428.3 29.14 C436.91 20.08, 444.36 9.97, 452.57 1.21 M428.3 29.14 C436.23 20.37, 442.32 11.98, 452.57 1.21 M433.28 29.5 C442.16 18.2, 451.63 11.12, 458.21 0.82 M433.28 29.5 C440.08 22.67, 445.24 15.86, 458.21 0.82 M438.93 29.1 C445.96 20.74, 457.28 8.94, 463.2 1.18 M438.93 29.1 C443.31 24, 449.32 18.17, 463.2 1.18 M443.91 29.46 C451.81 17.53, 462.99 8.32, 468.84 0.78 M443.91 29.46 C449.85 22.39, 455.48 16.57, 468.84 0.78 M449.56 29.07 C455.18 20.96, 460.94 17.03, 473.83 1.14 M449.56 29.07 C456.03 22.34, 462.97 14.95, 473.83 1.14 M454.54 29.43 C462.38 23.01, 465.1 15.34, 479.48 0.75 M454.54 29.43 C458.95 22.42, 465.53 16.1, 479.48 0.75 M460.19 29.03 C469.62 21.83, 476.41 12.41, 484.46 1.11 M460.19 29.03 C470.22 18.17, 478 7.29, 484.46 1.11 M465.17 29.39 C472.03 22.47, 477.61 15.61, 490.11 0.71 M465.17 29.39 C473.92 19.84, 480.91 10.65, 490.11 0.71 M470.82 29 C476.45 22.33, 483.06 17.67, 495.09 1.07 M470.82 29 C480.01 19.41, 487.66 9.54, 495.09 1.07 M475.8 29.36 C482.57 23.59, 485.96 16.57, 500.74 0.68 M475.8 29.36 C482.51 19.8, 491.04 11.38, 500.74 0.68 M481.45 28.96 C488.18 20.24, 495.76 9.63, 505.72 1.04 M481.45 28.96 C486.28 23.9, 491.83 17.01, 505.72 1.04 M486.44 29.32 C492.94 23.19, 495.85 18.38, 511.37 0.64 M486.44 29.32 C493.13 20.06, 500.55 12.06, 511.37 0.64 M492.08 28.93 C499.85 22.15, 504.93 10.82, 516.35 1 M492.08 28.93 C499.91 18.47, 508.3 9.08, 516.35 1 M497.07 29.29 C504.66 19.74, 512.73 9.77, 522 0.61 M497.07 29.29 C503.27 22.68, 508.77 15.94, 522 0.61 M502.71 28.89 C510.01 23.18, 512.97 14.88, 526.98 0.97 M502.71 28.89 C508.51 22.83, 512.37 16.58, 526.98 0.97 M507.7 29.25 C517.44 16.07, 528.37 4.61, 532.63 0.57 M507.7 29.25 C512.91 23.58, 519.15 17.84, 532.63 0.57 M513.34 28.86 C518.33 22.98, 526.94 12.17, 537.61 0.93 M513.34 28.86 C519.47 20.85, 528.42 13.22, 537.61 0.93 M518.33 29.22 C525.57 20.15, 530.25 12.85, 543.26 0.54 M518.33 29.22 C527.82 19.75, 535.52 9.12, 543.26 0.54 M523.97 28.82 C531.49 21.85, 539.7 11.43, 548.24 0.9 M523.97 28.82 C528.54 22.83, 533.99 15.68, 548.24 0.9 M528.96 29.18 C536.89 22.89, 543.54 13.18, 553.89 0.51 M528.96 29.18 C535.6 21.75, 542.17 13.58, 553.89 0.51 M533.94 29.54 C541.57 21.84, 544.4 16.72, 558.87 0.87 M533.94 29.54 C539.96 22.37, 546.9 13.66, 558.87 0.87 M539.59 29.15 C548.17 19.56, 557.24 7.38, 563.86 1.23 M539.59 29.15 C546.13 21.7, 553.05 13.09, 563.86 1.23 M544.57 29.51 C551.82 20.06, 562.22 12.67, 569.5 0.83 M544.57 29.51 C550.02 22.77, 556.94 16.58, 569.5 0.83 M550.22 29.12 C558.61 21.42, 563.73 13.05, 574.49 1.19 M550.22 29.12 C555.72 23.11, 561.8 17.08, 574.49 1.19 M555.2 29.48 C564.58 18.9, 570.81 9.71, 580.13 0.8 M555.2 29.48 C564.42 17.63, 574.74 6.84, 580.13 0.8 M560.85 29.08 C568.59 21.65, 575.78 12.51, 585.12 1.16 M560.85 29.08 C567.12 19.93, 574.35 12.31, 585.12 1.16 M565.83 29.44 C574.43 17.97, 584.43 10.13, 590.76 0.76 M565.83 29.44 C571.83 22.38, 576.94 16.36, 590.76 0.76 M571.48 29.05 C575.59 23.55, 582.89 16.11, 595.75 1.12 M571.48 29.05 C579.62 19.14, 588.22 10.94, 595.75 1.12 M576.46 29.41 C588.47 16.44, 597.53 7.89, 601.39 0.73 M576.46 29.41 C581.32 23.45, 587.63 15.69, 601.39 0.73 M582.11 29.01 C586.53 22.86, 594.85 14.47, 606.38 1.09 M582.11 29.01 C589.51 20.23, 597.42 11.48, 606.38 1.09 M587.09 29.37 C592.71 21.66, 600.93 12.95, 611.37 1.45 M587.09 29.37 C594.65 20.66, 601.52 12.81, 611.37 1.45 M592.74 28.98 C603.89 19.55, 612.84 7.56, 615.7 2.56 M592.74 28.98 C597.37 22.63, 604.58 16.2, 615.7 2.56 M597.72 29.34 C600.54 24.26, 606.17 19.51, 618.06 5.94 M597.72 29.34 C602.52 24.76, 606.22 19.12, 618.06 5.94 M603.37 28.94 C608.21 23.4, 615.09 15.2, 618.46 11.58 M603.37 28.94 C608.11 25.02, 610.94 19.82, 618.46 11.58 M610.32 27.04 C613.85 23.69, 614.72 22.11, 618.85 17.23 M610.32 27.04 C612.21 24.9, 614.99 21.79, 618.85 17.23" stroke="#7950f2" stroke-width="0.5" fill="none"></path><path d="M6.68 0 M6.68 0 C173.62 -1.9, 342.25 -1.66, 609.96 0 M6.68 0 C211.74 2.01, 417.01 1.41, 609.96 0 M609.96 0 C614.74 -0.05, 618.26 0.43, 616.64 6.68 M609.96 0 C612.57 0.96, 617.52 0.8, 616.64 6.68 M616.64 6.68 C617.48 11.64, 615.86 16.71, 616.64 20.03 M616.64 6.68 C617.01 9.71, 616.43 12.44, 616.64 20.03 M616.64 20.03 C617.91 24.11, 616.33 25.29, 609.96 26.7 M616.64 20.03 C614.75 23.36, 613.41 26.03, 609.96 26.7 M609.96 26.7 C380.97 29.02, 151.39 27.75, 6.68 26.7 M609.96 26.7 C455.26 24.9, 301 24.51, 6.68 26.7 M6.68 26.7 C2.67 27.08, -0.26 25.58, 0 20.03 M6.68 26.7 C3.9 28.37, -1.25 23.36, 0 20.03 M0 20.03 C-1.23 14.1, -0.76 10.09, 0 6.68 M0 20.03 C0.07 16.49, -0.51 11.76, 0 6.68 M0 6.68 C0.66 2.1, 4.08 1.97, 6.68 0 M0 6.68 C0.6 0.72, 3.52 -1.77, 6.68 0" stroke="#000000" stroke-width="1" fill="none"></path></g><g stroke-linecap="round" transform="translate(882.8171239846581 240.88359378352624) rotate(0 47.04234138957986 13.35233397956685)"><path d="M1.78 1.54 C1.78 1.54, 1.78 1.54, 1.78 1.54 M1.78 1.54 C1.78 1.54, 1.78 1.54, 1.78 1.54 M1.52 7.94 C2.32 6.33, 4.54 4.67, 7.42 1.15 M1.52 7.94 C2.72 5.96, 4.45 4.47, 7.42 1.15 M1.91 13.59 C6.74 9.12, 11.22 3.98, 13.06 0.76 M1.91 13.59 C6.17 9.11, 8.36 6.2, 13.06 0.76 M1.65 19.98 C5.5 16.56, 9.53 13.59, 18.05 1.12 M1.65 19.98 C8.74 12.1, 13.81 5.6, 18.05 1.12 M2.7 24.87 C5.68 20.68, 11.03 12.49, 23.69 0.72 M2.7 24.87 C8.47 17.28, 14.85 10.25, 23.69 0.72 M5.72 27.5 C8.83 23.17, 16.76 16.67, 28.68 1.08 M5.72 27.5 C9.65 22.45, 14.82 17.38, 28.68 1.08 M10.71 27.86 C20.91 19.32, 28.3 8.45, 34.32 0.69 M10.71 27.86 C17.11 21.29, 23.45 13.03, 34.32 0.69 M16.35 27.46 C22.46 21.17, 29.86 10.76, 39.31 1.05 M16.35 27.46 C21.47 20.4, 27.4 15.26, 39.31 1.05 M21.34 27.82 C29.45 22.76, 35.44 14.11, 44.3 1.41 M21.34 27.82 C28.87 18.75, 37.53 9.56, 44.3 1.41 M26.32 28.18 C31.82 20.35, 41.05 13.84, 49.94 1.01 M26.32 28.18 C30.91 21.22, 35.99 16.18, 49.94 1.01 M31.97 27.79 C36.08 18.95, 45.53 14.21, 54.93 1.37 M31.97 27.79 C40.69 18.63, 48.3 9.78, 54.93 1.37 M36.95 28.15 C43.24 21.69, 47.99 13.55, 60.57 0.98 M36.95 28.15 C41.2 22.23, 46.31 17.42, 60.57 0.98 M42.6 27.75 C47.45 21.49, 53.79 16.91, 65.56 1.34 M42.6 27.75 C48.34 20.99, 53.44 14.91, 65.56 1.34 M47.58 28.11 C55.63 17.88, 66.77 7.4, 71.2 0.94 M47.58 28.11 C55.37 19.53, 61.07 11.9, 71.2 0.94 M53.23 27.72 C63.67 16.78, 69.87 8.61, 76.19 1.3 M53.23 27.72 C60.84 18.22, 68.24 10.51, 76.19 1.3 M58.21 28.08 C66.85 18.41, 75.99 7.74, 81.83 0.91 M58.21 28.08 C66.25 19.1, 72.51 11.46, 81.83 0.91 M63.2 28.44 C71.42 20.07, 79.32 9.68, 86.82 1.27 M63.2 28.44 C71.88 20.08, 79.38 11.16, 86.82 1.27 M68.84 28.04 C76.83 19.86, 82.72 10.27, 91.8 1.63 M68.84 28.04 C77.01 19.82, 84.32 11.08, 91.8 1.63 M73.83 28.4 C78.42 22.25, 84.59 14.2, 94.82 4.25 M73.83 28.4 C77.27 23.85, 81.96 17.94, 94.82 4.25 M79.47 28.01 C85.62 22.86, 89.9 14.84, 94.56 10.65 M79.47 28.01 C85.42 21.72, 91.23 14.85, 94.56 10.65 M84.46 28.37 C87.84 25.4, 90.22 21.65, 94.3 17.05 M84.46 28.37 C88.75 23.32, 91.39 19.01, 94.3 17.05" stroke="#fd7e14" stroke-width="0.5" fill="none"></path><path d="M6.68 0 M6.68 0 C35.1 -2.41, 60.45 -2.48, 87.41 0 M6.68 0 C24.77 -0.18, 40.63 -0.23, 87.41 0 M87.41 0 C93.13 0.8, 93.31 1.5, 94.08 6.68 M87.41 0 C92.2 -1.41, 95.63 4.39, 94.08 6.68 M94.08 6.68 C94.09 10.4, 94.88 11.32, 94.08 20.03 M94.08 6.68 C94.26 10.25, 93.71 13.66, 94.08 20.03 M94.08 20.03 C96.05 23.24, 90.63 27.06, 87.41 26.7 M94.08 20.03 C95.9 24.09, 91.17 27.88, 87.41 26.7 M87.41 26.7 C66.63 27.16, 43.37 25.37, 6.68 26.7 M87.41 26.7 C62.41 26.02, 36.25 27.26, 6.68 26.7 M6.68 26.7 C3.7 26.03, 0.96 24.47, 0 20.03 M6.68 26.7 C0.94 27.61, -1.38 23.89, 0 20.03 M0 20.03 C1.06 15.16, 1.28 10.16, 0 6.68 M0 20.03 C-0.36 16.02, -0.57 12.27, 0 6.68 M0 6.68 C-0.86 3.04, 3.04 -0.76, 6.68 0 M0 6.68 C1.21 4.37, 2.58 -0.58, 6.68 0" stroke="#000000" stroke-width="1" fill="none"></path></g><g stroke-linecap="round"><g transform="translate(937.4174068959298 169.3852214082105) rotate(0 0.6151568214738745 96.27022935075071)"><path d="M0.36 -0.9 C0.5 31.32, 1.02 160.82, 0.82 193.44" stroke="#5f3dc4" stroke-width="1.5" fill="none" stroke-dasharray="8 9"></path></g></g><mask></mask><g stroke-linecap="round"><g transform="translate(363.3907055093502 168.6376117794735) rotate(0 0.3625265948474521 96.79900941920785)"><path d="M0.84 -0.15 C0.67 32.29, 0.16 161.26, -0.11 193.75" stroke="#5f3dc4" stroke-width="1.5" fill="none" stroke-dasharray="8 9"></path></g></g><mask></mask><g stroke-linecap="round"><g transform="translate(505.3950103057818 441.69024713775815) rotate(0 79.61947266466484 -74.53382810726447)"><path d="M1.19 0.03 C2.43 -7.64, -0.25 -31.86, 6.89 -45.08 C14.04 -58.3, 28.89 -77.91, 44.07 -79.28 C59.25 -80.65, 80.18 -54.89, 97.95 -53.3 C115.72 -51.72, 140.87 -53.91, 150.68 -69.77 C160.5 -85.63, 155.96 -135.02, 156.83 -148.47 M0.35 -1 C2.02 -8.6, 1.98 -30.95, 9.1 -43.84 C16.22 -56.74, 28.74 -76.87, 43.07 -78.35 C57.4 -79.82, 76.9 -54.27, 95.1 -52.69 C113.29 -51.12, 141.75 -52.83, 152.25 -68.9 C162.75 -84.97, 157.49 -135.79, 158.11 -149.1" stroke="#5f3dc4" stroke-width="1" fill="none"></path></g><g transform="translate(505.3950103057818 441.69024713775815) rotate(0 79.61947266466484 -74.53382810726447)"><path d="M169.05 -122.74 C165.09 -128.78, 162.1 -133.26, 156.54 -151.07 M168 -122.13 C165.85 -131.36, 161.18 -142.5, 157.25 -149" stroke="#5f3dc4" stroke-width="1" fill="none"></path></g><g transform="translate(505.3950103057818 441.69024713775815) rotate(0 79.61947266466484 -74.53382810726447)"><path d="M148.53 -122.29 C149.71 -128.64, 151.86 -133.23, 156.54 -151.07 M147.48 -121.67 C153.07 -131.21, 156.12 -142.52, 157.25 -149" stroke="#5f3dc4" stroke-width="1" fill="none"></path></g></g><mask></mask><g transform="translate(429.46380120811926 449.6222823696559) rotate(0 98 18)"><text x="0" y="25" font-family="Virgil, Segoe UI Emoji" font-size="28px" fill="#5f3dc4" text-anchor="start" style="white-space: pre;" direction="ltr">Actual Speech</text></g><g stroke-linecap="round"><g transform="translate(230.9757418821858 74.63127115983536) rotate(0 61.423034786243704 44.91296741837198)"><path d="M0.6 0.56 C1.68 1.15, -1.6 1.91, 7.03 2.71 C15.65 3.51, 39.16 0.42, 52.34 5.35 C65.51 10.28, 74.22 18.17, 86.07 32.28 C97.91 46.4, 117.14 80.37, 123.4 90.02 M-0.55 -0.2 C0.31 0.09, -3.24 -0.43, 5.95 0.73 C15.15 1.9, 41.27 1.37, 54.62 6.79 C67.98 12.21, 74.86 19.43, 86.09 33.27 C97.32 47.1, 116.09 79.99, 121.99 89.82" stroke="#c92a2a" stroke-width="1" fill="none"></path></g><g transform="translate(230.9757418821858 74.63127115983536) rotate(0 61.423034786243704 44.91296741837198)"><path d="M99.75 70.37 C107.12 75.29, 115.02 83.06, 121.61 90.04 M98.49 70.11 C103.47 74.13, 108.97 78.75, 122.24 90.25" stroke="#c92a2a" stroke-width="1" fill="none"></path></g><g transform="translate(230.9757418821858 74.63127115983536) rotate(0 61.423034786243704 44.91296741837198)"><path d="M117.41 59.93 C118.64 68.53, 120.45 79.89, 121.61 90.04 M116.16 59.67 C117.52 65.7, 119.37 72.48, 122.24 90.25" stroke="#c92a2a" stroke-width="1" fill="none"></path></g></g><mask></mask><g transform="translate(10 18.57533729527364) rotate(0 115.50000000000003 54)"><text x="0" y="25" font-family="Virgil, Segoe UI Emoji" font-size="28px" fill="#c92a2a" text-anchor="start" style="white-space: pre;" direction="ltr">Start metadata</text><text x="0" y="61" font-family="Virgil, Segoe UI Emoji" font-size="28px" fill="#c92a2a" text-anchor="start" style="white-space: pre;" direction="ltr">is off position</text><text x="0" y="97" font-family="Virgil, Segoe UI Emoji" font-size="28px" fill="#c92a2a" text-anchor="start" style="white-space: pre;" direction="ltr"></text></g><g stroke-linecap="round" transform="translate(70.77688796820706 240.88359378352624) rotate(0 63.21936327922384 13.35233397956685)"><path d="M1.78 1.54 C1.78 1.54, 1.78 1.54, 1.78 1.54 M1.78 1.54 C1.78 1.54, 1.78 1.54, 1.78 1.54 M1.52 7.94 C3.17 6.88, 5.04 4.9, 7.42 1.15 M1.52 7.94 C3.41 5.82, 5.09 4.29, 7.42 1.15 M1.91 13.59 C6.81 8.92, 11.3 5.79, 13.06 0.76 M1.91 13.59 C6.87 8.4, 9.35 4.07, 13.06 0.76 M1.65 19.98 C4.86 15.31, 9.54 8.8, 18.05 1.12 M1.65 19.98 C4.57 15.75, 8.52 11.75, 18.05 1.12 M2.7 24.87 C7.39 18.71, 14.63 11.97, 23.69 0.72 M2.7 24.87 C7.12 19.09, 12.88 13.88, 23.69 0.72 M5.72 27.5 C14.97 18.47, 21.06 10.73, 28.68 1.08 M5.72 27.5 C15.71 17.41, 24.78 5.73, 28.68 1.08 M10.71 27.86 C17.86 21.3, 25.26 14.05, 34.32 0.69 M10.71 27.86 C19.81 18.8, 28.4 8.42, 34.32 0.69 M16.35 27.46 C21.35 18.69, 29.42 13.57, 39.31 1.05 M16.35 27.46 C21.62 21.37, 26.76 14.49, 39.31 1.05 M21.34 27.82 C31.42 19.76, 39.02 10.34, 44.95 0.65 M21.34 27.82 C28.87 19.15, 34.61 12.61, 44.95 0.65 M26.32 28.18 C31.48 20.79, 37.07 15.9, 49.94 1.01 M26.32 28.18 C35.95 18.86, 43.17 8.92, 49.94 1.01 M31.97 27.79 C37.44 20.09, 41.05 17.3, 54.93 1.37 M31.97 27.79 C36.89 21.16, 41.36 16.79, 54.93 1.37 M36.95 28.15 C43.4 20.66, 48.64 12.04, 60.57 0.98 M36.95 28.15 C45.65 18.49, 52.87 10.72, 60.57 0.98 M42.6 27.75 C51.47 18.87, 60.5 9.73, 65.56 1.34 M42.6 27.75 C48.08 20, 54.08 13.68, 65.56 1.34 M47.58 28.11 C54.34 20.51, 56.64 15.37, 71.2 0.94 M47.58 28.11 C55.03 20.77, 61.16 11.98, 71.2 0.94 M53.23 27.72 C61.89 20.38, 67.62 9.17, 76.19 1.3 M53.23 27.72 C59.93 20.23, 68.57 11.19, 76.19 1.3 M58.21 28.08 C67.58 20.22, 75.27 11.28, 81.83 0.91 M58.21 28.08 C65.74 18.61, 74.31 10.06, 81.83 0.91 M63.86 27.68 C69.77 20.25, 75.27 12.2, 86.82 1.27 M63.86 27.68 C68.99 21.06, 76.06 15.56, 86.82 1.27 M68.84 28.04 C74.38 20.82, 82.13 13.02, 92.46 0.87 M68.84 28.04 C75.46 19.33, 82.51 11.33, 92.46 0.87 M73.83 28.4 C78.49 23.88, 85.52 15.27, 97.45 1.23 M73.83 28.4 C80.76 21.04, 86.35 13.53, 97.45 1.23 M79.47 28.01 C84.45 20.86, 88.4 14.91, 103.09 0.84 M79.47 28.01 C86.53 21.66, 91.1 14.81, 103.09 0.84 M84.46 28.37 C91.22 21.5, 96.39 10.65, 108.08 1.2 M84.46 28.37 C93.61 19.73, 101.22 8.54, 108.08 1.2 M90.1 27.97 C99.97 17.64, 107.81 7.29, 113.06 1.56 M90.1 27.97 C95.39 22.49, 99.95 17.05, 113.06 1.56 M95.09 28.33 C105.38 16.19, 115.25 5.38, 118.71 1.17 M95.09 28.33 C102.42 20.79, 108.9 11.01, 118.71 1.17 M100.73 27.94 C107.22 19.86, 114.36 9.81, 123.7 1.53 M100.73 27.94 C106.36 20.19, 113.78 12.9, 123.7 1.53 M105.72 28.3 C111.65 22.32, 117.07 15.93, 126.71 4.15 M105.72 28.3 C114 18.05, 122.71 8.53, 126.71 4.15 M111.36 27.91 C112.72 23.95, 119.08 20.08, 126.45 10.55 M111.36 27.91 C114.71 24.39, 119.23 20.86, 126.45 10.55 M116.35 28.27 C120.19 25, 124.31 19.67, 126.85 16.19 M116.35 28.27 C119.3 24.45, 123.65 20.33, 126.85 16.19 M121.34 28.63 C123.43 26.23, 124.77 24.04, 125.93 23.34 M121.34 28.63 C123.1 26.87, 124.2 25, 125.93 23.34" stroke="#fd7e14" stroke-width="0.5" fill="none"></path><path d="M6.68 0 M6.68 0 C35.45 0.83, 65.55 0.51, 119.76 0 M6.68 0 C48.71 -1.51, 89.55 -0.17, 119.76 0 M119.76 0 C123.6 -1.09, 124.56 2.89, 126.44 6.68 M119.76 0 C125.68 0.38, 125.83 1.41, 126.44 6.68 M126.44 6.68 C127.8 10.26, 127.75 16.33, 126.44 20.03 M126.44 6.68 C126.67 11.25, 126.25 15.22, 126.44 20.03 M126.44 20.03 C127.06 23.07, 123.88 27.55, 119.76 26.7 M126.44 20.03 C125.84 22.47, 122.74 28.11, 119.76 26.7 M119.76 26.7 C81.28 25.98, 44.49 28.56, 6.68 26.7 M119.76 26.7 C91.62 27.07, 64.63 26.29, 6.68 26.7 M6.68 26.7 C1.32 27.47, -1.39 25.78, 0 20.03 M6.68 26.7 C4.25 28.31, -1.31 23.2, 0 20.03 M0 20.03 C1.28 15.75, -0.2 12.44, 0 6.68 M0 20.03 C-0.68 16.97, -0.53 14.65, 0 6.68 M0 6.68 C0.87 1.82, 2.26 1.75, 6.68 0 M0 6.68 C0.08 3.59, 0.61 1.73, 6.68 0" stroke="#000000" stroke-width="1" fill="none"></path></g><g stroke-linecap="round"><g transform="translate(802.8376351614563 71.50486137418903) rotate(0 68.0139940196409 35.61093809719888)"><path d="M0.5 0.96 C11.64 -0.74, 50.05 -8.83, 67.28 -9.62 C84.51 -10.42, 93.84 -9.25, 103.85 -3.82 C113.86 1.62, 121.86 8.88, 127.34 23 C132.82 37.12, 135.29 71.14, 136.73 80.91 M-0.7 0.41 C10.79 -1.19, 52.27 -7.85, 69.6 -8.43 C86.93 -9.01, 93.65 -8.46, 103.29 -3.05 C112.92 2.36, 122.06 10.03, 127.42 24.05 C132.79 38.07, 133.86 71.63, 135.48 81.07" stroke="#c92a2a" stroke-width="1" fill="none"></path></g><g transform="translate(802.8376351614563 71.50486137418903) rotate(0 68.0139940196409 35.61093809719888)"><path d="M124.19 53.37 C125.96 64.07, 129.63 71.81, 135.3 81.78 M123.5 54.49 C125.16 61.14, 130.28 67.77, 135.39 81.14" stroke="#c92a2a" stroke-width="1" fill="none"></path></g><g transform="translate(802.8376351614563 71.50486137418903) rotate(0 68.0139940196409 35.61093809719888)"><path d="M144.22 51.28 C139.27 62.76, 136.21 71.21, 135.3 81.78 M143.53 52.39 C139.9 59.64, 139.74 66.82, 135.39 81.14" stroke="#c92a2a" stroke-width="1" fill="none"></path></g></g><mask></mask><g stroke-linecap="round"><g transform="translate(203.06976083774276 406.32235640916883) rotate(0 70.44473708208886 -22.9998032039594)"><path d="M-1.01 -1.08 C2.52 -6, 11 -23.72, 22.13 -30.68 C33.25 -37.63, 45.79 -40.43, 65.75 -42.8 C85.72 -45.18, 129.3 -44.49, 141.9 -44.92" stroke="#5f3dc4" stroke-width="1.5" fill="none" stroke-dasharray="8 9"></path></g><g transform="translate(203.06976083774276 406.32235640916883) rotate(0 70.44473708208886 -22.9998032039594)"><path d="M112.02 -36.02 C123.05 -39.69, 134.17 -41.79, 141.81 -45.5" stroke="#5f3dc4" stroke-width="1.5" fill="none"></path></g><g transform="translate(203.06976083774276 406.32235640916883) rotate(0 70.44473708208886 -22.9998032039594)"><path d="M111.8 -56.54 C122.71 -52.44, 133.91 -46.76, 141.81 -45.5" stroke="#5f3dc4" stroke-width="1.5" fill="none"></path></g></g><mask></mask><g transform="translate(18.235636138287134 413.6222823696559) rotate(0 138 36)"><text x="0" y="25" font-family="Virgil, Segoe UI Emoji" font-size="28px" fill="#5f3dc4" text-anchor="start" style="white-space: pre;" direction="ltr">Metadata indicates</text><text x="0" y="61" font-family="Virgil, Segoe UI Emoji" font-size="28px" fill="#5f3dc4" text-anchor="start" style="white-space: pre;" direction="ltr">speech starts here</text></g><g transform="translate(544.4017183035944 82.359829792673) rotate(0 149 18)"><text x="0" y="25" font-family="Virgil, Segoe UI Emoji" font-size="28px" fill="#e67700" text-anchor="start" style="white-space: pre;" direction="ltr">speaker of the house</text></g><g stroke-linecap="round"><g transform="translate(755.1080320220867 124.14035006604405) rotate(0 76.49951377819627 52.342301906840945)"><path d="M-0.35 0.23 C3.07 9.03, 7.03 41.2, 20.02 52.75 C33 64.3, 58.31 66.34, 77.58 69.52 C96.85 72.7, 123 65.85, 135.63 71.82 C148.26 77.8, 150.48 99.85, 153.35 105.38 M1.67 -0.69 C4.93 8.27, 6.33 42.14, 18.83 54.05 C31.34 65.97, 57.17 67.65, 76.73 70.82 C96.29 73.98, 123.68 67.73, 136.19 73.04 C148.71 78.35, 148.87 97.44, 151.82 102.65" stroke="#e67700" stroke-width="1" fill="none"></path></g><g transform="translate(755.1080320220867 124.14035006604405) rotate(0 76.49951377819627 52.342301906840945)"><path d="M140.95 86.91 C142.84 91.32, 146.41 96.46, 152.16 102.5 M140.78 87.56 C144.35 93.77, 148.9 99.32, 150.91 103.1" stroke="#e67700" stroke-width="1" fill="none"></path></g><g transform="translate(755.1080320220867 124.14035006604405) rotate(0 76.49951377819627 52.342301906840945)"><path d="M153.25 83.21 C151.91 88.56, 152.26 94.67, 152.16 102.5 M153.08 83.86 C151.88 91.56, 151.68 98.54, 150.91 103.1" stroke="#e67700" stroke-width="1" fill="none"></path></g></g><mask></mask><g transform="translate(853.6849218150605 380.02664082364) rotate(0 100 36)"><text x="0" y="25" font-family="Virgil, Segoe UI Emoji" font-size="28px" fill="#5f3dc4" text-anchor="start" style="white-space: pre;" direction="ltr">Metadata end</text><text x="0" y="61" font-family="Virgil, Segoe UI Emoji" font-size="28px" fill="#5f3dc4" text-anchor="start" style="white-space: pre;" direction="ltr">location.</text></g></svg>