<?xml version="1.0" encoding="utf-8" standalone="no"?>
<!DOCTYPE svg PUBLIC "-//W3C//DTD SVG 1.1//EN"
  "http://www.w3.org/Graphics/SVG/1.1/DTD/svg11.dtd">
<svg xmlns:xlink="http://www.w3.org/1999/xlink" width="460.8pt" height="345.6pt" viewBox="0 0 460.8 345.6" xmlns="http://www.w3.org/2000/svg" version="1.1">
 <metadata>
  <rdf:RDF xmlns:dc="http://purl.org/dc/elements/1.1/" xmlns:cc="http://creativecommons.org/ns#" xmlns:rdf="http://www.w3.org/1999/02/22-rdf-syntax-ns#">
   <cc:Work>
    <dc:type rdf:resource="http://purl.org/dc/dcmitype/StillImage"/>
    <dc:date>2023-06-03T10:40:51.787183</dc:date>
    <dc:format>image/svg+xml</dc:format>
    <dc:creator>
     <cc:Agent>
      <dc:title>Matplotlib v3.7.1, https://matplotlib.org/</dc:title>
     </cc:Agent>
    </dc:creator>
   </cc:Work>
  </rdf:RDF>
 </metadata>
 <defs>
  <style type="text/css">*{stroke-linejoin: round; stroke-linecap: butt}</style>
 </defs>
 <g id="figure_1">
  <g id="patch_1">
   <path d="M 0 345.6 
L 460.8 345.6 
L 460.8 0 
L 0 0 
z
" style="fill: #ffffff"/>
  </g>
  <g id="axes_1">
   <g id="patch_2">
    <path d="M 57.6 307.584 
L 414.72 307.584 
L 414.72 41.472 
L 57.6 41.472 
z
" style="fill: #ffffff"/>
   </g>
   <g id="patch_3">
    <path d="M 73.832727 307.584 
L 79.335347 307.584 
L 79.335347 307.584 
L 73.832727 307.584 
z
" clip-path="url(#pe6195c407a)" style="fill: #1f77b4; opacity: 0.5"/>
   </g>
   <g id="patch_4">
    <path d="M 79.335347 307.584 
L 84.837966 307.584 
L 84.837966 307.550905 
L 79.335347 307.550905 
z
" clip-path="url(#pe6195c407a)" style="fill: #1f77b4; opacity: 0.5"/>
   </g>
   <g id="patch_5">
    <path d="M 84.837966 307.584 
L 90.340586 307.584 
L 90.340586 307.51781 
L 84.837966 307.51781 
z
" clip-path="url(#pe6195c407a)" style="fill: #1f77b4; opacity: 0.5"/>
   </g>
   <g id="patch_6">
    <path d="M 90.340586 307.584 
L 95.843205 307.584 
L 95.843205 307.484716 
L 90.340586 307.484716 
z
" clip-path="url(#pe6195c407a)" style="fill: #1f77b4; opacity: 0.5"/>
   </g>
   <g id="patch_7">
    <path d="M 95.843205 307.584 
L 101.345824 307.584 
L 101.345824 307.584 
L 95.843205 307.584 
z
" clip-path="url(#pe6195c407a)" style="fill: #1f77b4; opacity: 0.5"/>
   </g>
   <g id="patch_8">
    <path d="M 101.345824 307.584 
L 106.848444 307.584 
L 106.848444 307.352336 
L 101.345824 307.352336 
z
" clip-path="url(#pe6195c407a)" style="fill: #1f77b4; opacity: 0.5"/>
   </g>
   <g id="patch_9">
    <path d="M 106.848444 307.584 
L 112.351063 307.584 
L 112.351063 307.054483 
L 106.848444 307.054483 
z
" clip-path="url(#pe6195c407a)" style="fill: #1f77b4; opacity: 0.5"/>
   </g>
   <g id="patch_10">
    <path d="M 112.351063 307.584 
L 117.853683 307.584 
L 117.853683 307.021388 
L 112.351063 307.021388 
z
" clip-path="url(#pe6195c407a)" style="fill: #1f77b4; opacity: 0.5"/>
   </g>
   <g id="patch_11">
    <path d="M 117.853683 307.584 
L 123.356302 307.584 
L 123.356302 306.922104 
L 117.853683 306.922104 
z
" clip-path="url(#pe6195c407a)" style="fill: #1f77b4; opacity: 0.5"/>
   </g>
   <g id="patch_12">
    <path d="M 123.356302 307.584 
L 128.858921 307.584 
L 128.858921 306.558061 
L 123.356302 306.558061 
z
" clip-path="url(#pe6195c407a)" style="fill: #1f77b4; opacity: 0.5"/>
   </g>
   <g id="patch_13">
    <path d="M 128.858921 307.584 
L 134.361541 307.584 
L 134.361541 305.598312 
L 128.858921 305.598312 
z
" clip-path="url(#pe6195c407a)" style="fill: #1f77b4; opacity: 0.5"/>
   </g>
   <g id="patch_14">
    <path d="M 134.361541 307.584 
L 139.86416 307.584 
L 139.86416 305.201174 
L 134.361541 305.201174 
z
" clip-path="url(#pe6195c407a)" style="fill: #1f77b4; opacity: 0.5"/>
   </g>
   <g id="patch_15">
    <path d="M 139.86416 307.584 
L 145.36678 307.584 
L 145.36678 305.168079 
L 139.86416 305.168079 
z
" clip-path="url(#pe6195c407a)" style="fill: #1f77b4; opacity: 0.5"/>
   </g>
   <g id="patch_16">
    <path d="M 145.36678 307.584 
L 150.869399 307.584 
L 150.869399 304.042856 
L 145.36678 304.042856 
z
" clip-path="url(#pe6195c407a)" style="fill: #1f77b4; opacity: 0.5"/>
   </g>
   <g id="patch_17">
    <path d="M 150.869399 307.584 
L 156.372018 307.584 
L 156.372018 304.473089 
L 150.869399 304.473089 
z
" clip-path="url(#pe6195c407a)" style="fill: #1f77b4; opacity: 0.5"/>
   </g>
   <g id="patch_18">
    <path d="M 156.372018 307.584 
L 161.874638 307.584 
L 161.874638 304.969511 
L 156.372018 304.969511 
z
" clip-path="url(#pe6195c407a)" style="fill: #1f77b4; opacity: 0.5"/>
   </g>
   <g id="patch_19">
    <path d="M 161.874638 307.584 
L 167.377257 307.584 
L 167.377257 304.042856 
L 161.874638 304.042856 
z
" clip-path="url(#pe6195c407a)" style="fill: #1f77b4; opacity: 0.5"/>
   </g>
   <g id="patch_20">
    <path d="M 167.377257 307.584 
L 172.879877 307.584 
L 172.879877 303.579529 
L 167.377257 303.579529 
z
" clip-path="url(#pe6195c407a)" style="fill: #1f77b4; opacity: 0.5"/>
   </g>
   <g id="patch_21">
    <path d="M 172.879877 307.584 
L 178.382496 307.584 
L 178.382496 303.579529 
L 172.879877 303.579529 
z
" clip-path="url(#pe6195c407a)" style="fill: #1f77b4; opacity: 0.5"/>
   </g>
   <g id="patch_22">
    <path d="M 178.382496 307.584 
L 183.885116 307.584 
L 183.885116 302.388116 
L 178.382496 302.388116 
z
" clip-path="url(#pe6195c407a)" style="fill: #1f77b4; opacity: 0.5"/>
   </g>
   <g id="patch_23">
    <path d="M 183.885116 307.584 
L 189.387735 307.584 
L 189.387735 301.560746 
L 183.885116 301.560746 
z
" clip-path="url(#pe6195c407a)" style="fill: #1f77b4; opacity: 0.5"/>
   </g>
   <g id="patch_24">
    <path d="M 189.387735 307.584 
L 194.890354 307.584 
L 194.890354 300.799565 
L 189.387735 300.799565 
z
" clip-path="url(#pe6195c407a)" style="fill: #1f77b4; opacity: 0.5"/>
   </g>
   <g id="patch_25">
    <path d="M 194.890354 307.584 
L 200.392974 307.584 
L 200.392974 299.045541 
L 194.890354 299.045541 
z
" clip-path="url(#pe6195c407a)" style="fill: #1f77b4; opacity: 0.5"/>
   </g>
   <g id="patch_26">
    <path d="M 200.392974 307.584 
L 205.895593 307.584 
L 205.895593 296.199388 
L 200.392974 296.199388 
z
" clip-path="url(#pe6195c407a)" style="fill: #1f77b4; opacity: 0.5"/>
   </g>
   <g id="patch_27">
    <path d="M 205.895593 307.584 
L 211.398213 307.584 
L 211.398213 294.114415 
L 205.895593 294.114415 
z
" clip-path="url(#pe6195c407a)" style="fill: #1f77b4; opacity: 0.5"/>
   </g>
   <g id="patch_28">
    <path d="M 211.398213 307.584 
L 216.900832 307.584 
L 216.900832 290.01066 
L 211.398213 290.01066 
z
" clip-path="url(#pe6195c407a)" style="fill: #1f77b4; opacity: 0.5"/>
   </g>
   <g id="patch_29">
    <path d="M 216.900832 307.584 
L 222.403451 307.584 
L 222.403451 287.46236 
L 216.900832 287.46236 
z
" clip-path="url(#pe6195c407a)" style="fill: #1f77b4; opacity: 0.5"/>
   </g>
   <g id="patch_30">
    <path d="M 222.403451 307.584 
L 227.906071 307.584 
L 227.906071 282.829087 
L 222.403451 282.829087 
z
" clip-path="url(#pe6195c407a)" style="fill: #1f77b4; opacity: 0.5"/>
   </g>
   <g id="patch_31">
    <path d="M 227.906071 307.584 
L 233.40869 307.584 
L 233.40869 280.346977 
L 227.906071 280.346977 
z
" clip-path="url(#pe6195c407a)" style="fill: #1f77b4; opacity: 0.5"/>
   </g>
   <g id="patch_32">
    <path d="M 233.40869 307.584 
L 238.91131 307.584 
L 238.91131 277.600109 
L 233.40869 277.600109 
z
" clip-path="url(#pe6195c407a)" style="fill: #1f77b4; opacity: 0.5"/>
   </g>
   <g id="patch_33">
    <path d="M 238.91131 307.584 
L 244.413929 307.584 
L 244.413929 271.279001 
L 238.91131 271.279001 
z
" clip-path="url(#pe6195c407a)" style="fill: #1f77b4; opacity: 0.5"/>
   </g>
   <g id="patch_34">
    <path d="M 244.413929 307.584 
L 249.916549 307.584 
L 249.916549 268.99546 
L 244.413929 268.99546 
z
" clip-path="url(#pe6195c407a)" style="fill: #1f77b4; opacity: 0.5"/>
   </g>
   <g id="patch_35">
    <path d="M 249.916549 307.584 
L 255.419168 307.584 
L 255.419168 261.085802 
L 249.916549 261.085802 
z
" clip-path="url(#pe6195c407a)" style="fill: #1f77b4; opacity: 0.5"/>
   </g>
   <g id="patch_36">
    <path d="M 255.419168 307.584 
L 260.921787 307.584 
L 260.921787 255.923013 
L 255.419168 255.923013 
z
" clip-path="url(#pe6195c407a)" style="fill: #1f77b4; opacity: 0.5"/>
   </g>
   <g id="patch_37">
    <path d="M 260.921787 307.584 
L 266.424407 307.584 
L 266.424407 246.888132 
L 260.921787 246.888132 
z
" clip-path="url(#pe6195c407a)" style="fill: #1f77b4; opacity: 0.5"/>
   </g>
   <g id="patch_38">
    <path d="M 266.424407 307.584 
L 271.927026 307.584 
L 271.927026 242.585807 
L 266.424407 242.585807 
z
" clip-path="url(#pe6195c407a)" style="fill: #1f77b4; opacity: 0.5"/>
   </g>
   <g id="patch_39">
    <path d="M 271.927026 307.584 
L 277.429646 307.584 
L 277.429646 233.584021 
L 271.927026 233.584021 
z
" clip-path="url(#pe6195c407a)" style="fill: #1f77b4; opacity: 0.5"/>
   </g>
   <g id="patch_40">
    <path d="M 277.429646 307.584 
L 282.932265 307.584 
L 282.932265 227.494577 
L 277.429646 227.494577 
z
" clip-path="url(#pe6195c407a)" style="fill: #1f77b4; opacity: 0.5"/>
   </g>
   <g id="patch_41">
    <path d="M 282.932265 307.584 
L 288.434884 307.584 
L 288.434884 222.265598 
L 282.932265 222.265598 
z
" clip-path="url(#pe6195c407a)" style="fill: #1f77b4; opacity: 0.5"/>
   </g>
   <g id="patch_42">
    <path d="M 288.434884 307.584 
L 293.937504 307.584 
L 293.937504 211.211934 
L 288.434884 211.211934 
z
" clip-path="url(#pe6195c407a)" style="fill: #1f77b4; opacity: 0.5"/>
   </g>
   <g id="patch_43">
    <path d="M 293.937504 307.584 
L 299.440123 307.584 
L 299.440123 205.519628 
L 293.937504 205.519628 
z
" clip-path="url(#pe6195c407a)" style="fill: #1f77b4; opacity: 0.5"/>
   </g>
   <g id="patch_44">
    <path d="M 299.440123 307.584 
L 304.942743 307.584 
L 304.942743 197.014264 
L 299.440123 197.014264 
z
" clip-path="url(#pe6195c407a)" style="fill: #1f77b4; opacity: 0.5"/>
   </g>
   <g id="patch_45">
    <path d="M 304.942743 307.584 
L 310.445362 307.584 
L 310.445362 190.593872 
L 304.942743 190.593872 
z
" clip-path="url(#pe6195c407a)" style="fill: #1f77b4; opacity: 0.5"/>
   </g>
   <g id="patch_46">
    <path d="M 310.445362 307.584 
L 315.947982 307.584 
L 315.947982 182.485645 
L 310.445362 182.485645 
z
" clip-path="url(#pe6195c407a)" style="fill: #1f77b4; opacity: 0.5"/>
   </g>
   <g id="patch_47">
    <path d="M 315.947982 307.584 
L 321.450601 307.584 
L 321.450601 170.703896 
L 315.947982 170.703896 
z
" clip-path="url(#pe6195c407a)" style="fill: #1f77b4; opacity: 0.5"/>
   </g>
   <g id="patch_48">
    <path d="M 321.450601 307.584 
L 326.95322 307.584 
L 326.95322 162.099247 
L 321.450601 162.099247 
z
" clip-path="url(#pe6195c407a)" style="fill: #1f77b4; opacity: 0.5"/>
   </g>
   <g id="patch_49">
    <path d="M 326.95322 307.584 
L 332.45584 307.584 
L 332.45584 139.66097 
L 326.95322 139.66097 
z
" clip-path="url(#pe6195c407a)" style="fill: #1f77b4; opacity: 0.5"/>
   </g>
   <g id="patch_50">
    <path d="M 332.45584 307.584 
L 337.958459 307.584 
L 337.958459 122.617147 
L 332.45584 122.617147 
z
" clip-path="url(#pe6195c407a)" style="fill: #1f77b4; opacity: 0.5"/>
   </g>
   <g id="patch_51">
    <path d="M 337.958459 307.584 
L 343.461079 307.584 
L 343.461079 107.625201 
L 337.958459 107.625201 
z
" clip-path="url(#pe6195c407a)" style="fill: #1f77b4; opacity: 0.5"/>
   </g>
   <g id="patch_52">
    <path d="M 343.461079 307.584 
L 348.963698 307.584 
L 348.963698 85.881916 
L 343.461079 85.881916 
z
" clip-path="url(#pe6195c407a)" style="fill: #1f77b4; opacity: 0.5"/>
   </g>
   <g id="patch_53">
    <path d="M 348.963698 307.584 
L 354.466317 307.584 
L 354.466317 72.180668 
L 348.963698 72.180668 
z
" clip-path="url(#pe6195c407a)" style="fill: #1f77b4; opacity: 0.5"/>
   </g>
   <g id="patch_54">
    <path d="M 354.466317 307.584 
L 359.968937 307.584 
L 359.968937 67.448111 
L 354.466317 67.448111 
z
" clip-path="url(#pe6195c407a)" style="fill: #1f77b4; opacity: 0.5"/>
   </g>
   <g id="patch_55">
    <path d="M 359.968937 307.584 
L 365.471556 307.584 
L 365.471556 71.154729 
L 359.968937 71.154729 
z
" clip-path="url(#pe6195c407a)" style="fill: #1f77b4; opacity: 0.5"/>
   </g>
   <g id="patch_56">
    <path d="M 365.471556 307.584 
L 370.974176 307.584 
L 370.974176 79.461524 
L 365.471556 79.461524 
z
" clip-path="url(#pe6195c407a)" style="fill: #1f77b4; opacity: 0.5"/>
   </g>
   <g id="patch_57">
    <path d="M 370.974176 307.584 
L 376.476795 307.584 
L 376.476795 104.580479 
L 370.974176 104.580479 
z
" clip-path="url(#pe6195c407a)" style="fill: #1f77b4; opacity: 0.5"/>
   </g>
   <g id="patch_58">
    <path d="M 376.476795 307.584 
L 381.979414 307.584 
L 381.979414 148.331809 
L 376.476795 148.331809 
z
" clip-path="url(#pe6195c407a)" style="fill: #1f77b4; opacity: 0.5"/>
   </g>
   <g id="patch_59">
    <path d="M 381.979414 307.584 
L 387.482034 307.584 
L 387.482034 198.768288 
L 381.979414 198.768288 
z
" clip-path="url(#pe6195c407a)" style="fill: #1f77b4; opacity: 0.5"/>
   </g>
   <g id="patch_60">
    <path d="M 387.482034 307.584 
L 392.984653 307.584 
L 392.984653 242.519618 
L 387.482034 242.519618 
z
" clip-path="url(#pe6195c407a)" style="fill: #1f77b4; opacity: 0.5"/>
   </g>
   <g id="patch_61">
    <path d="M 392.984653 307.584 
L 398.487273 307.584 
L 398.487273 286.535705 
L 392.984653 286.535705 
z
" clip-path="url(#pe6195c407a)" style="fill: #1f77b4; opacity: 0.5"/>
   </g>
   <g id="patch_62">
    <path d="M 73.832727 307.584 
L 79.335347 307.584 
L 79.335347 307.484716 
L 73.832727 307.484716 
z
" clip-path="url(#pe6195c407a)" style="fill: #ff7f0e; opacity: 0.5"/>
   </g>
   <g id="patch_63">
    <path d="M 79.335347 307.584 
L 84.837966 307.584 
L 84.837966 307.550905 
L 79.335347 307.550905 
z
" clip-path="url(#pe6195c407a)" style="fill: #ff7f0e; opacity: 0.5"/>
   </g>
   <g id="patch_64">
    <path d="M 84.837966 307.584 
L 90.340586 307.584 
L 90.340586 307.550905 
L 84.837966 307.550905 
z
" clip-path="url(#pe6195c407a)" style="fill: #ff7f0e; opacity: 0.5"/>
   </g>
   <g id="patch_65">
    <path d="M 90.340586 307.584 
L 95.843205 307.584 
L 95.843205 307.550905 
L 90.340586 307.550905 
z
" clip-path="url(#pe6195c407a)" style="fill: #ff7f0e; opacity: 0.5"/>
   </g>
   <g id="patch_66">
    <path d="M 95.843205 307.584 
L 101.345824 307.584 
L 101.345824 307.51781 
L 95.843205 307.51781 
z
" clip-path="url(#pe6195c407a)" style="fill: #ff7f0e; opacity: 0.5"/>
   </g>
   <g id="patch_67">
    <path d="M 101.345824 307.584 
L 106.848444 307.584 
L 106.848444 307.319242 
L 101.345824 307.319242 
z
" clip-path="url(#pe6195c407a)" style="fill: #ff7f0e; opacity: 0.5"/>
   </g>
   <g id="patch_68">
    <path d="M 106.848444 307.584 
L 112.351063 307.584 
L 112.351063 307.286147 
L 106.848444 307.286147 
z
" clip-path="url(#pe6195c407a)" style="fill: #ff7f0e; opacity: 0.5"/>
   </g>
   <g id="patch_69">
    <path d="M 112.351063 307.584 
L 117.853683 307.584 
L 117.853683 306.657346 
L 112.351063 306.657346 
z
" clip-path="url(#pe6195c407a)" style="fill: #ff7f0e; opacity: 0.5"/>
   </g>
   <g id="patch_70">
    <path d="M 117.853683 307.584 
L 123.356302 307.584 
L 123.356302 306.425682 
L 117.853683 306.425682 
z
" clip-path="url(#pe6195c407a)" style="fill: #ff7f0e; opacity: 0.5"/>
   </g>
   <g id="patch_71">
    <path d="M 123.356302 307.584 
L 128.858921 307.584 
L 128.858921 306.260208 
L 123.356302 306.260208 
z
" clip-path="url(#pe6195c407a)" style="fill: #ff7f0e; opacity: 0.5"/>
   </g>
   <g id="patch_72">
    <path d="M 128.858921 307.584 
L 134.361541 307.584 
L 134.361541 306.028544 
L 128.858921 306.028544 
z
" clip-path="url(#pe6195c407a)" style="fill: #ff7f0e; opacity: 0.5"/>
   </g>
   <g id="patch_73">
    <path d="M 134.361541 307.584 
L 139.86416 307.584 
L 139.86416 305.300459 
L 134.361541 305.300459 
z
" clip-path="url(#pe6195c407a)" style="fill: #ff7f0e; opacity: 0.5"/>
   </g>
   <g id="patch_74">
    <path d="M 139.86416 307.584 
L 145.36678 307.584 
L 145.36678 305.631407 
L 139.86416 305.631407 
z
" clip-path="url(#pe6195c407a)" style="fill: #ff7f0e; opacity: 0.5"/>
   </g>
   <g id="patch_75">
    <path d="M 145.36678 307.584 
L 150.869399 307.584 
L 150.869399 304.903321 
L 145.36678 304.903321 
z
" clip-path="url(#pe6195c407a)" style="fill: #ff7f0e; opacity: 0.5"/>
   </g>
   <g id="patch_76">
    <path d="M 150.869399 307.584 
L 156.372018 307.584 
L 156.372018 305.300459 
L 150.869399 305.300459 
z
" clip-path="url(#pe6195c407a)" style="fill: #ff7f0e; opacity: 0.5"/>
   </g>
   <g id="patch_77">
    <path d="M 156.372018 307.584 
L 161.874638 307.584 
L 161.874638 304.770942 
L 156.372018 304.770942 
z
" clip-path="url(#pe6195c407a)" style="fill: #ff7f0e; opacity: 0.5"/>
   </g>
   <g id="patch_78">
    <path d="M 161.874638 307.584 
L 167.377257 307.584 
L 167.377257 304.406899 
L 161.874638 304.406899 
z
" clip-path="url(#pe6195c407a)" style="fill: #ff7f0e; opacity: 0.5"/>
   </g>
   <g id="patch_79">
    <path d="M 167.377257 307.584 
L 172.879877 307.584 
L 172.879877 303.612624 
L 167.377257 303.612624 
z
" clip-path="url(#pe6195c407a)" style="fill: #ff7f0e; opacity: 0.5"/>
   </g>
   <g id="patch_80">
    <path d="M 172.879877 307.584 
L 178.382496 307.584 
L 178.382496 303.480244 
L 172.879877 303.480244 
z
" clip-path="url(#pe6195c407a)" style="fill: #ff7f0e; opacity: 0.5"/>
   </g>
   <g id="patch_81">
    <path d="M 178.382496 307.584 
L 183.885116 307.584 
L 183.885116 302.388116 
L 178.382496 302.388116 
z
" clip-path="url(#pe6195c407a)" style="fill: #ff7f0e; opacity: 0.5"/>
   </g>
   <g id="patch_82">
    <path d="M 183.885116 307.584 
L 189.387735 307.584 
L 189.387735 302.454306 
L 183.885116 302.454306 
z
" clip-path="url(#pe6195c407a)" style="fill: #ff7f0e; opacity: 0.5"/>
   </g>
   <g id="patch_83">
    <path d="M 189.387735 307.584 
L 194.890354 307.584 
L 194.890354 301.957884 
L 189.387735 301.957884 
z
" clip-path="url(#pe6195c407a)" style="fill: #ff7f0e; opacity: 0.5"/>
   </g>
   <g id="patch_84">
    <path d="M 194.890354 307.584 
L 200.392974 307.584 
L 200.392974 301.295987 
L 194.890354 301.295987 
z
" clip-path="url(#pe6195c407a)" style="fill: #ff7f0e; opacity: 0.5"/>
   </g>
   <g id="patch_85">
    <path d="M 200.392974 307.584 
L 205.895593 307.584 
L 205.895593 299.045541 
L 200.392974 299.045541 
z
" clip-path="url(#pe6195c407a)" style="fill: #ff7f0e; opacity: 0.5"/>
   </g>
   <g id="patch_86">
    <path d="M 205.895593 307.584 
L 211.398213 307.584 
L 211.398213 299.475773 
L 205.895593 299.475773 
z
" clip-path="url(#pe6195c407a)" style="fill: #ff7f0e; opacity: 0.5"/>
   </g>
   <g id="patch_87">
    <path d="M 211.398213 307.584 
L 216.900832 307.584 
L 216.900832 295.504397 
L 211.398213 295.504397 
z
" clip-path="url(#pe6195c407a)" style="fill: #ff7f0e; opacity: 0.5"/>
   </g>
   <g id="patch_88">
    <path d="M 216.900832 307.584 
L 222.403451 307.584 
L 222.403451 292.823718 
L 216.900832 292.823718 
z
" clip-path="url(#pe6195c407a)" style="fill: #ff7f0e; opacity: 0.5"/>
   </g>
   <g id="patch_89">
    <path d="M 222.403451 307.584 
L 227.906071 307.584 
L 227.906071 288.22354 
L 222.403451 288.22354 
z
" clip-path="url(#pe6195c407a)" style="fill: #ff7f0e; opacity: 0.5"/>
   </g>
   <g id="patch_90">
    <path d="M 227.906071 307.584 
L 233.40869 307.584 
L 233.40869 286.5688 
L 227.906071 286.5688 
z
" clip-path="url(#pe6195c407a)" style="fill: #ff7f0e; opacity: 0.5"/>
   </g>
   <g id="patch_91">
    <path d="M 233.40869 307.584 
L 238.91131 307.584 
L 238.91131 284.682396 
L 233.40869 284.682396 
z
" clip-path="url(#pe6195c407a)" style="fill: #ff7f0e; opacity: 0.5"/>
   </g>
   <g id="patch_92">
    <path d="M 238.91131 307.584 
L 244.413929 307.584 
L 244.413929 277.964151 
L 238.91131 277.964151 
z
" clip-path="url(#pe6195c407a)" style="fill: #ff7f0e; opacity: 0.5"/>
   </g>
   <g id="patch_93">
    <path d="M 244.413929 307.584 
L 249.916549 307.584 
L 249.916549 274.985619 
L 244.413929 274.985619 
z
" clip-path="url(#pe6195c407a)" style="fill: #ff7f0e; opacity: 0.5"/>
   </g>
   <g id="patch_94">
    <path d="M 249.916549 307.584 
L 255.419168 307.584 
L 255.419168 269.657356 
L 249.916549 269.657356 
z
" clip-path="url(#pe6195c407a)" style="fill: #ff7f0e; opacity: 0.5"/>
   </g>
   <g id="patch_95">
    <path d="M 255.419168 307.584 
L 260.921787 307.584 
L 260.921787 264.660041 
L 255.419168 264.660041 
z
" clip-path="url(#pe6195c407a)" style="fill: #ff7f0e; opacity: 0.5"/>
   </g>
   <g id="patch_96">
    <path d="M 260.921787 307.584 
L 266.424407 307.584 
L 266.424407 256.287056 
L 260.921787 256.287056 
z
" clip-path="url(#pe6195c407a)" style="fill: #ff7f0e; opacity: 0.5"/>
   </g>
   <g id="patch_97">
    <path d="M 266.424407 307.584 
L 271.927026 307.584 
L 271.927026 249.204768 
L 266.424407 249.204768 
z
" clip-path="url(#pe6195c407a)" style="fill: #ff7f0e; opacity: 0.5"/>
   </g>
   <g id="patch_98">
    <path d="M 271.927026 307.584 
L 277.429646 307.584 
L 277.429646 242.089385 
L 271.927026 242.089385 
z
" clip-path="url(#pe6195c407a)" style="fill: #ff7f0e; opacity: 0.5"/>
   </g>
   <g id="patch_99">
    <path d="M 277.429646 307.584 
L 282.932265 307.584 
L 282.932265 237.820156 
L 277.429646 237.820156 
z
" clip-path="url(#pe6195c407a)" style="fill: #ff7f0e; opacity: 0.5"/>
   </g>
   <g id="patch_100">
    <path d="M 282.932265 307.584 
L 288.434884 307.584 
L 288.434884 233.054504 
L 282.932265 233.054504 
z
" clip-path="url(#pe6195c407a)" style="fill: #ff7f0e; opacity: 0.5"/>
   </g>
   <g id="patch_101">
    <path d="M 288.434884 307.584 
L 293.937504 307.584 
L 293.937504 225.608173 
L 288.434884 225.608173 
z
" clip-path="url(#pe6195c407a)" style="fill: #ff7f0e; opacity: 0.5"/>
   </g>
   <g id="patch_102">
    <path d="M 293.937504 307.584 
L 299.440123 307.584 
L 299.440123 218.923023 
L 293.937504 218.923023 
z
" clip-path="url(#pe6195c407a)" style="fill: #ff7f0e; opacity: 0.5"/>
   </g>
   <g id="patch_103">
    <path d="M 299.440123 307.584 
L 304.942743 307.584 
L 304.942743 215.878301 
L 299.440123 215.878301 
z
" clip-path="url(#pe6195c407a)" style="fill: #ff7f0e; opacity: 0.5"/>
   </g>
   <g id="patch_104">
    <path d="M 304.942743 307.584 
L 310.445362 307.584 
L 310.445362 205.221775 
L 304.942743 205.221775 
z
" clip-path="url(#pe6195c407a)" style="fill: #ff7f0e; opacity: 0.5"/>
   </g>
   <g id="patch_105">
    <path d="M 310.445362 307.584 
L 315.947982 307.584 
L 315.947982 202.474906 
L 310.445362 202.474906 
z
" clip-path="url(#pe6195c407a)" style="fill: #ff7f0e; opacity: 0.5"/>
   </g>
   <g id="patch_106">
    <path d="M 315.947982 307.584 
L 321.450601 307.584 
L 321.450601 198.43734 
L 315.947982 198.43734 
z
" clip-path="url(#pe6195c407a)" style="fill: #ff7f0e; opacity: 0.5"/>
   </g>
   <g id="patch_107">
    <path d="M 321.450601 307.584 
L 326.95322 307.584 
L 326.95322 186.78797 
L 321.450601 186.78797 
z
" clip-path="url(#pe6195c407a)" style="fill: #ff7f0e; opacity: 0.5"/>
   </g>
   <g id="patch_108">
    <path d="M 326.95322 307.584 
L 332.45584 307.584 
L 332.45584 170.703896 
L 326.95322 170.703896 
z
" clip-path="url(#pe6195c407a)" style="fill: #ff7f0e; opacity: 0.5"/>
   </g>
   <g id="patch_109">
    <path d="M 332.45584 307.584 
L 337.958459 307.584 
L 337.958459 154.851485 
L 332.45584 154.851485 
z
" clip-path="url(#pe6195c407a)" style="fill: #ff7f0e; opacity: 0.5"/>
   </g>
   <g id="patch_110">
    <path d="M 337.958459 307.584 
L 343.461079 307.584 
L 343.461079 136.682438 
L 337.958459 136.682438 
z
" clip-path="url(#pe6195c407a)" style="fill: #ff7f0e; opacity: 0.5"/>
   </g>
   <g id="patch_111">
    <path d="M 343.461079 307.584 
L 348.963698 307.584 
L 348.963698 114.475826 
L 343.461079 114.475826 
z
" clip-path="url(#pe6195c407a)" style="fill: #ff7f0e; opacity: 0.5"/>
   </g>
   <g id="patch_112">
    <path d="M 348.963698 307.584 
L 354.466317 307.584 
L 354.466317 101.237904 
L 348.963698 101.237904 
z
" clip-path="url(#pe6195c407a)" style="fill: #ff7f0e; opacity: 0.5"/>
   </g>
   <g id="patch_113">
    <path d="M 354.466317 307.584 
L 359.968937 307.584 
L 359.968937 76.019665 
L 354.466317 76.019665 
z
" clip-path="url(#pe6195c407a)" style="fill: #ff7f0e; opacity: 0.5"/>
   </g>
   <g id="patch_114">
    <path d="M 359.968937 307.584 
L 365.471556 307.584 
L 365.471556 65.528612 
L 359.968937 65.528612 
z
" clip-path="url(#pe6195c407a)" style="fill: #ff7f0e; opacity: 0.5"/>
   </g>
   <g id="patch_115">
    <path d="M 365.471556 307.584 
L 370.974176 307.584 
L 370.974176 56.957058 
L 365.471556 56.957058 
z
" clip-path="url(#pe6195c407a)" style="fill: #ff7f0e; opacity: 0.5"/>
   </g>
   <g id="patch_116">
    <path d="M 370.974176 307.584 
L 376.476795 307.584 
L 376.476795 54.144 
L 370.974176 54.144 
z
" clip-path="url(#pe6195c407a)" style="fill: #ff7f0e; opacity: 0.5"/>
   </g>
   <g id="patch_117">
    <path d="M 376.476795 307.584 
L 381.979414 307.584 
L 381.979414 66.355982 
L 376.476795 66.355982 
z
" clip-path="url(#pe6195c407a)" style="fill: #ff7f0e; opacity: 0.5"/>
   </g>
   <g id="patch_118">
    <path d="M 381.979414 307.584 
L 387.482034 307.584 
L 387.482034 94.056332 
L 381.979414 94.056332 
z
" clip-path="url(#pe6195c407a)" style="fill: #ff7f0e; opacity: 0.5"/>
   </g>
   <g id="patch_119">
    <path d="M 387.482034 307.584 
L 392.984653 307.584 
L 392.984653 147.835387 
L 387.482034 147.835387 
z
" clip-path="url(#pe6195c407a)" style="fill: #ff7f0e; opacity: 0.5"/>
   </g>
   <g id="patch_120">
    <path d="M 392.984653 307.584 
L 398.487273 307.584 
L 398.487273 229.57955 
L 392.984653 229.57955 
z
" clip-path="url(#pe6195c407a)" style="fill: #ff7f0e; opacity: 0.5"/>
   </g>
   <g id="patch_121">
    <path d="M 73.832727 307.584 
L 79.335347 307.584 
L 79.335347 307.021388 
L 73.832727 307.021388 
z
" clip-path="url(#pe6195c407a)" style="fill: #2ca02c; opacity: 0.5"/>
   </g>
   <g id="patch_122">
    <path d="M 79.335347 307.584 
L 84.837966 307.584 
L 84.837966 306.359492 
L 79.335347 306.359492 
z
" clip-path="url(#pe6195c407a)" style="fill: #2ca02c; opacity: 0.5"/>
   </g>
   <g id="patch_123">
    <path d="M 84.837966 307.584 
L 90.340586 307.584 
L 90.340586 305.86307 
L 84.837966 305.86307 
z
" clip-path="url(#pe6195c407a)" style="fill: #2ca02c; opacity: 0.5"/>
   </g>
   <g id="patch_124">
    <path d="M 90.340586 307.584 
L 95.843205 307.584 
L 95.843205 303.745003 
L 90.340586 303.745003 
z
" clip-path="url(#pe6195c407a)" style="fill: #2ca02c; opacity: 0.5"/>
   </g>
   <g id="patch_125">
    <path d="M 95.843205 307.584 
L 101.345824 307.584 
L 101.345824 301.759315 
L 95.843205 301.759315 
z
" clip-path="url(#pe6195c407a)" style="fill: #2ca02c; opacity: 0.5"/>
   </g>
   <g id="patch_126">
    <path d="M 101.345824 307.584 
L 106.848444 307.584 
L 106.848444 297.52318 
L 101.345824 297.52318 
z
" clip-path="url(#pe6195c407a)" style="fill: #2ca02c; opacity: 0.5"/>
   </g>
   <g id="patch_127">
    <path d="M 106.848444 307.584 
L 112.351063 307.584 
L 112.351063 294.346079 
L 106.848444 294.346079 
z
" clip-path="url(#pe6195c407a)" style="fill: #2ca02c; opacity: 0.5"/>
   </g>
   <g id="patch_128">
    <path d="M 112.351063 307.584 
L 117.853683 307.584 
L 117.853683 287.660929 
L 112.351063 287.660929 
z
" clip-path="url(#pe6195c407a)" style="fill: #2ca02c; opacity: 0.5"/>
   </g>
   <g id="patch_129">
    <path d="M 117.853683 307.584 
L 123.356302 307.584 
L 123.356302 280.909589 
L 117.853683 280.909589 
z
" clip-path="url(#pe6195c407a)" style="fill: #2ca02c; opacity: 0.5"/>
   </g>
   <g id="patch_130">
    <path d="M 123.356302 307.584 
L 128.858921 307.584 
L 128.858921 266.281686 
L 123.356302 266.281686 
z
" clip-path="url(#pe6195c407a)" style="fill: #2ca02c; opacity: 0.5"/>
   </g>
   <g id="patch_131">
    <path d="M 128.858921 307.584 
L 134.361541 307.584 
L 134.361541 253.672566 
L 128.858921 253.672566 
z
" clip-path="url(#pe6195c407a)" style="fill: #2ca02c; opacity: 0.5"/>
   </g>
   <g id="patch_132">
    <path d="M 134.361541 307.584 
L 139.86416 307.584 
L 139.86416 236.628743 
L 134.361541 236.628743 
z
" clip-path="url(#pe6195c407a)" style="fill: #2ca02c; opacity: 0.5"/>
   </g>
   <g id="patch_133">
    <path d="M 139.86416 307.584 
L 145.36678 307.584 
L 145.36678 217.996369 
L 139.86416 217.996369 
z
" clip-path="url(#pe6195c407a)" style="fill: #2ca02c; opacity: 0.5"/>
   </g>
   <g id="patch_134">
    <path d="M 145.36678 307.584 
L 150.869399 307.584 
L 150.869399 198.43734 
L 145.36678 198.43734 
z
" clip-path="url(#pe6195c407a)" style="fill: #2ca02c; opacity: 0.5"/>
   </g>
   <g id="patch_135">
    <path d="M 150.869399 307.584 
L 156.372018 307.584 
L 156.372018 184.338954 
L 150.869399 184.338954 
z
" clip-path="url(#pe6195c407a)" style="fill: #2ca02c; opacity: 0.5"/>
   </g>
   <g id="patch_136">
    <path d="M 156.372018 307.584 
L 161.874638 307.584 
L 161.874638 162.132342 
L 156.372018 162.132342 
z
" clip-path="url(#pe6195c407a)" style="fill: #2ca02c; opacity: 0.5"/>
   </g>
   <g id="patch_137">
    <path d="M 161.874638 307.584 
L 167.377257 307.584 
L 167.377257 146.610879 
L 161.874638 146.610879 
z
" clip-path="url(#pe6195c407a)" style="fill: #2ca02c; opacity: 0.5"/>
   </g>
   <g id="patch_138">
    <path d="M 167.377257 307.584 
L 172.879877 307.584 
L 172.879877 131.685123 
L 167.377257 131.685123 
z
" clip-path="url(#pe6195c407a)" style="fill: #2ca02c; opacity: 0.5"/>
   </g>
   <g id="patch_139">
    <path d="M 172.879877 307.584 
L 178.382496 307.584 
L 178.382496 120.135037 
L 172.879877 120.135037 
z
" clip-path="url(#pe6195c407a)" style="fill: #2ca02c; opacity: 0.5"/>
   </g>
   <g id="patch_140">
    <path d="M 178.382496 307.584 
L 183.885116 307.584 
L 183.885116 108.684235 
L 178.382496 108.684235 
z
" clip-path="url(#pe6195c407a)" style="fill: #2ca02c; opacity: 0.5"/>
   </g>
   <g id="patch_141">
    <path d="M 183.885116 307.584 
L 189.387735 307.584 
L 189.387735 104.415005 
L 183.885116 104.415005 
z
" clip-path="url(#pe6195c407a)" style="fill: #2ca02c; opacity: 0.5"/>
   </g>
   <g id="patch_142">
    <path d="M 189.387735 307.584 
L 194.890354 307.584 
L 194.890354 98.623415 
L 189.387735 98.623415 
z
" clip-path="url(#pe6195c407a)" style="fill: #2ca02c; opacity: 0.5"/>
   </g>
   <g id="patch_143">
    <path d="M 194.890354 307.584 
L 200.392974 307.584 
L 200.392974 102.627886 
L 194.890354 102.627886 
z
" clip-path="url(#pe6195c407a)" style="fill: #2ca02c; opacity: 0.5"/>
   </g>
   <g id="patch_144">
    <path d="M 200.392974 307.584 
L 205.895593 307.584 
L 205.895593 107.989244 
L 200.392974 107.989244 
z
" clip-path="url(#pe6195c407a)" style="fill: #2ca02c; opacity: 0.5"/>
   </g>
   <g id="patch_145">
    <path d="M 205.895593 307.584 
L 211.398213 307.584 
L 211.398213 116.693177 
L 205.895593 116.693177 
z
" clip-path="url(#pe6195c407a)" style="fill: #2ca02c; opacity: 0.5"/>
   </g>
   <g id="patch_146">
    <path d="M 211.398213 307.584 
L 216.900832 307.584 
L 216.900832 121.657398 
L 211.398213 121.657398 
z
" clip-path="url(#pe6195c407a)" style="fill: #2ca02c; opacity: 0.5"/>
   </g>
   <g id="patch_147">
    <path d="M 216.900832 307.584 
L 222.403451 307.584 
L 222.403451 129.434676 
L 216.900832 129.434676 
z
" clip-path="url(#pe6195c407a)" style="fill: #2ca02c; opacity: 0.5"/>
   </g>
   <g id="patch_148">
    <path d="M 222.403451 307.584 
L 227.906071 307.584 
L 227.906071 144.923044 
L 222.403451 144.923044 
z
" clip-path="url(#pe6195c407a)" style="fill: #2ca02c; opacity: 0.5"/>
   </g>
   <g id="patch_149">
    <path d="M 227.906071 307.584 
L 233.40869 307.584 
L 233.40869 168.718207 
L 227.906071 168.718207 
z
" clip-path="url(#pe6195c407a)" style="fill: #2ca02c; opacity: 0.5"/>
   </g>
   <g id="patch_150">
    <path d="M 233.40869 307.584 
L 238.91131 307.584 
L 238.91131 175.403358 
L 233.40869 175.403358 
z
" clip-path="url(#pe6195c407a)" style="fill: #2ca02c; opacity: 0.5"/>
   </g>
   <g id="patch_151">
    <path d="M 238.91131 307.584 
L 244.413929 307.584 
L 244.413929 192.380991 
L 238.91131 192.380991 
z
" clip-path="url(#pe6195c407a)" style="fill: #2ca02c; opacity: 0.5"/>
   </g>
   <g id="patch_152">
    <path d="M 244.413929 307.584 
L 249.916549 307.584 
L 249.916549 205.883671 
L 244.413929 205.883671 
z
" clip-path="url(#pe6195c407a)" style="fill: #2ca02c; opacity: 0.5"/>
   </g>
   <g id="patch_153">
    <path d="M 249.916549 307.584 
L 255.419168 307.584 
L 255.419168 217.930179 
L 249.916549 217.930179 
z
" clip-path="url(#pe6195c407a)" style="fill: #2ca02c; opacity: 0.5"/>
   </g>
   <g id="patch_154">
    <path d="M 255.419168 307.584 
L 260.921787 307.584 
L 260.921787 235.007097 
L 255.419168 235.007097 
z
" clip-path="url(#pe6195c407a)" style="fill: #2ca02c; opacity: 0.5"/>
   </g>
   <g id="patch_155">
    <path d="M 260.921787 307.584 
L 266.424407 307.584 
L 266.424407 245.43196 
L 260.921787 245.43196 
z
" clip-path="url(#pe6195c407a)" style="fill: #2ca02c; opacity: 0.5"/>
   </g>
   <g id="patch_156">
    <path d="M 266.424407 307.584 
L 271.927026 307.584 
L 271.927026 258.802261 
L 266.424407 258.802261 
z
" clip-path="url(#pe6195c407a)" style="fill: #2ca02c; opacity: 0.5"/>
   </g>
   <g id="patch_157">
    <path d="M 271.927026 307.584 
L 277.429646 307.584 
L 277.429646 269.955209 
L 271.927026 269.955209 
z
" clip-path="url(#pe6195c407a)" style="fill: #2ca02c; opacity: 0.5"/>
   </g>
   <g id="patch_158">
    <path d="M 277.429646 307.584 
L 282.932265 307.584 
L 282.932265 282.630519 
L 277.429646 282.630519 
z
" clip-path="url(#pe6195c407a)" style="fill: #2ca02c; opacity: 0.5"/>
   </g>
   <g id="patch_159">
    <path d="M 282.932265 307.584 
L 288.434884 307.584 
L 288.434884 288.422109 
L 282.932265 288.422109 
z
" clip-path="url(#pe6195c407a)" style="fill: #2ca02c; opacity: 0.5"/>
   </g>
   <g id="patch_160">
    <path d="M 288.434884 307.584 
L 293.937504 307.584 
L 293.937504 294.710122 
L 288.434884 294.710122 
z
" clip-path="url(#pe6195c407a)" style="fill: #2ca02c; opacity: 0.5"/>
   </g>
   <g id="patch_161">
    <path d="M 293.937504 307.584 
L 299.440123 307.584 
L 299.440123 297.622464 
L 293.937504 297.622464 
z
" clip-path="url(#pe6195c407a)" style="fill: #2ca02c; opacity: 0.5"/>
   </g>
   <g id="patch_162">
    <path d="M 299.440123 307.584 
L 304.942743 307.584 
L 304.942743 301.329082 
L 299.440123 301.329082 
z
" clip-path="url(#pe6195c407a)" style="fill: #2ca02c; opacity: 0.5"/>
   </g>
   <g id="patch_163">
    <path d="M 304.942743 307.584 
L 310.445362 307.584 
L 310.445362 302.652874 
L 304.942743 302.652874 
z
" clip-path="url(#pe6195c407a)" style="fill: #2ca02c; opacity: 0.5"/>
   </g>
   <g id="patch_164">
    <path d="M 310.445362 307.584 
L 315.947982 307.584 
L 315.947982 304.671657 
L 310.445362 304.671657 
z
" clip-path="url(#pe6195c407a)" style="fill: #2ca02c; opacity: 0.5"/>
   </g>
   <g id="patch_165">
    <path d="M 315.947982 307.584 
L 321.450601 307.584 
L 321.450601 306.425682 
L 315.947982 306.425682 
z
" clip-path="url(#pe6195c407a)" style="fill: #2ca02c; opacity: 0.5"/>
   </g>
   <g id="patch_166">
    <path d="M 321.450601 307.584 
L 326.95322 307.584 
L 326.95322 306.75663 
L 321.450601 306.75663 
z
" clip-path="url(#pe6195c407a)" style="fill: #2ca02c; opacity: 0.5"/>
   </g>
   <g id="patch_167">
    <path d="M 326.95322 307.584 
L 332.45584 307.584 
L 332.45584 306.955199 
L 326.95322 306.955199 
z
" clip-path="url(#pe6195c407a)" style="fill: #2ca02c; opacity: 0.5"/>
   </g>
   <g id="patch_168">
    <path d="M 332.45584 307.584 
L 337.958459 307.584 
L 337.958459 307.286147 
L 332.45584 307.286147 
z
" clip-path="url(#pe6195c407a)" style="fill: #2ca02c; opacity: 0.5"/>
   </g>
   <g id="patch_169">
    <path d="M 337.958459 307.584 
L 343.461079 307.584 
L 343.461079 307.385431 
L 337.958459 307.385431 
z
" clip-path="url(#pe6195c407a)" style="fill: #2ca02c; opacity: 0.5"/>
   </g>
   <g id="patch_170">
    <path d="M 343.461079 307.584 
L 348.963698 307.584 
L 348.963698 307.584 
L 343.461079 307.584 
z
" clip-path="url(#pe6195c407a)" style="fill: #2ca02c; opacity: 0.5"/>
   </g>
   <g id="patch_171">
    <path d="M 348.963698 307.584 
L 354.466317 307.584 
L 354.466317 307.584 
L 348.963698 307.584 
z
" clip-path="url(#pe6195c407a)" style="fill: #2ca02c; opacity: 0.5"/>
   </g>
   <g id="patch_172">
    <path d="M 354.466317 307.584 
L 359.968937 307.584 
L 359.968937 307.584 
L 354.466317 307.584 
z
" clip-path="url(#pe6195c407a)" style="fill: #2ca02c; opacity: 0.5"/>
   </g>
   <g id="patch_173">
    <path d="M 359.968937 307.584 
L 365.471556 307.584 
L 365.471556 307.584 
L 359.968937 307.584 
z
" clip-path="url(#pe6195c407a)" style="fill: #2ca02c; opacity: 0.5"/>
   </g>
   <g id="patch_174">
    <path d="M 365.471556 307.584 
L 370.974176 307.584 
L 370.974176 307.584 
L 365.471556 307.584 
z
" clip-path="url(#pe6195c407a)" style="fill: #2ca02c; opacity: 0.5"/>
   </g>
   <g id="patch_175">
    <path d="M 370.974176 307.584 
L 376.476795 307.584 
L 376.476795 307.584 
L 370.974176 307.584 
z
" clip-path="url(#pe6195c407a)" style="fill: #2ca02c; opacity: 0.5"/>
   </g>
   <g id="patch_176">
    <path d="M 376.476795 307.584 
L 381.979414 307.584 
L 381.979414 307.584 
L 376.476795 307.584 
z
" clip-path="url(#pe6195c407a)" style="fill: #2ca02c; opacity: 0.5"/>
   </g>
   <g id="patch_177">
    <path d="M 381.979414 307.584 
L 387.482034 307.584 
L 387.482034 307.584 
L 381.979414 307.584 
z
" clip-path="url(#pe6195c407a)" style="fill: #2ca02c; opacity: 0.5"/>
   </g>
   <g id="patch_178">
    <path d="M 387.482034 307.584 
L 392.984653 307.584 
L 392.984653 307.584 
L 387.482034 307.584 
z
" clip-path="url(#pe6195c407a)" style="fill: #2ca02c; opacity: 0.5"/>
   </g>
   <g id="patch_179">
    <path d="M 392.984653 307.584 
L 398.487273 307.584 
L 398.487273 307.584 
L 392.984653 307.584 
z
" clip-path="url(#pe6195c407a)" style="fill: #2ca02c; opacity: 0.5"/>
   </g>
   <g id="matplotlib.axis_1">
    <g id="xtick_1">
     <g id="line2d_1">
      <defs>
       <path id="md196b60667" d="M 0 0 
L 0 3.5 
" style="stroke: #000000; stroke-width: 0.8"/>
      </defs>
      <g>
       <use xlink:href="#md196b60667" x="73.832727" y="307.584" style="stroke: #000000; stroke-width: 0.8"/>
      </g>
     </g>
     <g id="text_1">
      <!-- −0.2 -->
      <g transform="translate(61.691321 322.182437) scale(0.1 -0.1)">
       <defs>
        <path id="DejaVuSans-2212" d="M 678 2272 
L 4684 2272 
L 4684 1741 
L 678 1741 
L 678 2272 
z
" transform="scale(0.015625)"/>
        <path id="DejaVuSans-30" d="M 2034 4250 
Q 1547 4250 1301 3770 
Q 1056 3291 1056 2328 
Q 1056 1369 1301 889 
Q 1547 409 2034 409 
Q 2525 409 2770 889 
Q 3016 1369 3016 2328 
Q 3016 3291 2770 3770 
Q 2525 4250 2034 4250 
z
M 2034 4750 
Q 2819 4750 3233 4129 
Q 3647 3509 3647 2328 
Q 3647 1150 3233 529 
Q 2819 -91 2034 -91 
Q 1250 -91 836 529 
Q 422 1150 422 2328 
Q 422 3509 836 4129 
Q 1250 4750 2034 4750 
z
" transform="scale(0.015625)"/>
        <path id="DejaVuSans-2e" d="M 684 794 
L 1344 794 
L 1344 0 
L 684 0 
L 684 794 
z
" transform="scale(0.015625)"/>
        <path id="DejaVuSans-32" d="M 1228 531 
L 3431 531 
L 3431 0 
L 469 0 
L 469 531 
Q 828 903 1448 1529 
Q 2069 2156 2228 2338 
Q 2531 2678 2651 2914 
Q 2772 3150 2772 3378 
Q 2772 3750 2511 3984 
Q 2250 4219 1831 4219 
Q 1534 4219 1204 4116 
Q 875 4013 500 3803 
L 500 4441 
Q 881 4594 1212 4672 
Q 1544 4750 1819 4750 
Q 2544 4750 2975 4387 
Q 3406 4025 3406 3419 
Q 3406 3131 3298 2873 
Q 3191 2616 2906 2266 
Q 2828 2175 2409 1742 
Q 1991 1309 1228 531 
z
" transform="scale(0.015625)"/>
       </defs>
       <use xlink:href="#DejaVuSans-2212"/>
       <use xlink:href="#DejaVuSans-30" x="83.789062"/>
       <use xlink:href="#DejaVuSans-2e" x="147.412109"/>
       <use xlink:href="#DejaVuSans-32" x="179.199219"/>
      </g>
     </g>
    </g>
    <g id="xtick_2">
     <g id="line2d_2">
      <g>
       <use xlink:href="#md196b60667" x="128.858921" y="307.584" style="stroke: #000000; stroke-width: 0.8"/>
      </g>
     </g>
     <g id="text_2">
      <!-- 0.0 -->
      <g transform="translate(120.907359 322.182437) scale(0.1 -0.1)">
       <use xlink:href="#DejaVuSans-30"/>
       <use xlink:href="#DejaVuSans-2e" x="63.623047"/>
       <use xlink:href="#DejaVuSans-30" x="95.410156"/>
      </g>
     </g>
    </g>
    <g id="xtick_3">
     <g id="line2d_3">
      <g>
       <use xlink:href="#md196b60667" x="183.885116" y="307.584" style="stroke: #000000; stroke-width: 0.8"/>
      </g>
     </g>
     <g id="text_3">
      <!-- 0.2 -->
      <g transform="translate(175.933553 322.182437) scale(0.1 -0.1)">
       <use xlink:href="#DejaVuSans-30"/>
       <use xlink:href="#DejaVuSans-2e" x="63.623047"/>
       <use xlink:href="#DejaVuSans-32" x="95.410156"/>
      </g>
     </g>
    </g>
    <g id="xtick_4">
     <g id="line2d_4">
      <g>
       <use xlink:href="#md196b60667" x="238.91131" y="307.584" style="stroke: #000000; stroke-width: 0.8"/>
      </g>
     </g>
     <g id="text_4">
      <!-- 0.4 -->
      <g transform="translate(230.959747 322.182437) scale(0.1 -0.1)">
       <defs>
        <path id="DejaVuSans-34" d="M 2419 4116 
L 825 1625 
L 2419 1625 
L 2419 4116 
z
M 2253 4666 
L 3047 4666 
L 3047 1625 
L 3713 1625 
L 3713 1100 
L 3047 1100 
L 3047 0 
L 2419 0 
L 2419 1100 
L 313 1100 
L 313 1709 
L 2253 4666 
z
" transform="scale(0.015625)"/>
       </defs>
       <use xlink:href="#DejaVuSans-30"/>
       <use xlink:href="#DejaVuSans-2e" x="63.623047"/>
       <use xlink:href="#DejaVuSans-34" x="95.410156"/>
      </g>
     </g>
    </g>
    <g id="xtick_5">
     <g id="line2d_5">
      <g>
       <use xlink:href="#md196b60667" x="293.937504" y="307.584" style="stroke: #000000; stroke-width: 0.8"/>
      </g>
     </g>
     <g id="text_5">
      <!-- 0.6 -->
      <g transform="translate(285.985941 322.182437) scale(0.1 -0.1)">
       <defs>
        <path id="DejaVuSans-36" d="M 2113 2584 
Q 1688 2584 1439 2293 
Q 1191 2003 1191 1497 
Q 1191 994 1439 701 
Q 1688 409 2113 409 
Q 2538 409 2786 701 
Q 3034 994 3034 1497 
Q 3034 2003 2786 2293 
Q 2538 2584 2113 2584 
z
M 3366 4563 
L 3366 3988 
Q 3128 4100 2886 4159 
Q 2644 4219 2406 4219 
Q 1781 4219 1451 3797 
Q 1122 3375 1075 2522 
Q 1259 2794 1537 2939 
Q 1816 3084 2150 3084 
Q 2853 3084 3261 2657 
Q 3669 2231 3669 1497 
Q 3669 778 3244 343 
Q 2819 -91 2113 -91 
Q 1303 -91 875 529 
Q 447 1150 447 2328 
Q 447 3434 972 4092 
Q 1497 4750 2381 4750 
Q 2619 4750 2861 4703 
Q 3103 4656 3366 4563 
z
" transform="scale(0.015625)"/>
       </defs>
       <use xlink:href="#DejaVuSans-30"/>
       <use xlink:href="#DejaVuSans-2e" x="63.623047"/>
       <use xlink:href="#DejaVuSans-36" x="95.410156"/>
      </g>
     </g>
    </g>
    <g id="xtick_6">
     <g id="line2d_6">
      <g>
       <use xlink:href="#md196b60667" x="348.963698" y="307.584" style="stroke: #000000; stroke-width: 0.8"/>
      </g>
     </g>
     <g id="text_6">
      <!-- 0.8 -->
      <g transform="translate(341.012135 322.182437) scale(0.1 -0.1)">
       <defs>
        <path id="DejaVuSans-38" d="M 2034 2216 
Q 1584 2216 1326 1975 
Q 1069 1734 1069 1313 
Q 1069 891 1326 650 
Q 1584 409 2034 409 
Q 2484 409 2743 651 
Q 3003 894 3003 1313 
Q 3003 1734 2745 1975 
Q 2488 2216 2034 2216 
z
M 1403 2484 
Q 997 2584 770 2862 
Q 544 3141 544 3541 
Q 544 4100 942 4425 
Q 1341 4750 2034 4750 
Q 2731 4750 3128 4425 
Q 3525 4100 3525 3541 
Q 3525 3141 3298 2862 
Q 3072 2584 2669 2484 
Q 3125 2378 3379 2068 
Q 3634 1759 3634 1313 
Q 3634 634 3220 271 
Q 2806 -91 2034 -91 
Q 1263 -91 848 271 
Q 434 634 434 1313 
Q 434 1759 690 2068 
Q 947 2378 1403 2484 
z
M 1172 3481 
Q 1172 3119 1398 2916 
Q 1625 2713 2034 2713 
Q 2441 2713 2670 2916 
Q 2900 3119 2900 3481 
Q 2900 3844 2670 4047 
Q 2441 4250 2034 4250 
Q 1625 4250 1398 4047 
Q 1172 3844 1172 3481 
z
" transform="scale(0.015625)"/>
       </defs>
       <use xlink:href="#DejaVuSans-30"/>
       <use xlink:href="#DejaVuSans-2e" x="63.623047"/>
       <use xlink:href="#DejaVuSans-38" x="95.410156"/>
      </g>
     </g>
    </g>
    <g id="xtick_7">
     <g id="line2d_7">
      <g>
       <use xlink:href="#md196b60667" x="403.989892" y="307.584" style="stroke: #000000; stroke-width: 0.8"/>
      </g>
     </g>
     <g id="text_7">
      <!-- 1.0 -->
      <g transform="translate(396.03833 322.182437) scale(0.1 -0.1)">
       <defs>
        <path id="DejaVuSans-31" d="M 794 531 
L 1825 531 
L 1825 4091 
L 703 3866 
L 703 4441 
L 1819 4666 
L 2450 4666 
L 2450 531 
L 3481 531 
L 3481 0 
L 794 0 
L 794 531 
z
" transform="scale(0.015625)"/>
       </defs>
       <use xlink:href="#DejaVuSans-31"/>
       <use xlink:href="#DejaVuSans-2e" x="63.623047"/>
       <use xlink:href="#DejaVuSans-30" x="95.410156"/>
      </g>
     </g>
    </g>
    <g id="text_8">
     <!-- cosine similarity -->
     <g transform="translate(195.452969 335.860562) scale(0.1 -0.1)">
      <defs>
       <path id="DejaVuSans-63" d="M 3122 3366 
L 3122 2828 
Q 2878 2963 2633 3030 
Q 2388 3097 2138 3097 
Q 1578 3097 1268 2742 
Q 959 2388 959 1747 
Q 959 1106 1268 751 
Q 1578 397 2138 397 
Q 2388 397 2633 464 
Q 2878 531 3122 666 
L 3122 134 
Q 2881 22 2623 -34 
Q 2366 -91 2075 -91 
Q 1284 -91 818 406 
Q 353 903 353 1747 
Q 353 2603 823 3093 
Q 1294 3584 2113 3584 
Q 2378 3584 2631 3529 
Q 2884 3475 3122 3366 
z
" transform="scale(0.015625)"/>
       <path id="DejaVuSans-6f" d="M 1959 3097 
Q 1497 3097 1228 2736 
Q 959 2375 959 1747 
Q 959 1119 1226 758 
Q 1494 397 1959 397 
Q 2419 397 2687 759 
Q 2956 1122 2956 1747 
Q 2956 2369 2687 2733 
Q 2419 3097 1959 3097 
z
M 1959 3584 
Q 2709 3584 3137 3096 
Q 3566 2609 3566 1747 
Q 3566 888 3137 398 
Q 2709 -91 1959 -91 
Q 1206 -91 779 398 
Q 353 888 353 1747 
Q 353 2609 779 3096 
Q 1206 3584 1959 3584 
z
" transform="scale(0.015625)"/>
       <path id="DejaVuSans-73" d="M 2834 3397 
L 2834 2853 
Q 2591 2978 2328 3040 
Q 2066 3103 1784 3103 
Q 1356 3103 1142 2972 
Q 928 2841 928 2578 
Q 928 2378 1081 2264 
Q 1234 2150 1697 2047 
L 1894 2003 
Q 2506 1872 2764 1633 
Q 3022 1394 3022 966 
Q 3022 478 2636 193 
Q 2250 -91 1575 -91 
Q 1294 -91 989 -36 
Q 684 19 347 128 
L 347 722 
Q 666 556 975 473 
Q 1284 391 1588 391 
Q 1994 391 2212 530 
Q 2431 669 2431 922 
Q 2431 1156 2273 1281 
Q 2116 1406 1581 1522 
L 1381 1569 
Q 847 1681 609 1914 
Q 372 2147 372 2553 
Q 372 3047 722 3315 
Q 1072 3584 1716 3584 
Q 2034 3584 2315 3537 
Q 2597 3491 2834 3397 
z
" transform="scale(0.015625)"/>
       <path id="DejaVuSans-69" d="M 603 3500 
L 1178 3500 
L 1178 0 
L 603 0 
L 603 3500 
z
M 603 4863 
L 1178 4863 
L 1178 4134 
L 603 4134 
L 603 4863 
z
" transform="scale(0.015625)"/>
       <path id="DejaVuSans-6e" d="M 3513 2113 
L 3513 0 
L 2938 0 
L 2938 2094 
Q 2938 2591 2744 2837 
Q 2550 3084 2163 3084 
Q 1697 3084 1428 2787 
Q 1159 2491 1159 1978 
L 1159 0 
L 581 0 
L 581 3500 
L 1159 3500 
L 1159 2956 
Q 1366 3272 1645 3428 
Q 1925 3584 2291 3584 
Q 2894 3584 3203 3211 
Q 3513 2838 3513 2113 
z
" transform="scale(0.015625)"/>
       <path id="DejaVuSans-65" d="M 3597 1894 
L 3597 1613 
L 953 1613 
Q 991 1019 1311 708 
Q 1631 397 2203 397 
Q 2534 397 2845 478 
Q 3156 559 3463 722 
L 3463 178 
Q 3153 47 2828 -22 
Q 2503 -91 2169 -91 
Q 1331 -91 842 396 
Q 353 884 353 1716 
Q 353 2575 817 3079 
Q 1281 3584 2069 3584 
Q 2775 3584 3186 3129 
Q 3597 2675 3597 1894 
z
M 3022 2063 
Q 3016 2534 2758 2815 
Q 2500 3097 2075 3097 
Q 1594 3097 1305 2825 
Q 1016 2553 972 2059 
L 3022 2063 
z
" transform="scale(0.015625)"/>
       <path id="DejaVuSans-20" transform="scale(0.015625)"/>
       <path id="DejaVuSans-6d" d="M 3328 2828 
Q 3544 3216 3844 3400 
Q 4144 3584 4550 3584 
Q 5097 3584 5394 3201 
Q 5691 2819 5691 2113 
L 5691 0 
L 5113 0 
L 5113 2094 
Q 5113 2597 4934 2840 
Q 4756 3084 4391 3084 
Q 3944 3084 3684 2787 
Q 3425 2491 3425 1978 
L 3425 0 
L 2847 0 
L 2847 2094 
Q 2847 2600 2669 2842 
Q 2491 3084 2119 3084 
Q 1678 3084 1418 2786 
Q 1159 2488 1159 1978 
L 1159 0 
L 581 0 
L 581 3500 
L 1159 3500 
L 1159 2956 
Q 1356 3278 1631 3431 
Q 1906 3584 2284 3584 
Q 2666 3584 2933 3390 
Q 3200 3197 3328 2828 
z
" transform="scale(0.015625)"/>
       <path id="DejaVuSans-6c" d="M 603 4863 
L 1178 4863 
L 1178 0 
L 603 0 
L 603 4863 
z
" transform="scale(0.015625)"/>
       <path id="DejaVuSans-61" d="M 2194 1759 
Q 1497 1759 1228 1600 
Q 959 1441 959 1056 
Q 959 750 1161 570 
Q 1363 391 1709 391 
Q 2188 391 2477 730 
Q 2766 1069 2766 1631 
L 2766 1759 
L 2194 1759 
z
M 3341 1997 
L 3341 0 
L 2766 0 
L 2766 531 
Q 2569 213 2275 61 
Q 1981 -91 1556 -91 
Q 1019 -91 701 211 
Q 384 513 384 1019 
Q 384 1609 779 1909 
Q 1175 2209 1959 2209 
L 2766 2209 
L 2766 2266 
Q 2766 2663 2505 2880 
Q 2244 3097 1772 3097 
Q 1472 3097 1187 3025 
Q 903 2953 641 2809 
L 641 3341 
Q 956 3463 1253 3523 
Q 1550 3584 1831 3584 
Q 2591 3584 2966 3190 
Q 3341 2797 3341 1997 
z
" transform="scale(0.015625)"/>
       <path id="DejaVuSans-72" d="M 2631 2963 
Q 2534 3019 2420 3045 
Q 2306 3072 2169 3072 
Q 1681 3072 1420 2755 
Q 1159 2438 1159 1844 
L 1159 0 
L 581 0 
L 581 3500 
L 1159 3500 
L 1159 2956 
Q 1341 3275 1631 3429 
Q 1922 3584 2338 3584 
Q 2397 3584 2469 3576 
Q 2541 3569 2628 3553 
L 2631 2963 
z
" transform="scale(0.015625)"/>
       <path id="DejaVuSans-74" d="M 1172 4494 
L 1172 3500 
L 2356 3500 
L 2356 3053 
L 1172 3053 
L 1172 1153 
Q 1172 725 1289 603 
Q 1406 481 1766 481 
L 2356 481 
L 2356 0 
L 1766 0 
Q 1100 0 847 248 
Q 594 497 594 1153 
L 594 3053 
L 172 3053 
L 172 3500 
L 594 3500 
L 594 4494 
L 1172 4494 
z
" transform="scale(0.015625)"/>
       <path id="DejaVuSans-79" d="M 2059 -325 
Q 1816 -950 1584 -1140 
Q 1353 -1331 966 -1331 
L 506 -1331 
L 506 -850 
L 844 -850 
Q 1081 -850 1212 -737 
Q 1344 -625 1503 -206 
L 1606 56 
L 191 3500 
L 800 3500 
L 1894 763 
L 2988 3500 
L 3597 3500 
L 2059 -325 
z
" transform="scale(0.015625)"/>
      </defs>
      <use xlink:href="#DejaVuSans-63"/>
      <use xlink:href="#DejaVuSans-6f" x="54.980469"/>
      <use xlink:href="#DejaVuSans-73" x="116.162109"/>
      <use xlink:href="#DejaVuSans-69" x="168.261719"/>
      <use xlink:href="#DejaVuSans-6e" x="196.044922"/>
      <use xlink:href="#DejaVuSans-65" x="259.423828"/>
      <use xlink:href="#DejaVuSans-20" x="320.947266"/>
      <use xlink:href="#DejaVuSans-73" x="352.734375"/>
      <use xlink:href="#DejaVuSans-69" x="404.833984"/>
      <use xlink:href="#DejaVuSans-6d" x="432.617188"/>
      <use xlink:href="#DejaVuSans-69" x="530.029297"/>
      <use xlink:href="#DejaVuSans-6c" x="557.8125"/>
      <use xlink:href="#DejaVuSans-61" x="585.595703"/>
      <use xlink:href="#DejaVuSans-72" x="646.875"/>
      <use xlink:href="#DejaVuSans-69" x="687.988281"/>
      <use xlink:href="#DejaVuSans-74" x="715.771484"/>
      <use xlink:href="#DejaVuSans-79" x="754.980469"/>
     </g>
    </g>
   </g>
   <g id="matplotlib.axis_2">
    <g id="ytick_1">
     <g id="line2d_8">
      <defs>
       <path id="m403f8ca246" d="M 0 0 
L -3.5 0 
" style="stroke: #000000; stroke-width: 0.8"/>
      </defs>
      <g>
       <use xlink:href="#m403f8ca246" x="57.6" y="307.584" style="stroke: #000000; stroke-width: 0.8"/>
      </g>
     </g>
     <g id="text_9">
      <!-- 0 -->
      <g transform="translate(44.2375 311.383219) scale(0.1 -0.1)">
       <use xlink:href="#DejaVuSans-30"/>
      </g>
     </g>
    </g>
    <g id="ytick_2">
     <g id="line2d_9">
      <g>
       <use xlink:href="#m403f8ca246" x="57.6" y="274.489197" style="stroke: #000000; stroke-width: 0.8"/>
      </g>
     </g>
     <g id="text_10">
      <!-- 1000 -->
      <g transform="translate(25.15 278.288416) scale(0.1 -0.1)">
       <use xlink:href="#DejaVuSans-31"/>
       <use xlink:href="#DejaVuSans-30" x="63.623047"/>
       <use xlink:href="#DejaVuSans-30" x="127.246094"/>
       <use xlink:href="#DejaVuSans-30" x="190.869141"/>
      </g>
     </g>
    </g>
    <g id="ytick_3">
     <g id="line2d_10">
      <g>
       <use xlink:href="#m403f8ca246" x="57.6" y="241.394394" style="stroke: #000000; stroke-width: 0.8"/>
      </g>
     </g>
     <g id="text_11">
      <!-- 2000 -->
      <g transform="translate(25.15 245.193613) scale(0.1 -0.1)">
       <use xlink:href="#DejaVuSans-32"/>
       <use xlink:href="#DejaVuSans-30" x="63.623047"/>
       <use xlink:href="#DejaVuSans-30" x="127.246094"/>
       <use xlink:href="#DejaVuSans-30" x="190.869141"/>
      </g>
     </g>
    </g>
    <g id="ytick_4">
     <g id="line2d_11">
      <g>
       <use xlink:href="#m403f8ca246" x="57.6" y="208.299592" style="stroke: #000000; stroke-width: 0.8"/>
      </g>
     </g>
     <g id="text_12">
      <!-- 3000 -->
      <g transform="translate(25.15 212.09881) scale(0.1 -0.1)">
       <defs>
        <path id="DejaVuSans-33" d="M 2597 2516 
Q 3050 2419 3304 2112 
Q 3559 1806 3559 1356 
Q 3559 666 3084 287 
Q 2609 -91 1734 -91 
Q 1441 -91 1130 -33 
Q 819 25 488 141 
L 488 750 
Q 750 597 1062 519 
Q 1375 441 1716 441 
Q 2309 441 2620 675 
Q 2931 909 2931 1356 
Q 2931 1769 2642 2001 
Q 2353 2234 1838 2234 
L 1294 2234 
L 1294 2753 
L 1863 2753 
Q 2328 2753 2575 2939 
Q 2822 3125 2822 3475 
Q 2822 3834 2567 4026 
Q 2313 4219 1838 4219 
Q 1578 4219 1281 4162 
Q 984 4106 628 3988 
L 628 4550 
Q 988 4650 1302 4700 
Q 1616 4750 1894 4750 
Q 2613 4750 3031 4423 
Q 3450 4097 3450 3541 
Q 3450 3153 3228 2886 
Q 3006 2619 2597 2516 
z
" transform="scale(0.015625)"/>
       </defs>
       <use xlink:href="#DejaVuSans-33"/>
       <use xlink:href="#DejaVuSans-30" x="63.623047"/>
       <use xlink:href="#DejaVuSans-30" x="127.246094"/>
       <use xlink:href="#DejaVuSans-30" x="190.869141"/>
      </g>
     </g>
    </g>
    <g id="ytick_5">
     <g id="line2d_12">
      <g>
       <use xlink:href="#m403f8ca246" x="57.6" y="175.204789" style="stroke: #000000; stroke-width: 0.8"/>
      </g>
     </g>
     <g id="text_13">
      <!-- 4000 -->
      <g transform="translate(25.15 179.004007) scale(0.1 -0.1)">
       <use xlink:href="#DejaVuSans-34"/>
       <use xlink:href="#DejaVuSans-30" x="63.623047"/>
       <use xlink:href="#DejaVuSans-30" x="127.246094"/>
       <use xlink:href="#DejaVuSans-30" x="190.869141"/>
      </g>
     </g>
    </g>
    <g id="ytick_6">
     <g id="line2d_13">
      <g>
       <use xlink:href="#m403f8ca246" x="57.6" y="142.109986" style="stroke: #000000; stroke-width: 0.8"/>
      </g>
     </g>
     <g id="text_14">
      <!-- 5000 -->
      <g transform="translate(25.15 145.909205) scale(0.1 -0.1)">
       <defs>
        <path id="DejaVuSans-35" d="M 691 4666 
L 3169 4666 
L 3169 4134 
L 1269 4134 
L 1269 2991 
Q 1406 3038 1543 3061 
Q 1681 3084 1819 3084 
Q 2600 3084 3056 2656 
Q 3513 2228 3513 1497 
Q 3513 744 3044 326 
Q 2575 -91 1722 -91 
Q 1428 -91 1123 -41 
Q 819 9 494 109 
L 494 744 
Q 775 591 1075 516 
Q 1375 441 1709 441 
Q 2250 441 2565 725 
Q 2881 1009 2881 1497 
Q 2881 1984 2565 2268 
Q 2250 2553 1709 2553 
Q 1456 2553 1204 2497 
Q 953 2441 691 2322 
L 691 4666 
z
" transform="scale(0.015625)"/>
       </defs>
       <use xlink:href="#DejaVuSans-35"/>
       <use xlink:href="#DejaVuSans-30" x="63.623047"/>
       <use xlink:href="#DejaVuSans-30" x="127.246094"/>
       <use xlink:href="#DejaVuSans-30" x="190.869141"/>
      </g>
     </g>
    </g>
    <g id="ytick_7">
     <g id="line2d_14">
      <g>
       <use xlink:href="#m403f8ca246" x="57.6" y="109.015183" style="stroke: #000000; stroke-width: 0.8"/>
      </g>
     </g>
     <g id="text_15">
      <!-- 6000 -->
      <g transform="translate(25.15 112.814402) scale(0.1 -0.1)">
       <use xlink:href="#DejaVuSans-36"/>
       <use xlink:href="#DejaVuSans-30" x="63.623047"/>
       <use xlink:href="#DejaVuSans-30" x="127.246094"/>
       <use xlink:href="#DejaVuSans-30" x="190.869141"/>
      </g>
     </g>
    </g>
    <g id="ytick_8">
     <g id="line2d_15">
      <g>
       <use xlink:href="#m403f8ca246" x="57.6" y="75.92038" style="stroke: #000000; stroke-width: 0.8"/>
      </g>
     </g>
     <g id="text_16">
      <!-- 7000 -->
      <g transform="translate(25.15 79.719599) scale(0.1 -0.1)">
       <defs>
        <path id="DejaVuSans-37" d="M 525 4666 
L 3525 4666 
L 3525 4397 
L 1831 0 
L 1172 0 
L 2766 4134 
L 525 4134 
L 525 4666 
z
" transform="scale(0.015625)"/>
       </defs>
       <use xlink:href="#DejaVuSans-37"/>
       <use xlink:href="#DejaVuSans-30" x="63.623047"/>
       <use xlink:href="#DejaVuSans-30" x="127.246094"/>
       <use xlink:href="#DejaVuSans-30" x="190.869141"/>
      </g>
     </g>
    </g>
    <g id="ytick_9">
     <g id="line2d_16">
      <g>
       <use xlink:href="#m403f8ca246" x="57.6" y="42.825577" style="stroke: #000000; stroke-width: 0.8"/>
      </g>
     </g>
     <g id="text_17">
      <!-- 8000 -->
      <g transform="translate(25.15 46.624796) scale(0.1 -0.1)">
       <use xlink:href="#DejaVuSans-38"/>
       <use xlink:href="#DejaVuSans-30" x="63.623047"/>
       <use xlink:href="#DejaVuSans-30" x="127.246094"/>
       <use xlink:href="#DejaVuSans-30" x="190.869141"/>
      </g>
     </g>
    </g>
   </g>
   <g id="line2d_17">
    <path d="M 257.628332 307.584 
L 257.628332 41.472 
" clip-path="url(#pe6195c407a)" style="fill: none; stroke-dasharray: 3.7,1.6; stroke-dashoffset: 0; stroke: #000000"/>
   </g>
   <g id="patch_180">
    <path d="M 57.6 307.584 
L 57.6 41.472 
" style="fill: none; stroke: #000000; stroke-width: 0.8; stroke-linejoin: miter; stroke-linecap: square"/>
   </g>
   <g id="patch_181">
    <path d="M 414.72 307.584 
L 414.72 41.472 
" style="fill: none; stroke: #000000; stroke-width: 0.8; stroke-linejoin: miter; stroke-linecap: square"/>
   </g>
   <g id="patch_182">
    <path d="M 57.6 307.584 
L 414.72 307.584 
" style="fill: none; stroke: #000000; stroke-width: 0.8; stroke-linejoin: miter; stroke-linecap: square"/>
   </g>
   <g id="patch_183">
    <path d="M 57.6 41.472 
L 414.72 41.472 
" style="fill: none; stroke: #000000; stroke-width: 0.8; stroke-linejoin: miter; stroke-linecap: square"/>
   </g>
   <g id="text_18">
    <!-- train cosine similarity scores for all speech length combinations -->
    <g transform="translate(44.559375 35.472) scale(0.12 -0.12)">
     <defs>
      <path id="DejaVuSans-66" d="M 2375 4863 
L 2375 4384 
L 1825 4384 
Q 1516 4384 1395 4259 
Q 1275 4134 1275 3809 
L 1275 3500 
L 2222 3500 
L 2222 3053 
L 1275 3053 
L 1275 0 
L 697 0 
L 697 3053 
L 147 3053 
L 147 3500 
L 697 3500 
L 697 3744 
Q 697 4328 969 4595 
Q 1241 4863 1831 4863 
L 2375 4863 
z
" transform="scale(0.015625)"/>
      <path id="DejaVuSans-70" d="M 1159 525 
L 1159 -1331 
L 581 -1331 
L 581 3500 
L 1159 3500 
L 1159 2969 
Q 1341 3281 1617 3432 
Q 1894 3584 2278 3584 
Q 2916 3584 3314 3078 
Q 3713 2572 3713 1747 
Q 3713 922 3314 415 
Q 2916 -91 2278 -91 
Q 1894 -91 1617 61 
Q 1341 213 1159 525 
z
M 3116 1747 
Q 3116 2381 2855 2742 
Q 2594 3103 2138 3103 
Q 1681 3103 1420 2742 
Q 1159 2381 1159 1747 
Q 1159 1113 1420 752 
Q 1681 391 2138 391 
Q 2594 391 2855 752 
Q 3116 1113 3116 1747 
z
" transform="scale(0.015625)"/>
      <path id="DejaVuSans-68" d="M 3513 2113 
L 3513 0 
L 2938 0 
L 2938 2094 
Q 2938 2591 2744 2837 
Q 2550 3084 2163 3084 
Q 1697 3084 1428 2787 
Q 1159 2491 1159 1978 
L 1159 0 
L 581 0 
L 581 4863 
L 1159 4863 
L 1159 2956 
Q 1366 3272 1645 3428 
Q 1925 3584 2291 3584 
Q 2894 3584 3203 3211 
Q 3513 2838 3513 2113 
z
" transform="scale(0.015625)"/>
      <path id="DejaVuSans-67" d="M 2906 1791 
Q 2906 2416 2648 2759 
Q 2391 3103 1925 3103 
Q 1463 3103 1205 2759 
Q 947 2416 947 1791 
Q 947 1169 1205 825 
Q 1463 481 1925 481 
Q 2391 481 2648 825 
Q 2906 1169 2906 1791 
z
M 3481 434 
Q 3481 -459 3084 -895 
Q 2688 -1331 1869 -1331 
Q 1566 -1331 1297 -1286 
Q 1028 -1241 775 -1147 
L 775 -588 
Q 1028 -725 1275 -790 
Q 1522 -856 1778 -856 
Q 2344 -856 2625 -561 
Q 2906 -266 2906 331 
L 2906 616 
Q 2728 306 2450 153 
Q 2172 0 1784 0 
Q 1141 0 747 490 
Q 353 981 353 1791 
Q 353 2603 747 3093 
Q 1141 3584 1784 3584 
Q 2172 3584 2450 3431 
Q 2728 3278 2906 2969 
L 2906 3500 
L 3481 3500 
L 3481 434 
z
" transform="scale(0.015625)"/>
      <path id="DejaVuSans-62" d="M 3116 1747 
Q 3116 2381 2855 2742 
Q 2594 3103 2138 3103 
Q 1681 3103 1420 2742 
Q 1159 2381 1159 1747 
Q 1159 1113 1420 752 
Q 1681 391 2138 391 
Q 2594 391 2855 752 
Q 3116 1113 3116 1747 
z
M 1159 2969 
Q 1341 3281 1617 3432 
Q 1894 3584 2278 3584 
Q 2916 3584 3314 3078 
Q 3713 2572 3713 1747 
Q 3713 922 3314 415 
Q 2916 -91 2278 -91 
Q 1894 -91 1617 61 
Q 1341 213 1159 525 
L 1159 0 
L 581 0 
L 581 4863 
L 1159 4863 
L 1159 2969 
z
" transform="scale(0.015625)"/>
     </defs>
     <use xlink:href="#DejaVuSans-74"/>
     <use xlink:href="#DejaVuSans-72" x="39.208984"/>
     <use xlink:href="#DejaVuSans-61" x="80.322266"/>
     <use xlink:href="#DejaVuSans-69" x="141.601562"/>
     <use xlink:href="#DejaVuSans-6e" x="169.384766"/>
     <use xlink:href="#DejaVuSans-20" x="232.763672"/>
     <use xlink:href="#DejaVuSans-63" x="264.550781"/>
     <use xlink:href="#DejaVuSans-6f" x="319.53125"/>
     <use xlink:href="#DejaVuSans-73" x="380.712891"/>
     <use xlink:href="#DejaVuSans-69" x="432.8125"/>
     <use xlink:href="#DejaVuSans-6e" x="460.595703"/>
     <use xlink:href="#DejaVuSans-65" x="523.974609"/>
     <use xlink:href="#DejaVuSans-20" x="585.498047"/>
     <use xlink:href="#DejaVuSans-73" x="617.285156"/>
     <use xlink:href="#DejaVuSans-69" x="669.384766"/>
     <use xlink:href="#DejaVuSans-6d" x="697.167969"/>
     <use xlink:href="#DejaVuSans-69" x="794.580078"/>
     <use xlink:href="#DejaVuSans-6c" x="822.363281"/>
     <use xlink:href="#DejaVuSans-61" x="850.146484"/>
     <use xlink:href="#DejaVuSans-72" x="911.425781"/>
     <use xlink:href="#DejaVuSans-69" x="952.539062"/>
     <use xlink:href="#DejaVuSans-74" x="980.322266"/>
     <use xlink:href="#DejaVuSans-79" x="1019.53125"/>
     <use xlink:href="#DejaVuSans-20" x="1078.710938"/>
     <use xlink:href="#DejaVuSans-73" x="1110.498047"/>
     <use xlink:href="#DejaVuSans-63" x="1162.597656"/>
     <use xlink:href="#DejaVuSans-6f" x="1217.578125"/>
     <use xlink:href="#DejaVuSans-72" x="1278.759766"/>
     <use xlink:href="#DejaVuSans-65" x="1317.623047"/>
     <use xlink:href="#DejaVuSans-73" x="1379.146484"/>
     <use xlink:href="#DejaVuSans-20" x="1431.246094"/>
     <use xlink:href="#DejaVuSans-66" x="1463.033203"/>
     <use xlink:href="#DejaVuSans-6f" x="1498.238281"/>
     <use xlink:href="#DejaVuSans-72" x="1559.419922"/>
     <use xlink:href="#DejaVuSans-20" x="1600.533203"/>
     <use xlink:href="#DejaVuSans-61" x="1632.320312"/>
     <use xlink:href="#DejaVuSans-6c" x="1693.599609"/>
     <use xlink:href="#DejaVuSans-6c" x="1721.382812"/>
     <use xlink:href="#DejaVuSans-20" x="1749.166016"/>
     <use xlink:href="#DejaVuSans-73" x="1780.953125"/>
     <use xlink:href="#DejaVuSans-70" x="1833.052734"/>
     <use xlink:href="#DejaVuSans-65" x="1896.529297"/>
     <use xlink:href="#DejaVuSans-65" x="1958.052734"/>
     <use xlink:href="#DejaVuSans-63" x="2019.576172"/>
     <use xlink:href="#DejaVuSans-68" x="2074.556641"/>
     <use xlink:href="#DejaVuSans-20" x="2137.935547"/>
     <use xlink:href="#DejaVuSans-6c" x="2169.722656"/>
     <use xlink:href="#DejaVuSans-65" x="2197.505859"/>
     <use xlink:href="#DejaVuSans-6e" x="2259.029297"/>
     <use xlink:href="#DejaVuSans-67" x="2322.408203"/>
     <use xlink:href="#DejaVuSans-74" x="2385.884766"/>
     <use xlink:href="#DejaVuSans-68" x="2425.09375"/>
     <use xlink:href="#DejaVuSans-20" x="2488.472656"/>
     <use xlink:href="#DejaVuSans-63" x="2520.259766"/>
     <use xlink:href="#DejaVuSans-6f" x="2575.240234"/>
     <use xlink:href="#DejaVuSans-6d" x="2636.421875"/>
     <use xlink:href="#DejaVuSans-62" x="2733.833984"/>
     <use xlink:href="#DejaVuSans-69" x="2797.310547"/>
     <use xlink:href="#DejaVuSans-6e" x="2825.09375"/>
     <use xlink:href="#DejaVuSans-61" x="2888.472656"/>
     <use xlink:href="#DejaVuSans-74" x="2949.751953"/>
     <use xlink:href="#DejaVuSans-69" x="2988.960938"/>
     <use xlink:href="#DejaVuSans-6f" x="3016.744141"/>
     <use xlink:href="#DejaVuSans-6e" x="3077.925781"/>
     <use xlink:href="#DejaVuSans-73" x="3141.304688"/>
    </g>
   </g>
   <g id="legend_1">
    <g id="patch_184">
     <path d="M 64.6 108.1845 
L 171.359375 108.1845 
Q 173.359375 108.1845 173.359375 106.1845 
L 173.359375 48.472 
Q 173.359375 46.472 171.359375 46.472 
L 64.6 46.472 
Q 62.6 46.472 62.6 48.472 
L 62.6 106.1845 
Q 62.6 108.1845 64.6 108.1845 
z
" style="fill: #ffffff; opacity: 0.8; stroke: #cccccc; stroke-linejoin: miter"/>
    </g>
    <g id="text_19">
     <!-- group -->
     <g transform="translate(103.460156 58.070438) scale(0.1 -0.1)">
      <defs>
       <path id="DejaVuSans-75" d="M 544 1381 
L 544 3500 
L 1119 3500 
L 1119 1403 
Q 1119 906 1312 657 
Q 1506 409 1894 409 
Q 2359 409 2629 706 
Q 2900 1003 2900 1516 
L 2900 3500 
L 3475 3500 
L 3475 0 
L 2900 0 
L 2900 538 
Q 2691 219 2414 64 
Q 2138 -91 1772 -91 
Q 1169 -91 856 284 
Q 544 659 544 1381 
z
M 1991 3584 
L 1991 3584 
z
" transform="scale(0.015625)"/>
      </defs>
      <use xlink:href="#DejaVuSans-67"/>
      <use xlink:href="#DejaVuSans-72" x="63.476562"/>
      <use xlink:href="#DejaVuSans-6f" x="102.339844"/>
      <use xlink:href="#DejaVuSans-75" x="163.521484"/>
      <use xlink:href="#DejaVuSans-70" x="226.900391"/>
     </g>
    </g>
    <g id="patch_185">
     <path d="M 66.6 72.748563 
L 86.6 72.748563 
L 86.6 65.748563 
L 66.6 65.748563 
z
" style="fill: #1f77b4; opacity: 0.5"/>
    </g>
    <g id="text_20">
     <!-- across age -->
     <g transform="translate(94.6 72.748563) scale(0.1 -0.1)">
      <use xlink:href="#DejaVuSans-61"/>
      <use xlink:href="#DejaVuSans-63" x="61.279297"/>
      <use xlink:href="#DejaVuSans-72" x="116.259766"/>
      <use xlink:href="#DejaVuSans-6f" x="155.123047"/>
      <use xlink:href="#DejaVuSans-73" x="216.304688"/>
      <use xlink:href="#DejaVuSans-73" x="268.404297"/>
      <use xlink:href="#DejaVuSans-20" x="320.503906"/>
      <use xlink:href="#DejaVuSans-61" x="352.291016"/>
      <use xlink:href="#DejaVuSans-67" x="413.570312"/>
      <use xlink:href="#DejaVuSans-65" x="477.046875"/>
     </g>
    </g>
    <g id="patch_186">
     <path d="M 66.6 87.426688 
L 86.6 87.426688 
L 86.6 80.426688 
L 66.6 80.426688 
z
" style="fill: #ff7f0e; opacity: 0.5"/>
    </g>
    <g id="text_21">
     <!-- within age -->
     <g transform="translate(94.6 87.426688) scale(0.1 -0.1)">
      <defs>
       <path id="DejaVuSans-77" d="M 269 3500 
L 844 3500 
L 1563 769 
L 2278 3500 
L 2956 3500 
L 3675 769 
L 4391 3500 
L 4966 3500 
L 4050 0 
L 3372 0 
L 2619 2869 
L 1863 0 
L 1184 0 
L 269 3500 
z
" transform="scale(0.015625)"/>
      </defs>
      <use xlink:href="#DejaVuSans-77"/>
      <use xlink:href="#DejaVuSans-69" x="81.787109"/>
      <use xlink:href="#DejaVuSans-74" x="109.570312"/>
      <use xlink:href="#DejaVuSans-68" x="148.779297"/>
      <use xlink:href="#DejaVuSans-69" x="212.158203"/>
      <use xlink:href="#DejaVuSans-6e" x="239.941406"/>
      <use xlink:href="#DejaVuSans-20" x="303.320312"/>
      <use xlink:href="#DejaVuSans-61" x="335.107422"/>
      <use xlink:href="#DejaVuSans-67" x="396.386719"/>
      <use xlink:href="#DejaVuSans-65" x="459.863281"/>
     </g>
    </g>
    <g id="patch_187">
     <path d="M 66.6 102.104813 
L 86.6 102.104813 
L 86.6 95.104813 
L 66.6 95.104813 
z
" style="fill: #2ca02c; opacity: 0.5"/>
    </g>
    <g id="text_22">
     <!-- across speaker -->
     <g transform="translate(94.6 102.104813) scale(0.1 -0.1)">
      <defs>
       <path id="DejaVuSans-6b" d="M 581 4863 
L 1159 4863 
L 1159 1991 
L 2875 3500 
L 3609 3500 
L 1753 1863 
L 3688 0 
L 2938 0 
L 1159 1709 
L 1159 0 
L 581 0 
L 581 4863 
z
" transform="scale(0.015625)"/>
      </defs>
      <use xlink:href="#DejaVuSans-61"/>
      <use xlink:href="#DejaVuSans-63" x="61.279297"/>
      <use xlink:href="#DejaVuSans-72" x="116.259766"/>
      <use xlink:href="#DejaVuSans-6f" x="155.123047"/>
      <use xlink:href="#DejaVuSans-73" x="216.304688"/>
      <use xlink:href="#DejaVuSans-73" x="268.404297"/>
      <use xlink:href="#DejaVuSans-20" x="320.503906"/>
      <use xlink:href="#DejaVuSans-73" x="352.291016"/>
      <use xlink:href="#DejaVuSans-70" x="404.390625"/>
      <use xlink:href="#DejaVuSans-65" x="467.867188"/>
      <use xlink:href="#DejaVuSans-61" x="529.390625"/>
      <use xlink:href="#DejaVuSans-6b" x="590.669922"/>
      <use xlink:href="#DejaVuSans-65" x="644.955078"/>
      <use xlink:href="#DejaVuSans-72" x="706.478516"/>
     </g>
    </g>
   </g>
  </g>
 </g>
 <defs>
  <clipPath id="pe6195c407a">
   <rect x="57.6" y="41.472" width="357.12" height="266.112"/>
  </clipPath>
 </defs>
</svg>
